<?xml version="1.0" encoding="UTF-8" standalone="no"?>
<!DOCTYPE svg PUBLIC "-//W3C//DTD SVG 1.1//EN"
 "http://www.w3.org/Graphics/SVG/1.1/DTD/svg11.dtd">
<!-- Generated by graphviz version 3.0.0 (0)
 -->
<!-- Title: ViennaRNA/plotting Pages: 1 -->
<svg width="287pt" height="183pt"
 viewBox="0.00 0.00 287.00 183.00" xmlns="http://www.w3.org/2000/svg" xmlns:xlink="http://www.w3.org/1999/xlink">
<g id="graph0" class="graph" transform="scale(1 1) rotate(0) translate(4 179)">
<title>ViennaRNA/plotting</title>
<g id="clust1" class="cluster">
<title>clusterdir_94a42affd43e91f8a4e9ff1a4c7599c5</title>
<g id="a_clust1"><a xlink:href="dir_94a42affd43e91f8a4e9ff1a4c7599c5.html" target="_top" xlink:title="ViennaRNA">
<polygon fill="#edf0f7" stroke="#404040" stroke-dasharray="5,2" points="8,-8 8,-167 271,-167 271,-8 8,-8"/>
<text text-anchor="middle" x="139.5" y="-155" font-family="Helvetica,sans-Serif" font-size="10.00">ViennaRNA</text>
</a>
</g>
</g>
<g id="clust2" class="cluster">
<title>clusterdir_1ca6f3a46323f79e1934000abf5d4efb</title>
<g id="a_clust2"><a xlink:href="dir_1ca6f3a46323f79e1934000abf5d4efb.html" target="_top">
<polygon fill="#edf0f7" stroke="#404040" stroke-width="2" points="16,-16 16,-140 102,-140 102,-16 16,-16"/>
</a>
</g>
</g>
<!-- dir_1ddf03e95848b6488d60454f7a385ded -->
<g id="node1" class="node">
<title>dir_1ddf03e95848b6488d60454f7a385ded</title>
<g id="a_node1"><a xlink:href="dir_1ddf03e95848b6488d60454f7a385ded.html" target="_top" xlink:title="utils">
<polygon fill="#a2b4d6" stroke="#404040" points="166,-60 112,-60 112,-24 166,-24 166,-60"/>
<text text-anchor="middle" x="139" y="-39.5" font-family="Helvetica,sans-Serif" font-size="10.00">utils</text>
</a>
</g>
</g>
<!-- dir_8a4ca9b4a73205797ab566a10a6011af -->
<g id="node2" class="node">
<title>dir_8a4ca9b4a73205797ab566a10a6011af</title>
<g id="a_node2"><a xlink:href="dir_8a4ca9b4a73205797ab566a10a6011af.html" target="_top" xlink:title="datastructures">
<polygon fill="#a2b4d6" stroke="#404040" points="263.5,-60 184.5,-60 184.5,-24 263.5,-24 263.5,-60"/>
<text text-anchor="middle" x="224" y="-39.5" font-family="Helvetica,sans-Serif" font-size="10.00">datastructures</text>
</a>
</g>
</g>
<!-- dir_1ca6f3a46323f79e1934000abf5d4efb -->
<g id="node3" class="node">
<title>dir_1ca6f3a46323f79e1934000abf5d4efb</title>
<text text-anchor="middle" x="67" y="-111.5" font-family="Helvetica,sans-Serif" font-size="10.00">plotting</text>
</g>
<!-- dir_1ca6f3a46323f79e1934000abf5d4efb&#45;&gt;dir_1ddf03e95848b6488d60454f7a385ded -->
<g id="edge1" class="edge">
<title>dir_1ca6f3a46323f79e1934000abf5d4efb&#45;&gt;dir_1ddf03e95848b6488d60454f7a385ded</title>
<path fill="none" stroke="black" d="M84.8,-95.7C93.6,-87.14 104.38,-76.66 114,-67.3"/>
<polygon fill="black" stroke="black" points="116.68,-69.58 121.41,-60.1 111.8,-64.57 116.68,-69.58"/>
<g id="a_edge1&#45;headlabel"><a xlink:href="dir_000008_000012.html" target="_top" xlink:title="2">
<text text-anchor="middle" x="116.08" y="-71.63" font-family="Helvetica,sans-Serif" font-size="10.00">2</text>
</a>
</g>
</g>
<!-- dir_1ca6f3a46323f79e1934000abf5d4efb&#45;&gt;dir_8a4ca9b4a73205797ab566a10a6011af -->
<g id="edge3" class="edge">
<title>dir_1ca6f3a46323f79e1934000abf5d4efb&#45;&gt;dir_8a4ca9b4a73205797ab566a10a6011af</title>
<path fill="none" stroke="black" d="M94.35,-100.81C116.98,-90.72 149.66,-76.14 176.55,-64.16"/>
<polygon fill="black" stroke="black" points="178.09,-67.3 185.79,-60.03 175.24,-60.91 178.09,-67.3"/>
<g id="a_edge3&#45;headlabel"><a xlink:href="dir_000008_000001.html" target="_top" xlink:title="3">
<text text-anchor="middle" x="175.96" y="-68.86" font-family="Helvetica,sans-Serif" font-size="10.00">3</text>
</a>
</g>
</g>
<!-- dir_511ee2b14d6879b7ada858ff02a7ab24 -->
<g id="node4" class="node">
<title>dir_511ee2b14d6879b7ada858ff02a7ab24</title>
<g id="a_node4"><a xlink:href="dir_511ee2b14d6879b7ada858ff02a7ab24.html" target="_top" xlink:title="RNApuzzler">
<polygon fill="#a2b4d6" stroke="#404040" points="94,-60 24,-60 24,-24 94,-24 94,-60"/>
<text text-anchor="middle" x="59" y="-39.5" font-family="Helvetica,sans-Serif" font-size="10.00">RNApuzzler</text>
</a>
</g>
</g>
<!-- dir_1ca6f3a46323f79e1934000abf5d4efb&#45;&gt;dir_511ee2b14d6879b7ada858ff02a7ab24 -->
<g id="edge2" class="edge">
<title>dir_1ca6f3a46323f79e1934000abf5d4efb&#45;&gt;dir_511ee2b14d6879b7ada858ff02a7ab24</title>
<path fill="none" stroke="black" d="M65.02,-95.7C64.14,-87.98 63.08,-78.71 62.1,-70.11"/>
<polygon fill="black" stroke="black" points="65.57,-69.64 60.95,-60.1 58.61,-70.44 65.57,-69.64"/>
<g id="a_edge2&#45;headlabel"><a xlink:href="dir_000008_000010.html" target="_top" xlink:title="3">
<text text-anchor="middle" x="68.8" y="-70.39" font-family="Helvetica,sans-Serif" font-size="10.00">3</text>
</a>
</g>
</g>
</g>
</svg>
