<?xml version="1.0" encoding="UTF-8" standalone="no"?>
<!DOCTYPE svg PUBLIC "-//W3C//DTD SVG 1.1//EN"
 "http://www.w3.org/Graphics/SVG/1.1/DTD/svg11.dtd">
<!-- Generated by graphviz version 3.0.0 (0)
 -->
<!-- Title: ViennaRNA/loops Pages: 1 -->
<svg width="348pt" height="167pt"
 viewBox="0.00 0.00 348.00 167.00" xmlns="http://www.w3.org/2000/svg" xmlns:xlink="http://www.w3.org/1999/xlink">
<g id="graph0" class="graph" transform="scale(1 1) rotate(0) translate(4 163)">
<title>ViennaRNA/loops</title>
<g id="clust1" class="cluster">
<title>clusterdir_94a42affd43e91f8a4e9ff1a4c7599c5</title>
<g id="a_clust1"><a xlink:href="dir_94a42affd43e91f8a4e9ff1a4c7599c5.html" target="_top" xlink:title="ViennaRNA">
<polygon fill="#edf0f7" stroke="#404040" stroke-dasharray="5,2" points="8,-8 8,-151 332,-151 332,-8 8,-8"/>
<text text-anchor="middle" x="170" y="-139" font-family="Helvetica,sans-Serif" font-size="10.00">ViennaRNA</text>
</a>
</g>
</g>
<!-- dir_1ddf03e95848b6488d60454f7a385ded -->
<g id="node1" class="node">
<title>dir_1ddf03e95848b6488d60454f7a385ded</title>
<g id="a_node1"><a xlink:href="dir_1ddf03e95848b6488d60454f7a385ded.html" target="_top" xlink:title="utils">
<polygon fill="#a2b4d6" stroke="#404040" points="70,-52 16,-52 16,-16 70,-16 70,-52"/>
<text text-anchor="middle" x="43" y="-31.5" font-family="Helvetica,sans-Serif" font-size="10.00">utils</text>
</a>
</g>
</g>
<!-- dir_8a4ca9b4a73205797ab566a10a6011af -->
<g id="node2" class="node">
<title>dir_8a4ca9b4a73205797ab566a10a6011af</title>
<g id="a_node2"><a xlink:href="dir_8a4ca9b4a73205797ab566a10a6011af.html" target="_top" xlink:title="datastructures">
<polygon fill="#a2b4d6" stroke="#404040" points="167.5,-52 88.5,-52 88.5,-16 167.5,-16 167.5,-52"/>
<text text-anchor="middle" x="128" y="-31.5" font-family="Helvetica,sans-Serif" font-size="10.00">datastructures</text>
</a>
</g>
</g>
<!-- dir_8b3d6293463b6781f7bf8859fc72e182 -->
<g id="node3" class="node">
<title>dir_8b3d6293463b6781f7bf8859fc72e182</title>
<g id="a_node3"><a xlink:href="dir_8b3d6293463b6781f7bf8859fc72e182.html" target="_top" xlink:title="params">
<polygon fill="#a2b4d6" stroke="#404040" points="240,-52 186,-52 186,-16 240,-16 240,-52"/>
<text text-anchor="middle" x="213" y="-31.5" font-family="Helvetica,sans-Serif" font-size="10.00">params</text>
</a>
</g>
</g>
<!-- dir_e78bc76dd94a8744fef38d57611bd23c -->
<g id="node4" class="node">
<title>dir_e78bc76dd94a8744fef38d57611bd23c</title>
<g id="a_node4"><a xlink:href="dir_e78bc76dd94a8744fef38d57611bd23c.html" target="_top" xlink:title="constraints">
<polygon fill="#a2b4d6" stroke="#404040" points="323.5,-52 258.5,-52 258.5,-16 323.5,-16 323.5,-52"/>
<text text-anchor="middle" x="291" y="-31.5" font-family="Helvetica,sans-Serif" font-size="10.00">constraints</text>
</a>
</g>
</g>
<!-- dir_54da8e06181df970e10d68c1aa7bbb33 -->
<g id="node5" class="node">
<title>dir_54da8e06181df970e10d68c1aa7bbb33</title>
<g id="a_node5"><a xlink:href="dir_54da8e06181df970e10d68c1aa7bbb33.html" target="_top" xlink:title="loops">
<polygon fill="#edf0f7" stroke="#404040" stroke-width="2" points="197,-124 143,-124 143,-88 197,-88 197,-124"/>
<text text-anchor="middle" x="170" y="-103.5" font-family="Helvetica,sans-Serif" font-size="10.00">loops</text>
</a>
</g>
</g>
<!-- dir_54da8e06181df970e10d68c1aa7bbb33&#45;&gt;dir_1ddf03e95848b6488d60454f7a385ded -->
<g id="edge1" class="edge">
<title>dir_54da8e06181df970e10d68c1aa7bbb33&#45;&gt;dir_1ddf03e95848b6488d60454f7a385ded</title>
<path fill="none" stroke="black" d="M142.76,-89.98C124.17,-79.74 99.36,-66.07 79.13,-54.92"/>
<polygon fill="black" stroke="black" points="80.65,-51.75 70.2,-49.99 77.27,-57.88 80.65,-51.75"/>
<g id="a_edge1&#45;headlabel"><a xlink:href="dir_000006_000012.html" target="_top" xlink:title="3">
<text text-anchor="middle" x="85.17" y="-48.5" font-family="Helvetica,sans-Serif" font-size="10.00">3</text>
</a>
</g>
</g>
<!-- dir_54da8e06181df970e10d68c1aa7bbb33&#45;&gt;dir_8a4ca9b4a73205797ab566a10a6011af -->
<g id="edge2" class="edge">
<title>dir_54da8e06181df970e10d68c1aa7bbb33&#45;&gt;dir_8a4ca9b4a73205797ab566a10a6011af</title>
<path fill="none" stroke="black" d="M159.62,-87.7C154.74,-79.56 148.81,-69.69 143.42,-60.7"/>
<polygon fill="black" stroke="black" points="146.41,-58.88 138.26,-52.1 140.41,-62.48 146.41,-58.88"/>
<g id="a_edge2&#45;headlabel"><a xlink:href="dir_000006_000001.html" target="_top" xlink:title="4">
<text text-anchor="middle" x="150.69" y="-58" font-family="Helvetica,sans-Serif" font-size="10.00">4</text>
</a>
</g>
</g>
<!-- dir_54da8e06181df970e10d68c1aa7bbb33&#45;&gt;dir_8b3d6293463b6781f7bf8859fc72e182 -->
<g id="edge3" class="edge">
<title>dir_54da8e06181df970e10d68c1aa7bbb33&#45;&gt;dir_8b3d6293463b6781f7bf8859fc72e182</title>
<path fill="none" stroke="black" d="M180.63,-87.7C185.63,-79.56 191.69,-69.69 197.21,-60.7"/>
<polygon fill="black" stroke="black" points="200.24,-62.46 202.49,-52.1 194.28,-58.79 200.24,-62.46"/>
<g id="a_edge3&#45;headlabel"><a xlink:href="dir_000006_000007.html" target="_top" xlink:title="4">
<text text-anchor="middle" x="200.78" y="-64.51" font-family="Helvetica,sans-Serif" font-size="10.00">4</text>
</a>
</g>
</g>
<!-- dir_54da8e06181df970e10d68c1aa7bbb33&#45;&gt;dir_e78bc76dd94a8744fef38d57611bd23c -->
<g id="edge4" class="edge">
<title>dir_54da8e06181df970e10d68c1aa7bbb33&#45;&gt;dir_e78bc76dd94a8744fef38d57611bd23c</title>
<path fill="none" stroke="black" d="M197.15,-89.29C213.41,-79.89 234.34,-67.78 252.31,-57.38"/>
<polygon fill="black" stroke="black" points="254.49,-60.16 261.39,-52.13 250.99,-54.11 254.49,-60.16"/>
<g id="a_edge4&#45;headlabel"><a xlink:href="dir_000006_000000.html" target="_top" xlink:title="2">
<text text-anchor="middle" x="252.8" y="-61.92" font-family="Helvetica,sans-Serif" font-size="10.00">2</text>
</a>
</g>
</g>
</g>
</svg>
