<?xml version="1.0" encoding="UTF-8" standalone="no"?>
<!DOCTYPE svg PUBLIC "-//W3C//DTD SVG 1.1//EN"
 "http://www.w3.org/Graphics/SVG/1.1/DTD/svg11.dtd">
<!-- Generated by graphviz version 3.0.0 (0)
 -->
<!-- Title: ViennaRNA Pages: 1 -->
<svg width="370pt" height="364pt"
 viewBox="0.00 0.00 370.00 364.00" xmlns="http://www.w3.org/2000/svg" xmlns:xlink="http://www.w3.org/1999/xlink">
<g id="graph0" class="graph" transform="scale(1 1) rotate(0) translate(4 360)">
<title>ViennaRNA</title>
<g id="clust1" class="cluster">
<title>clusterdir_94a42affd43e91f8a4e9ff1a4c7599c5</title>
<g id="a_clust1"><a xlink:href="dir_94a42affd43e91f8a4e9ff1a4c7599c5.html" target="_top">
<polygon fill="#edf0f7" stroke="#404040" stroke-width="2" points="8,-8 8,-348 354,-348 354,-8 8,-8"/>
</a>
</g>
</g>
<!-- dir_94a42affd43e91f8a4e9ff1a4c7599c5 -->
<g id="node1" class="node">
<title>dir_94a42affd43e91f8a4e9ff1a4c7599c5</title>
<text text-anchor="middle" x="204" y="-319.5" font-family="Helvetica,sans-Serif" font-size="10.00">ViennaRNA</text>
</g>
<!-- dir_e78bc76dd94a8744fef38d57611bd23c -->
<g id="node2" class="node">
<title>dir_e78bc76dd94a8744fef38d57611bd23c</title>
<g id="a_node2"><a xlink:href="dir_e78bc76dd94a8744fef38d57611bd23c.html" target="_top" xlink:title="constraints">
<polygon fill="#a2b4d6" stroke="#404040" points="161.5,-196 96.5,-196 96.5,-160 161.5,-160 161.5,-196"/>
<text text-anchor="middle" x="129" y="-175.5" font-family="Helvetica,sans-Serif" font-size="10.00">constraints</text>
</a>
</g>
</g>
<!-- dir_94a42affd43e91f8a4e9ff1a4c7599c5&#45;&gt;dir_e78bc76dd94a8744fef38d57611bd23c -->
<g id="edge8" class="edge">
<title>dir_94a42affd43e91f8a4e9ff1a4c7599c5&#45;&gt;dir_e78bc76dd94a8744fef38d57611bd23c</title>
<path fill="none" stroke="black" d="M174.73,-303.95C161.93,-294.94 148.04,-282.68 140,-268 129.68,-249.17 127.29,-224.79 127.28,-206.31"/>
<polygon fill="black" stroke="black" points="130.78,-206.28 127.5,-196.2 123.78,-206.12 130.78,-206.28"/>
<g id="a_edge8&#45;headlabel"><a xlink:href="dir_000013_000000.html" target="_top" xlink:title="15">
<text text-anchor="middle" x="133.54" y="-207.43" font-family="Helvetica,sans-Serif" font-size="10.00">15</text>
</a>
</g>
</g>
<!-- dir_8a4ca9b4a73205797ab566a10a6011af -->
<g id="node3" class="node">
<title>dir_8a4ca9b4a73205797ab566a10a6011af</title>
<g id="a_node3"><a xlink:href="dir_8a4ca9b4a73205797ab566a10a6011af.html" target="_top" xlink:title="datastructures">
<polygon fill="#a2b4d6" stroke="#404040" points="168.5,-124 89.5,-124 89.5,-88 168.5,-88 168.5,-124"/>
<text text-anchor="middle" x="129" y="-103.5" font-family="Helvetica,sans-Serif" font-size="10.00">datastructures</text>
</a>
</g>
</g>
<!-- dir_94a42affd43e91f8a4e9ff1a4c7599c5&#45;&gt;dir_8a4ca9b4a73205797ab566a10a6011af -->
<g id="edge6" class="edge">
<title>dir_94a42affd43e91f8a4e9ff1a4c7599c5&#45;&gt;dir_8a4ca9b4a73205797ab566a10a6011af</title>
<path fill="none" stroke="black" d="M216.3,-303.6C236.67,-272.44 272.39,-206.07 243,-160 235.28,-147.9 205.42,-134.25 178.19,-123.83"/>
<polygon fill="black" stroke="black" points="179.3,-120.51 168.71,-120.29 176.85,-127.07 179.3,-120.51"/>
<g id="a_edge6&#45;headlabel"><a xlink:href="dir_000013_000001.html" target="_top" xlink:title="46">
<text text-anchor="middle" x="183.66" y="-116.61" font-family="Helvetica,sans-Serif" font-size="10.00">46</text>
</a>
</g>
</g>
<!-- dir_45ac42044d8b814ecf694abd17d2de12 -->
<g id="node4" class="node">
<title>dir_45ac42044d8b814ecf694abd17d2de12</title>
<g id="a_node4"><a xlink:href="dir_45ac42044d8b814ecf694abd17d2de12.html" target="_top" xlink:title="io">
<polygon fill="#a2b4d6" stroke="#404040" points="234,-196 180,-196 180,-160 234,-160 234,-196"/>
<text text-anchor="middle" x="207" y="-175.5" font-family="Helvetica,sans-Serif" font-size="10.00">io</text>
</a>
</g>
</g>
<!-- dir_94a42affd43e91f8a4e9ff1a4c7599c5&#45;&gt;dir_45ac42044d8b814ecf694abd17d2de12 -->
<g id="edge4" class="edge">
<title>dir_94a42affd43e91f8a4e9ff1a4c7599c5&#45;&gt;dir_45ac42044d8b814ecf694abd17d2de12</title>
<path fill="none" stroke="black" d="M210.24,-303.59C213.57,-293.37 217.32,-280.12 219,-268 221.2,-252.15 220.78,-247.9 219,-232 218.04,-223.43 216.24,-214.22 214.31,-205.93"/>
<polygon fill="black" stroke="black" points="217.66,-204.89 211.87,-196.02 210.87,-206.57 217.66,-204.89"/>
<g id="a_edge4&#45;headlabel"><a xlink:href="dir_000013_000004.html" target="_top" xlink:title="5">
<text text-anchor="middle" x="221.28" y="-205.2" font-family="Helvetica,sans-Serif" font-size="10.00">5</text>
</a>
</g>
</g>
<!-- dir_3d74ce004720553e7871f65d12e07ff9 -->
<g id="node5" class="node">
<title>dir_3d74ce004720553e7871f65d12e07ff9</title>
<g id="a_node5"><a xlink:href="dir_3d74ce004720553e7871f65d12e07ff9.html" target="_top" xlink:title="landscape">
<polygon fill="#a2b4d6" stroke="#404040" points="209.5,-268 148.5,-268 148.5,-232 209.5,-232 209.5,-268"/>
<text text-anchor="middle" x="179" y="-247.5" font-family="Helvetica,sans-Serif" font-size="10.00">landscape</text>
</a>
</g>
</g>
<!-- dir_94a42affd43e91f8a4e9ff1a4c7599c5&#45;&gt;dir_3d74ce004720553e7871f65d12e07ff9 -->
<g id="edge3" class="edge">
<title>dir_94a42affd43e91f8a4e9ff1a4c7599c5&#45;&gt;dir_3d74ce004720553e7871f65d12e07ff9</title>
<path fill="none" stroke="black" d="M197.82,-303.7C195,-295.81 191.61,-286.3 188.48,-277.55"/>
<polygon fill="black" stroke="black" points="191.77,-276.34 185.11,-268.1 185.18,-278.7 191.77,-276.34"/>
<g id="a_edge3&#45;headlabel"><a xlink:href="dir_000013_000005.html" target="_top" xlink:title="6">
<text text-anchor="middle" x="195.65" y="-276.27" font-family="Helvetica,sans-Serif" font-size="10.00">6</text>
</a>
</g>
</g>
<!-- dir_54da8e06181df970e10d68c1aa7bbb33 -->
<g id="node6" class="node">
<title>dir_54da8e06181df970e10d68c1aa7bbb33</title>
<g id="a_node6"><a xlink:href="dir_54da8e06181df970e10d68c1aa7bbb33.html" target="_top" xlink:title="loops">
<polygon fill="#a2b4d6" stroke="#404040" points="104,-268 50,-268 50,-232 104,-232 104,-268"/>
<text text-anchor="middle" x="77" y="-247.5" font-family="Helvetica,sans-Serif" font-size="10.00">loops</text>
</a>
</g>
</g>
<!-- dir_94a42affd43e91f8a4e9ff1a4c7599c5&#45;&gt;dir_54da8e06181df970e10d68c1aa7bbb33 -->
<g id="edge5" class="edge">
<title>dir_94a42affd43e91f8a4e9ff1a4c7599c5&#45;&gt;dir_54da8e06181df970e10d68c1aa7bbb33</title>
<path fill="none" stroke="black" d="M172.93,-303.88C154.88,-293.93 132.06,-281.35 113.2,-270.95"/>
<polygon fill="black" stroke="black" points="114.74,-267.81 104.3,-266.05 111.37,-273.94 114.74,-267.81"/>
<g id="a_edge5&#45;headlabel"><a xlink:href="dir_000013_000006.html" target="_top" xlink:title="5">
<text text-anchor="middle" x="119.26" y="-264.56" font-family="Helvetica,sans-Serif" font-size="10.00">5</text>
</a>
</g>
</g>
<!-- dir_8b3d6293463b6781f7bf8859fc72e182 -->
<g id="node7" class="node">
<title>dir_8b3d6293463b6781f7bf8859fc72e182</title>
<g id="a_node7"><a xlink:href="dir_8b3d6293463b6781f7bf8859fc72e182.html" target="_top" xlink:title="params">
<polygon fill="#a2b4d6" stroke="#404040" points="77,-52 23,-52 23,-16 77,-16 77,-52"/>
<text text-anchor="middle" x="50" y="-31.5" font-family="Helvetica,sans-Serif" font-size="10.00">params</text>
</a>
</g>
</g>
<!-- dir_94a42affd43e91f8a4e9ff1a4c7599c5&#45;&gt;dir_8b3d6293463b6781f7bf8859fc72e182 -->
<g id="edge7" class="edge">
<title>dir_94a42affd43e91f8a4e9ff1a4c7599c5&#45;&gt;dir_8b3d6293463b6781f7bf8859fc72e182</title>
<path fill="none" stroke="black" d="M169.99,-312.22C124.55,-300.15 48.78,-278.71 41,-268 -3.99,-206.06 22.4,-108.47 39.27,-61.71"/>
<polygon fill="black" stroke="black" points="42.57,-62.87 42.79,-52.28 36.01,-60.42 42.57,-62.87"/>
<g id="a_edge7&#45;headlabel"><a xlink:href="dir_000013_000007.html" target="_top" xlink:title="25">
<text text-anchor="middle" x="43.97" y="-64.73" font-family="Helvetica,sans-Serif" font-size="10.00">25</text>
</a>
</g>
</g>
<!-- dir_1ca6f3a46323f79e1934000abf5d4efb -->
<g id="node8" class="node">
<title>dir_1ca6f3a46323f79e1934000abf5d4efb</title>
<g id="a_node8"><a xlink:href="dir_1ca6f3a46323f79e1934000abf5d4efb.html" target="_top" xlink:title="plotting">
<polygon fill="#a2b4d6" stroke="#404040" points="326,-196 272,-196 272,-160 326,-160 326,-196"/>
<text text-anchor="middle" x="299" y="-175.5" font-family="Helvetica,sans-Serif" font-size="10.00">plotting</text>
</a>
</g>
</g>
<!-- dir_94a42affd43e91f8a4e9ff1a4c7599c5&#45;&gt;dir_1ca6f3a46323f79e1934000abf5d4efb -->
<g id="edge1" class="edge">
<title>dir_94a42affd43e91f8a4e9ff1a4c7599c5&#45;&gt;dir_1ca6f3a46323f79e1934000abf5d4efb</title>
<path fill="none" stroke="black" d="M224.79,-303.88C235.66,-294.17 248.63,-281.32 258,-268 271.63,-248.63 282.56,-224.01 289.7,-205.57"/>
<polygon fill="black" stroke="black" points="293.04,-206.63 293.26,-196.04 286.48,-204.18 293.04,-206.63"/>
<g id="a_edge1&#45;headlabel"><a xlink:href="dir_000013_000008.html" target="_top" xlink:title="10">
<text text-anchor="middle" x="294.44" y="-208.49" font-family="Helvetica,sans-Serif" font-size="10.00">10</text>
</a>
</g>
</g>
<!-- dir_1ddf03e95848b6488d60454f7a385ded -->
<g id="node10" class="node">
<title>dir_1ddf03e95848b6488d60454f7a385ded</title>
<g id="a_node10"><a xlink:href="dir_1ddf03e95848b6488d60454f7a385ded.html" target="_top" xlink:title="utils">
<polygon fill="#a2b4d6" stroke="#404040" points="156,-52 102,-52 102,-16 156,-16 156,-52"/>
<text text-anchor="middle" x="129" y="-31.5" font-family="Helvetica,sans-Serif" font-size="10.00">utils</text>
</a>
</g>
</g>
<!-- dir_94a42affd43e91f8a4e9ff1a4c7599c5&#45;&gt;dir_1ddf03e95848b6488d60454f7a385ded -->
<g id="edge2" class="edge">
<title>dir_94a42affd43e91f8a4e9ff1a4c7599c5&#45;&gt;dir_1ddf03e95848b6488d60454f7a385ded</title>
<path fill="none" stroke="black" d="M236.51,-303.93C285.01,-276.08 367.32,-218.1 335,-160 299.04,-95.36 214.48,-60.38 165.61,-44.93"/>
<polygon fill="black" stroke="black" points="166.63,-41.58 156.05,-42.01 164.59,-48.27 166.63,-41.58"/>
<g id="a_edge2&#45;headlabel"><a xlink:href="dir_000013_000012.html" target="_top" xlink:title="22">
<text text-anchor="middle" x="170.9" y="-37.41" font-family="Helvetica,sans-Serif" font-size="10.00">22</text>
</a>
</g>
</g>
<!-- dir_e78bc76dd94a8744fef38d57611bd23c&#45;&gt;dir_8a4ca9b4a73205797ab566a10a6011af -->
<g id="edge9" class="edge">
<title>dir_e78bc76dd94a8744fef38d57611bd23c&#45;&gt;dir_8a4ca9b4a73205797ab566a10a6011af</title>
<path fill="none" stroke="black" d="M123.08,-159.7C122.29,-151.98 122.06,-142.71 122.4,-134.11"/>
<polygon fill="black" stroke="black" points="125.9,-134.32 123.1,-124.1 118.92,-133.84 125.9,-134.32"/>
<g id="a_edge9&#45;headlabel"><a xlink:href="dir_000000_000001.html" target="_top" xlink:title="2">
<text text-anchor="middle" x="128.48" y="-135.61" font-family="Helvetica,sans-Serif" font-size="10.00">2</text>
</a>
</g>
</g>
<!-- dir_8a4ca9b4a73205797ab566a10a6011af&#45;&gt;dir_e78bc76dd94a8744fef38d57611bd23c -->
<g id="edge12" class="edge">
<title>dir_8a4ca9b4a73205797ab566a10a6011af&#45;&gt;dir_e78bc76dd94a8744fef38d57611bd23c</title>
<path fill="none" stroke="black" d="M134.9,-124.1C135.7,-131.79 135.94,-141.05 135.6,-149.67"/>
<polygon fill="black" stroke="black" points="132.11,-149.48 134.92,-159.7 139.09,-149.96 132.11,-149.48"/>
<g id="a_edge12&#45;headlabel"><a xlink:href="dir_000001_000000.html" target="_top" xlink:title="2">
<text text-anchor="middle" x="129.52" y="-143.2" font-family="Helvetica,sans-Serif" font-size="10.00">2</text>
</a>
</g>
</g>
<!-- dir_8a4ca9b4a73205797ab566a10a6011af&#45;&gt;dir_8b3d6293463b6781f7bf8859fc72e182 -->
<g id="edge11" class="edge">
<title>dir_8a4ca9b4a73205797ab566a10a6011af&#45;&gt;dir_8b3d6293463b6781f7bf8859fc72e182</title>
<path fill="none" stroke="black" d="M103.56,-87.7C92.91,-79.05 80.76,-68.45 70.67,-59.03"/>
<polygon fill="black" stroke="black" points="73.06,-56.47 63.41,-52.1 68.23,-61.54 73.06,-56.47"/>
<g id="a_edge11&#45;headlabel"><a xlink:href="dir_000001_000007.html" target="_top" xlink:title="2">
<text text-anchor="middle" x="77.62" y="-54.4" font-family="Helvetica,sans-Serif" font-size="10.00">2</text>
</a>
</g>
</g>
<!-- dir_8a4ca9b4a73205797ab566a10a6011af&#45;&gt;dir_1ddf03e95848b6488d60454f7a385ded -->
<g id="edge10" class="edge">
<title>dir_8a4ca9b4a73205797ab566a10a6011af&#45;&gt;dir_1ddf03e95848b6488d60454f7a385ded</title>
<path fill="none" stroke="black" d="M123.08,-87.7C122.29,-79.98 122.06,-70.71 122.4,-62.11"/>
<polygon fill="black" stroke="black" points="125.9,-62.32 123.1,-52.1 118.92,-61.84 125.9,-62.32"/>
<g id="a_edge10&#45;headlabel"><a xlink:href="dir_000001_000012.html" target="_top" xlink:title="1">
<text text-anchor="middle" x="128.48" y="-63.61" font-family="Helvetica,sans-Serif" font-size="10.00">1</text>
</a>
</g>
</g>
<!-- dir_45ac42044d8b814ecf694abd17d2de12&#45;&gt;dir_8a4ca9b4a73205797ab566a10a6011af -->
<g id="edge13" class="edge">
<title>dir_45ac42044d8b814ecf694abd17d2de12&#45;&gt;dir_8a4ca9b4a73205797ab566a10a6011af</title>
<path fill="none" stroke="black" d="M187.72,-159.7C178.08,-151.05 166.27,-140.45 155.77,-131.03"/>
<polygon fill="black" stroke="black" points="157.84,-128.18 148.06,-124.1 153.16,-133.39 157.84,-128.18"/>
<g id="a_edge13&#45;headlabel"><a xlink:href="dir_000004_000001.html" target="_top" xlink:title="1">
<text text-anchor="middle" x="162.41" y="-125.97" font-family="Helvetica,sans-Serif" font-size="10.00">1</text>
</a>
</g>
</g>
<!-- dir_54da8e06181df970e10d68c1aa7bbb33&#45;&gt;dir_e78bc76dd94a8744fef38d57611bd23c -->
<g id="edge17" class="edge">
<title>dir_54da8e06181df970e10d68c1aa7bbb33&#45;&gt;dir_e78bc76dd94a8744fef38d57611bd23c</title>
<path fill="none" stroke="black" d="M89.85,-231.7C96.03,-223.39 103.54,-213.28 110.32,-204.14"/>
<polygon fill="black" stroke="black" points="113.14,-206.22 116.29,-196.1 107.52,-202.04 113.14,-206.22"/>
<g id="a_edge17&#45;headlabel"><a xlink:href="dir_000006_000000.html" target="_top" xlink:title="2">
<text text-anchor="middle" x="113.28" y="-208.3" font-family="Helvetica,sans-Serif" font-size="10.00">2</text>
</a>
</g>
</g>
<!-- dir_54da8e06181df970e10d68c1aa7bbb33&#45;&gt;dir_8a4ca9b4a73205797ab566a10a6011af -->
<g id="edge15" class="edge">
<title>dir_54da8e06181df970e10d68c1aa7bbb33&#45;&gt;dir_8a4ca9b4a73205797ab566a10a6011af</title>
<path fill="none" stroke="black" d="M76.18,-231.91C75.91,-213.47 77.28,-183.58 87,-160 91.2,-149.8 97.98,-139.95 104.88,-131.56"/>
<polygon fill="black" stroke="black" points="107.52,-133.85 111.44,-124.01 102.24,-129.26 107.52,-133.85"/>
<g id="a_edge15&#45;headlabel"><a xlink:href="dir_000006_000001.html" target="_top" xlink:title="4">
<text text-anchor="middle" x="107.31" y="-135.93" font-family="Helvetica,sans-Serif" font-size="10.00">4</text>
</a>
</g>
</g>
<!-- dir_54da8e06181df970e10d68c1aa7bbb33&#45;&gt;dir_8b3d6293463b6781f7bf8859fc72e182 -->
<g id="edge16" class="edge">
<title>dir_54da8e06181df970e10d68c1aa7bbb33&#45;&gt;dir_8b3d6293463b6781f7bf8859fc72e182</title>
<path fill="none" stroke="black" d="M66.43,-231.54C60.98,-221.53 54.88,-208.49 52,-196 41.39,-149.99 43.91,-94.61 46.85,-62.25"/>
<polygon fill="black" stroke="black" points="50.35,-62.5 47.85,-52.2 43.38,-61.81 50.35,-62.5"/>
<g id="a_edge16&#45;headlabel"><a xlink:href="dir_000006_000007.html" target="_top" xlink:title="4">
<text text-anchor="middle" x="52.82" y="-63.86" font-family="Helvetica,sans-Serif" font-size="10.00">4</text>
</a>
</g>
</g>
<!-- dir_54da8e06181df970e10d68c1aa7bbb33&#45;&gt;dir_1ddf03e95848b6488d60454f7a385ded -->
<g id="edge14" class="edge">
<title>dir_54da8e06181df970e10d68c1aa7bbb33&#45;&gt;dir_1ddf03e95848b6488d60454f7a385ded</title>
<path fill="none" stroke="black" d="M73.35,-231.65C67.81,-201.13 59.96,-136.47 81,-88 85.54,-77.54 93.01,-67.76 100.71,-59.52"/>
<polygon fill="black" stroke="black" points="103.21,-61.97 107.78,-52.41 98.24,-57.04 103.21,-61.97"/>
<g id="a_edge14&#45;headlabel"><a xlink:href="dir_000006_000012.html" target="_top" xlink:title="3">
<text text-anchor="middle" x="102.69" y="-64.02" font-family="Helvetica,sans-Serif" font-size="10.00">3</text>
</a>
</g>
</g>
<!-- dir_8b3d6293463b6781f7bf8859fc72e182&#45;&gt;dir_8a4ca9b4a73205797ab566a10a6011af -->
<g id="edge18" class="edge">
<title>dir_8b3d6293463b6781f7bf8859fc72e182&#45;&gt;dir_8a4ca9b4a73205797ab566a10a6011af</title>
<path fill="none" stroke="black" d="M75.2,-52.1C85.83,-60.72 97.97,-71.32 108.1,-80.76"/>
<polygon fill="black" stroke="black" points="105.73,-83.34 115.39,-87.7 110.56,-78.27 105.73,-83.34"/>
<g id="a_edge18&#45;headlabel"><a xlink:href="dir_000007_000001.html" target="_top" xlink:title="1">
<text text-anchor="middle" x="101.17" y="-80.41" font-family="Helvetica,sans-Serif" font-size="10.00">1</text>
</a>
</g>
</g>
<!-- dir_1ca6f3a46323f79e1934000abf5d4efb&#45;&gt;dir_8a4ca9b4a73205797ab566a10a6011af -->
<g id="edge20" class="edge">
<title>dir_1ca6f3a46323f79e1934000abf5d4efb&#45;&gt;dir_8a4ca9b4a73205797ab566a10a6011af</title>
<path fill="none" stroke="black" d="M271.66,-165.65C267.1,-163.76 262.42,-161.82 258,-160 231.52,-149.07 201.97,-136.93 177.84,-127.02"/>
<polygon fill="black" stroke="black" points="179.11,-123.76 168.53,-123.2 176.46,-130.24 179.11,-123.76"/>
<g id="a_edge20&#45;headlabel"><a xlink:href="dir_000008_000001.html" target="_top" xlink:title="3">
<text text-anchor="middle" x="183.52" y="-120" font-family="Helvetica,sans-Serif" font-size="10.00">3</text>
</a>
</g>
</g>
<!-- dir_1ca6f3a46323f79e1934000abf5d4efb&#45;&gt;dir_1ddf03e95848b6488d60454f7a385ded -->
<g id="edge19" class="edge">
<title>dir_1ca6f3a46323f79e1934000abf5d4efb&#45;&gt;dir_1ddf03e95848b6488d60454f7a385ded</title>
<path fill="none" stroke="black" d="M278.49,-159.87C248.24,-134.6 191.56,-87.25 157.35,-58.68"/>
<polygon fill="black" stroke="black" points="159.5,-55.91 149.58,-52.19 155.01,-61.29 159.5,-55.91"/>
<g id="a_edge19&#45;headlabel"><a xlink:href="dir_000008_000012.html" target="_top" xlink:title="2">
<text text-anchor="middle" x="164.08" y="-53.54" font-family="Helvetica,sans-Serif" font-size="10.00">2</text>
</a>
</g>
</g>
<!-- dir_ece6de16e10c3ab1bafd819fa99af76e -->
<g id="node9" class="node">
<title>dir_ece6de16e10c3ab1bafd819fa99af76e</title>
<g id="a_node9"><a xlink:href="dir_ece6de16e10c3ab1bafd819fa99af76e.html" target="_top" xlink:title="search">
<polygon fill="#a2b4d6" stroke="#404040" points="124,-340 70,-340 70,-304 124,-304 124,-340"/>
<text text-anchor="middle" x="97" y="-319.5" font-family="Helvetica,sans-Serif" font-size="10.00">search</text>
</a>
</g>
</g>
<!-- dir_1ddf03e95848b6488d60454f7a385ded&#45;&gt;dir_8a4ca9b4a73205797ab566a10a6011af -->
<g id="edge21" class="edge">
<title>dir_1ddf03e95848b6488d60454f7a385ded&#45;&gt;dir_8a4ca9b4a73205797ab566a10a6011af</title>
<path fill="none" stroke="black" d="M134.9,-52.1C135.7,-59.79 135.94,-69.05 135.6,-77.67"/>
<polygon fill="black" stroke="black" points="132.11,-77.48 134.92,-87.7 139.09,-77.96 132.11,-77.48"/>
<g id="a_edge21&#45;headlabel"><a xlink:href="dir_000012_000001.html" target="_top" xlink:title="3">
<text text-anchor="middle" x="129.52" y="-71.2" font-family="Helvetica,sans-Serif" font-size="10.00">3</text>
</a>
</g>
</g>
</g>
</svg>
