<?xml version="1.0" encoding="UTF-8" standalone="no"?>
<!DOCTYPE svg PUBLIC "-//W3C//DTD SVG 1.1//EN"
 "http://www.w3.org/Graphics/SVG/1.1/DTD/svg11.dtd">
<!-- Generated by graphviz version 3.0.0 (0)
 -->
<!-- Title: ViennaRNA/datastructures Pages: 1 -->
<svg width="250pt" height="167pt"
 viewBox="0.00 0.00 250.00 167.00" xmlns="http://www.w3.org/2000/svg" xmlns:xlink="http://www.w3.org/1999/xlink">
<g id="graph0" class="graph" transform="scale(1 1) rotate(0) translate(4 163)">
<title>ViennaRNA/datastructures</title>
<g id="clust1" class="cluster">
<title>clusterdir_94a42affd43e91f8a4e9ff1a4c7599c5</title>
<g id="a_clust1"><a xlink:href="dir_94a42affd43e91f8a4e9ff1a4c7599c5.html" target="_top" xlink:title="ViennaRNA">
<polygon fill="#edf0f7" stroke="#404040" stroke-dasharray="5,2" points="8,-8 8,-151 234,-151 234,-8 8,-8"/>
<text text-anchor="middle" x="121" y="-139" font-family="Helvetica,sans-Serif" font-size="10.00">ViennaRNA</text>
</a>
</g>
</g>
<!-- dir_1ddf03e95848b6488d60454f7a385ded -->
<g id="node1" class="node">
<title>dir_1ddf03e95848b6488d60454f7a385ded</title>
<g id="a_node1"><a xlink:href="dir_1ddf03e95848b6488d60454f7a385ded.html" target="_top" xlink:title="utils">
<polygon fill="#a2b4d6" stroke="#404040" points="70,-52 16,-52 16,-16 70,-16 70,-52"/>
<text text-anchor="middle" x="43" y="-31.5" font-family="Helvetica,sans-Serif" font-size="10.00">utils</text>
</a>
</g>
</g>
<!-- dir_8b3d6293463b6781f7bf8859fc72e182 -->
<g id="node2" class="node">
<title>dir_8b3d6293463b6781f7bf8859fc72e182</title>
<g id="a_node2"><a xlink:href="dir_8b3d6293463b6781f7bf8859fc72e182.html" target="_top" xlink:title="params">
<polygon fill="#a2b4d6" stroke="#404040" points="142,-52 88,-52 88,-16 142,-16 142,-52"/>
<text text-anchor="middle" x="115" y="-31.5" font-family="Helvetica,sans-Serif" font-size="10.00">params</text>
</a>
</g>
</g>
<!-- dir_e78bc76dd94a8744fef38d57611bd23c -->
<g id="node3" class="node">
<title>dir_e78bc76dd94a8744fef38d57611bd23c</title>
<g id="a_node3"><a xlink:href="dir_e78bc76dd94a8744fef38d57611bd23c.html" target="_top" xlink:title="constraints">
<polygon fill="#a2b4d6" stroke="#404040" points="225.5,-52 160.5,-52 160.5,-16 225.5,-16 225.5,-52"/>
<text text-anchor="middle" x="193" y="-31.5" font-family="Helvetica,sans-Serif" font-size="10.00">constraints</text>
</a>
</g>
</g>
<!-- dir_8a4ca9b4a73205797ab566a10a6011af -->
<g id="node4" class="node">
<title>dir_8a4ca9b4a73205797ab566a10a6011af</title>
<g id="a_node4"><a xlink:href="dir_8a4ca9b4a73205797ab566a10a6011af.html" target="_top" xlink:title="datastructures">
<polygon fill="#edf0f7" stroke="#404040" stroke-width="2" points="154.5,-124 75.5,-124 75.5,-88 154.5,-88 154.5,-124"/>
<text text-anchor="middle" x="115" y="-103.5" font-family="Helvetica,sans-Serif" font-size="10.00">datastructures</text>
</a>
</g>
</g>
<!-- dir_8a4ca9b4a73205797ab566a10a6011af&#45;&gt;dir_1ddf03e95848b6488d60454f7a385ded -->
<g id="edge1" class="edge">
<title>dir_8a4ca9b4a73205797ab566a10a6011af&#45;&gt;dir_1ddf03e95848b6488d60454f7a385ded</title>
<path fill="none" stroke="black" d="M97.2,-87.7C88.4,-79.14 77.62,-68.66 68,-59.3"/>
<polygon fill="black" stroke="black" points="70.2,-56.57 60.59,-52.1 65.32,-61.58 70.2,-56.57"/>
<g id="a_edge1&#45;headlabel"><a xlink:href="dir_000001_000012.html" target="_top" xlink:title="1">
<text text-anchor="middle" x="74.76" y="-54.54" font-family="Helvetica,sans-Serif" font-size="10.00">1</text>
</a>
</g>
</g>
<!-- dir_8a4ca9b4a73205797ab566a10a6011af&#45;&gt;dir_8b3d6293463b6781f7bf8859fc72e182 -->
<g id="edge2" class="edge">
<title>dir_8a4ca9b4a73205797ab566a10a6011af&#45;&gt;dir_8b3d6293463b6781f7bf8859fc72e182</title>
<path fill="none" stroke="black" d="M115,-87.7C115,-79.98 115,-70.71 115,-62.11"/>
<polygon fill="black" stroke="black" points="118.5,-62.1 115,-52.1 111.5,-62.1 118.5,-62.1"/>
<g id="a_edge2&#45;headlabel"><a xlink:href="dir_000001_000007.html" target="_top" xlink:title="2">
<text text-anchor="middle" x="121.34" y="-63.2" font-family="Helvetica,sans-Serif" font-size="10.00">2</text>
</a>
</g>
</g>
<!-- dir_8a4ca9b4a73205797ab566a10a6011af&#45;&gt;dir_e78bc76dd94a8744fef38d57611bd23c -->
<g id="edge3" class="edge">
<title>dir_8a4ca9b4a73205797ab566a10a6011af&#45;&gt;dir_e78bc76dd94a8744fef38d57611bd23c</title>
<path fill="none" stroke="black" d="M134.28,-87.7C143.92,-79.05 155.73,-68.45 166.23,-59.03"/>
<polygon fill="black" stroke="black" points="168.84,-61.39 173.94,-52.1 164.16,-56.18 168.84,-61.39"/>
<g id="a_edge3&#45;headlabel"><a xlink:href="dir_000001_000000.html" target="_top" xlink:title="2">
<text text-anchor="middle" x="168.06" y="-63.4" font-family="Helvetica,sans-Serif" font-size="10.00">2</text>
</a>
</g>
</g>
</g>
</svg>
