<?xml version="1.0" encoding="UTF-8" standalone="no"?>
<!DOCTYPE svg PUBLIC "-//W3C//DTD SVG 1.1//EN"
 "http://www.w3.org/Graphics/SVG/1.1/DTD/svg11.dtd">
<!-- Generated by graphviz version 3.0.0 (0)
 -->
<!-- Title: Minimum Free Energy (MFE) Algorithms Pages: 1 -->
<svg width="363pt" height="128pt"
 viewBox="0.00 0.00 363.00 127.50" xmlns="http://www.w3.org/2000/svg" xmlns:xlink="http://www.w3.org/1999/xlink">
<g id="graph0" class="graph" transform="scale(1 1) rotate(0) translate(4 123.5)">
<title>Minimum Free Energy (MFE) Algorithms</title>
<!-- Node1 -->
<g id="node1" class="node">
<title>Node1</title>
<g id="a_node1"><a xlink:title="Predicting the Minimum Free Energy (MFE) and a corresponding (consensus) secondary structure.">
<polygon fill="#bfbfbf" stroke="black" points="113,-74 0,-74 0,-44 113,-44 113,-74"/>
<text text-anchor="start" x="8" y="-62" font-family="Helvetica,sans-Serif" font-size="10.00">Minimum Free Energy</text>
<text text-anchor="middle" x="56.5" y="-51" font-family="Helvetica,sans-Serif" font-size="10.00"> (MFE) Algorithms</text>
</a>
</g>
</g>
<!-- Node4 -->
<g id="node2" class="node">
<title>Node4</title>
<g id="a_node2"><a xlink:href="group__mfe__backtracking.html" target="_top" xlink:title="Backtracking related interfaces.">
<polygon fill="none" stroke="black" points="355,-119.5 211,-119.5 211,-100.5 355,-100.5 355,-119.5"/>
<text text-anchor="middle" x="283" y="-107.5" font-family="Helvetica,sans-Serif" font-size="10.00">Backtracking MFE structures</text>
</a>
</g>
</g>
<!-- Node1&#45;&gt;Node4 -->
<g id="edge3" class="edge">
<title>Node1&#45;&gt;Node4</title>
<path fill="none" stroke="black" d="M105.66,-77.39C114.03,-80.2 122.71,-82.87 131,-85 156.73,-91.63 185.4,-96.89 210.79,-100.85"/>
<polygon fill="black" stroke="black" points="106.61,-74.02 96.01,-74.06 104.32,-80.63 106.61,-74.02"/>
</g>
<!-- Node2 -->
<g id="node3" class="node">
<title>Node2</title>
<g id="a_node3"><a xlink:href="group__mfe__global.html" target="_top" xlink:title="Variations of the global Minimum Free Energy (MFE) prediction algorithm.">
<polygon fill="none" stroke="black" points="340.5,-75.5 225.5,-75.5 225.5,-56.5 340.5,-56.5 340.5,-75.5"/>
<text text-anchor="middle" x="283" y="-63.5" font-family="Helvetica,sans-Serif" font-size="10.00">Global MFE Prediction</text>
</a>
</g>
</g>
<!-- Node1&#45;&gt;Node2 -->
<g id="edge1" class="edge">
<title>Node1&#45;&gt;Node2</title>
<path fill="none" stroke="black" d="M123.28,-70.27C125.88,-70.55 128.46,-70.79 131,-71 162.11,-73.52 196.93,-72.62 225.28,-70.93"/>
<polygon fill="black" stroke="black" points="123.51,-66.78 113.17,-69.06 122.68,-73.73 123.51,-66.78"/>
</g>
<!-- Node1&#45;&gt;Node2 -->
<g id="edge4" class="edge">
<title>Node1&#45;&gt;Node2</title>
<path fill="none" stroke="darkgreen" stroke-dasharray="5,2" d="M113.28,-58.16C119.26,-58.1 125.26,-58.04 131,-58 158.55,-57.81 165.47,-56.77 193,-58 203.38,-58.47 214.43,-59.24 225.08,-60.12"/>
<text text-anchor="middle" x="162" y="-61" font-family="Helvetica,sans-Serif" font-size="10.00">mfe.h</text>
</g>
<!-- Node3 -->
<g id="node4" class="node">
<title>Node3</title>
<g id="a_node4"><a xlink:href="group__mfe__window.html" target="_top" xlink:title="Variations of the local (sliding window) Minimum Free Energy (MFE) prediction algorithm.">
<polygon fill="none" stroke="black" points="339.5,-30 226.5,-30 226.5,0 339.5,0 339.5,-30"/>
<text text-anchor="start" x="234.5" y="-18" font-family="Helvetica,sans-Serif" font-size="10.00">Local (sliding window)</text>
<text text-anchor="middle" x="283" y="-7" font-family="Helvetica,sans-Serif" font-size="10.00"> MFE Prediction</text>
</a>
</g>
</g>
<!-- Node1&#45;&gt;Node3 -->
<g id="edge2" class="edge">
<title>Node1&#45;&gt;Node3</title>
<path fill="none" stroke="black" d="M123.2,-46.12C155.86,-39.72 194.91,-32.07 226.12,-25.95"/>
<polygon fill="black" stroke="black" points="122.42,-42.71 113.28,-48.07 123.77,-49.58 122.42,-42.71"/>
</g>
<!-- Node1&#45;&gt;Node3 -->
<g id="edge5" class="edge">
<title>Node1&#45;&gt;Node3</title>
<path fill="none" stroke="darkgreen" stroke-dasharray="5,2" d="M78.86,-43.85C92.94,-34.77 112.2,-24.05 131,-19 161.77,-10.73 197.35,-9.41 226.24,-10.31"/>
<text text-anchor="middle" x="162" y="-22" font-family="Helvetica,sans-Serif" font-size="10.00">mfe_window.h</text>
</g>
</g>
</svg>
