<?xml version="1.0" encoding="UTF-8" standalone="no"?>
<!DOCTYPE svg PUBLIC "-//W3C//DTD SVG 1.1//EN"
 "http://www.w3.org/Graphics/SVG/1.1/DTD/svg11.dtd">
<!-- Generated by graphviz version 3.0.0 (0)
 -->
<!-- Title: Suboptimals and Representative Structures Pages: 1 -->
<svg width="339pt" height="265pt"
 viewBox="0.00 0.00 339.00 264.50" xmlns="http://www.w3.org/2000/svg" xmlns:xlink="http://www.w3.org/1999/xlink">
<g id="graph0" class="graph" transform="scale(1 1) rotate(0) translate(4 260.5)">
<title>Suboptimals and Representative Structures</title>
<!-- Node6 -->
<g id="node1" class="node">
<title>Node6</title>
<g id="a_node1"><a xlink:href="group__centroid__fold.html" target="_top" xlink:title=" ">
<polygon fill="none" stroke="black" points="319,-256.5 206,-256.5 206,-226.5 319,-226.5 319,-256.5"/>
<text text-anchor="start" x="214" y="-244.5" font-family="Helvetica,sans-Serif" font-size="10.00">Compute the Centroid</text>
<text text-anchor="middle" x="262.5" y="-233.5" font-family="Helvetica,sans-Serif" font-size="10.00"> Structure</text>
</a>
</g>
</g>
<!-- Node5 -->
<g id="node2" class="node">
<title>Node5</title>
<g id="a_node2"><a xlink:href="group__mea__fold.html" target="_top" xlink:title=" ">
<polygon fill="none" stroke="black" points="326.5,-208 198.5,-208 198.5,-167 326.5,-167 326.5,-208"/>
<text text-anchor="start" x="206.5" y="-196" font-family="Helvetica,sans-Serif" font-size="10.00">Compute the Structure</text>
<text text-anchor="start" x="206.5" y="-185" font-family="Helvetica,sans-Serif" font-size="10.00"> with Maximum Expected</text>
<text text-anchor="middle" x="262.5" y="-174" font-family="Helvetica,sans-Serif" font-size="10.00"> Accuracy (MEA)</text>
</a>
</g>
</g>
<!-- Node1 -->
<g id="node3" class="node">
<title>Node1</title>
<g id="a_node3"><a xlink:title="Sample and enumerate suboptimal secondary structures from RNA sequence data.">
<polygon fill="#bfbfbf" stroke="black" points="158,-148.5 0,-148.5 0,-118.5 158,-118.5 158,-148.5"/>
<text text-anchor="start" x="8" y="-136.5" font-family="Helvetica,sans-Serif" font-size="10.00">Suboptimals and Representative</text>
<text text-anchor="middle" x="79" y="-125.5" font-family="Helvetica,sans-Serif" font-size="10.00"> Structures</text>
</a>
</g>
</g>
<!-- Node1&#45;&gt;Node6 -->
<g id="edge5" class="edge">
<title>Node1&#45;&gt;Node6</title>
<path fill="none" stroke="black" d="M104.98,-155.28C127.16,-173.77 161.08,-200.01 194,-217.5 200.15,-220.77 206.84,-223.75 213.54,-226.43"/>
<polygon fill="black" stroke="black" points="106.98,-152.39 97.08,-148.61 102.46,-157.74 106.98,-152.39"/>
</g>
<!-- Node1&#45;&gt;Node5 -->
<g id="edge4" class="edge">
<title>Node1&#45;&gt;Node5</title>
<path fill="none" stroke="black" d="M140.37,-151.46C158.97,-156.99 179.48,-163.1 198.26,-168.68"/>
<polygon fill="black" stroke="black" points="141.14,-148.04 130.56,-148.54 139.14,-154.75 141.14,-148.04"/>
</g>
<!-- Node4 -->
<g id="node4" class="node">
<title>Node4</title>
<g id="a_node4"><a xlink:href="group__subopt__stochbt.html" target="_top" xlink:title="Functions to draw random structure samples from the ensemble according to their equilibrium probabili...">
<polygon fill="none" stroke="black" points="331,-148.5 194,-148.5 194,-118.5 331,-118.5 331,-148.5"/>
<text text-anchor="start" x="202" y="-136.5" font-family="Helvetica,sans-Serif" font-size="10.00">Random Structure Samples</text>
<text text-anchor="middle" x="262.5" y="-125.5" font-family="Helvetica,sans-Serif" font-size="10.00"> from the Ensemble</text>
</a>
</g>
</g>
<!-- Node1&#45;&gt;Node4 -->
<g id="edge3" class="edge">
<title>Node1&#45;&gt;Node4</title>
<path fill="none" stroke="black" d="M168.13,-133.5C176.77,-133.5 185.43,-133.5 193.82,-133.5"/>
<polygon fill="black" stroke="black" points="168.03,-130 158.03,-133.5 168.03,-137 168.03,-130"/>
</g>
<!-- Node3 -->
<g id="node5" class="node">
<title>Node3</title>
<g id="a_node5"><a xlink:href="group__subopt__wuchty.html" target="_top" xlink:title=" ">
<polygon fill="none" stroke="black" points="321.5,-100 203.5,-100 203.5,-59 321.5,-59 321.5,-100"/>
<text text-anchor="start" x="211.5" y="-88" font-family="Helvetica,sans-Serif" font-size="10.00">Suboptimal Structures</text>
<text text-anchor="start" x="211.5" y="-77" font-family="Helvetica,sans-Serif" font-size="10.00"> within an Energy Band</text>
<text text-anchor="middle" x="262.5" y="-66" font-family="Helvetica,sans-Serif" font-size="10.00"> around the MFE</text>
</a>
</g>
</g>
<!-- Node1&#45;&gt;Node3 -->
<g id="edge2" class="edge">
<title>Node1&#45;&gt;Node3</title>
<path fill="none" stroke="black" d="M140.3,-115.56C160.55,-109.53 183.1,-102.83 203.2,-96.85"/>
<polygon fill="black" stroke="black" points="139.14,-112.25 130.56,-118.46 141.14,-118.96 139.14,-112.25"/>
</g>
<!-- Node2 -->
<g id="node6" class="node">
<title>Node2</title>
<g id="a_node6"><a xlink:href="group__subopt__zuker.html" target="_top" xlink:title=" ">
<polygon fill="none" stroke="black" points="324,-41 201,-41 201,0 324,0 324,-41"/>
<text text-anchor="start" x="209" y="-29" font-family="Helvetica,sans-Serif" font-size="10.00">Suboptimal Structures</text>
<text text-anchor="start" x="209" y="-18" font-family="Helvetica,sans-Serif" font-size="10.00"> sensu Stiegler et al.</text>
<text text-anchor="middle" x="262.5" y="-7" font-family="Helvetica,sans-Serif" font-size="10.00"> 1984 / Zuker et al. 1989</text>
</a>
</g>
</g>
<!-- Node1&#45;&gt;Node2 -->
<g id="edge1" class="edge">
<title>Node1&#45;&gt;Node2</title>
<path fill="none" stroke="black" d="M106.16,-111.99C128.59,-94.16 162.23,-68.85 194,-50.5 199.66,-47.23 205.75,-44.07 211.86,-41.11"/>
<polygon fill="black" stroke="black" points="103.74,-109.44 98.14,-118.43 108.13,-114.9 103.74,-109.44"/>
</g>
</g>
</svg>
