<?xml version="1.0" encoding="UTF-8" standalone="no"?>
<!DOCTYPE svg PUBLIC "-//W3C//DTD SVG 1.1//EN"
 "http://www.w3.org/Graphics/SVG/1.1/DTD/svg11.dtd">
<!-- Generated by graphviz version 3.0.0 (0)
 -->
<!-- Title: Files and I/O Pages: 1 -->
<svg width="349pt" height="249pt"
 viewBox="0.00 0.00 349.00 248.53" xmlns="http://www.w3.org/2000/svg" xmlns:xlink="http://www.w3.org/1999/xlink">
<g id="graph0" class="graph" transform="scale(1 1) rotate(0) translate(4 244.53)">
<title>Files and I/O</title>
<!-- Node5 -->
<g id="node1" class="node">
<title>Node5</title>
<g id="a_node1"><a xlink:href="group__command__files.html" target="_top" xlink:title="Functions to parse and interpret the content of Command Files.">
<polygon fill="none" stroke="black" points="310,-233.52 224,-233.52 224,-214.52 310,-214.52 310,-233.52"/>
<text text-anchor="middle" x="267" y="-221.52" font-family="Helvetica,sans-Serif" font-size="10.00">Command Files</text>
</a>
</g>
</g>
<!-- Node3 -->
<g id="node2" class="node">
<title>Node3</title>
<g id="a_node2"><a xlink:href="group__file__formats.html" target="_top" xlink:title="Functions to read/write different file formats for nucleic acid sequences and secondary structures.">
<polygon fill="none" stroke="black" points="328.5,-180.02 205.5,-180.02 205.5,-150.02 328.5,-150.02 328.5,-180.02"/>
<text text-anchor="start" x="213.5" y="-168.02" font-family="Helvetica,sans-Serif" font-size="10.00">Nucleic Acid Sequences</text>
<text text-anchor="middle" x="267" y="-157.02" font-family="Helvetica,sans-Serif" font-size="10.00"> and Structures</text>
</a>
</g>
</g>
<!-- Node4 -->
<g id="node3" class="node">
<title>Node4</title>
<g id="a_node3"><a xlink:href="group__file__formats__msa.html" target="_top" xlink:title="Functions to read/write multiple sequence alignments (MSA) in various file formats.">
<polygon fill="none" stroke="black" points="341,-115.52 193,-115.52 193,-96.52 341,-96.52 341,-115.52"/>
<text text-anchor="middle" x="267" y="-103.52" font-family="Helvetica,sans-Serif" font-size="10.00">Multiple Sequence Alignments</text>
</a>
</g>
</g>
<!-- Node1 -->
<g id="node4" class="node">
<title>Node1</title>
<g id="a_node4"><a xlink:title="Functions to parse, write, and convert various file formats and to deal with file system related issu...">
<polygon fill="#bfbfbf" stroke="black" points="73,-144.52 0,-144.52 0,-125.52 73,-125.52 73,-144.52"/>
<text text-anchor="middle" x="36.5" y="-132.52" font-family="Helvetica,sans-Serif" font-size="10.00">Files and I/O</text>
</a>
</g>
</g>
<!-- Node1&#45;&gt;Node5 -->
<g id="edge4" class="edge">
<title>Node1&#45;&gt;Node5</title>
<path fill="none" stroke="black" d="M43,-154.27C50.2,-175.41 65.04,-208.32 91,-223.02 133.83,-247.27 192.53,-241.22 229.87,-233.52"/>
<polygon fill="black" stroke="black" points="46.34,-153.19 40,-144.7 39.66,-155.29 46.34,-153.19"/>
</g>
<!-- Node1&#45;&gt;Node5 -->
<g id="edge6" class="edge">
<title>Node1&#45;&gt;Node5</title>
<path fill="none" stroke="darkgreen" stroke-dasharray="5,2" d="M45.93,-144.86C55.69,-155.61 72.78,-172.57 91,-182.02 113.82,-193.84 179.57,-207.81 223.66,-216.29"/>
<text text-anchor="middle" x="133" y="-208.02" font-family="Helvetica,sans-Serif" font-size="10.00">commands.h</text>
</g>
<!-- Node1&#45;&gt;Node3 -->
<g id="edge2" class="edge">
<title>Node1&#45;&gt;Node3</title>
<path fill="none" stroke="black" d="M59.39,-150.04C68.7,-155.58 79.95,-161.18 91,-164.02 128.08,-173.53 171.05,-173.92 205.14,-171.87"/>
<polygon fill="black" stroke="black" points="61.13,-147 50.8,-144.64 57.4,-152.93 61.13,-147"/>
</g>
<!-- Node1&#45;&gt;Node3 -->
<g id="edge7" class="edge">
<title>Node1&#45;&gt;Node3</title>
<path fill="none" stroke="darkgreen" stroke-dasharray="5,2" d="M73.16,-138.8C100.94,-141.84 140.47,-146.35 175,-151.02 184.82,-152.34 195.22,-153.85 205.35,-155.37"/>
<text text-anchor="middle" x="133" y="-154.02" font-family="Helvetica,sans-Serif" font-size="10.00">file_formats.h</text>
</g>
<!-- Node1&#45;&gt;Node4 -->
<g id="edge3" class="edge">
<title>Node1&#45;&gt;Node4</title>
<path fill="none" stroke="black" d="M83.38,-129.19C114.69,-125.22 156.84,-119.87 192.76,-115.31"/>
<polygon fill="black" stroke="black" points="82.68,-125.75 73.2,-130.49 83.56,-132.7 82.68,-125.75"/>
</g>
<!-- Node1&#45;&gt;Node4 -->
<g id="edge8" class="edge">
<title>Node1&#45;&gt;Node4</title>
<path fill="none" stroke="darkgreen" stroke-dasharray="5,2" d="M48.91,-125.34C59.17,-117.33 75.04,-106.54 91,-102.02 129.88,-90.99 175.6,-92.5 210.55,-96.5"/>
<text text-anchor="middle" x="133" y="-105.02" font-family="Helvetica,sans-Serif" font-size="10.00">file_formats_msa.h</text>
</g>
<!-- Node2 -->
<g id="node5" class="node">
<title>Node2</title>
<g id="a_node5"><a xlink:href="group__utils.html" target="_top" xlink:title=" ">
<polygon fill="none" stroke="black" points="292,-30.52 242,-30.52 242,-11.52 292,-11.52 292,-30.52"/>
<text text-anchor="middle" x="267" y="-18.52" font-family="Helvetica,sans-Serif" font-size="10.00">Utilities</text>
</a>
</g>
</g>
<!-- Node1&#45;&gt;Node2 -->
<g id="edge5" class="edge">
<title>Node1&#45;&gt;Node2</title>
<path fill="none" stroke="darkgreen" stroke-dasharray="5,2" d="M41.11,-125.44C48.01,-108.51 64.79,-73.43 91,-56.02 137.71,-24.98 205.85,-20.34 241.77,-20.28"/>
<text text-anchor="middle" x="133" y="-81.02" font-family="Helvetica,sans-Serif" font-size="10.00">commands.h</text>
<text text-anchor="middle" x="133" y="-70.02" font-family="Helvetica,sans-Serif" font-size="10.00">file_formats_msa.h</text>
<text text-anchor="middle" x="133" y="-59.02" font-family="Helvetica,sans-Serif" font-size="10.00">utils.h</text>
</g>
<!-- Node2&#45;&gt;Node1 -->
<g id="edge1" class="edge">
<title>Node2&#45;&gt;Node1</title>
<path fill="none" stroke="black" d="M231.99,-10.04C194.35,-0.1 133.42,9.23 91,-18.02 52.85,-42.52 41.56,-101.73 38.52,-125.2"/>
<polygon fill="black" stroke="black" points="231.38,-13.5 241.95,-12.83 233.27,-6.76 231.38,-13.5"/>
</g>
</g>
</svg>
