<?xml version="1.0" encoding="UTF-8" standalone="no"?>
<!DOCTYPE svg PUBLIC "-//W3C//DTD SVG 1.1//EN"
 "http://www.w3.org/Graphics/SVG/1.1/DTD/svg11.dtd">
<!-- Generated by graphviz version 3.0.0 (0)
 -->
<!-- Title: Plotting Pages: 1 -->
<svg width="246pt" height="187pt"
 viewBox="0.00 0.00 246.00 187.00" xmlns="http://www.w3.org/2000/svg" xmlns:xlink="http://www.w3.org/1999/xlink">
<g id="graph0" class="graph" transform="scale(1 1) rotate(0) translate(4 183)">
<title>Plotting</title>
<!-- Node5 -->
<g id="node1" class="node">
<title>Node5</title>
<g id="a_node1"><a xlink:href="group__alignment__plots.html" target="_top" xlink:title="Functions to generate Alignment plots with annotated consensus structure.">
<polygon fill="none" stroke="black" points="218.5,-179 132.5,-179 132.5,-160 218.5,-160 218.5,-179"/>
<text text-anchor="middle" x="175.5" y="-167" font-family="Helvetica,sans-Serif" font-size="10.00">Alignment Plots</text>
</a>
</g>
</g>
<!-- Node4 -->
<g id="node2" class="node">
<title>Node4</title>
<g id="a_node2"><a xlink:href="group__annotation__utils.html" target="_top" xlink:title="Functions to generate annotations for Secondary Structure Plots, Dot&#45;Plots, and Others.">
<polygon fill="none" stroke="black" points="207,-142 144,-142 144,-123 207,-123 207,-142"/>
<text text-anchor="middle" x="175.5" y="-130" font-family="Helvetica,sans-Serif" font-size="10.00">Annotation</text>
</a>
</g>
</g>
<!-- Node3 -->
<g id="node3" class="node">
<title>Node3</title>
<g id="a_node3"><a xlink:href="group__plot__layout__utils.html" target="_top" xlink:title="Functions to compute coordinate layouts for secondary structure plots.">
<polygon fill="none" stroke="black" points="238,-105 113,-105 113,-86 238,-86 238,-105"/>
<text text-anchor="middle" x="175.5" y="-93" font-family="Helvetica,sans-Serif" font-size="10.00">Layouts and Coordinates</text>
</a>
</g>
</g>
<!-- Node1 -->
<g id="node4" class="node">
<title>Node1</title>
<g id="a_node4"><a xlink:title="Functions for Creating Secondary Structure Plots, Dot&#45;Plots, and More.">
<polygon fill="#bfbfbf" stroke="black" points="50,-91 0,-91 0,-72 50,-72 50,-91"/>
<text text-anchor="middle" x="25" y="-79" font-family="Helvetica,sans-Serif" font-size="10.00">Plotting</text>
</a>
</g>
</g>
<!-- Node1&#45;&gt;Node5 -->
<g id="edge4" class="edge">
<title>Node1&#45;&gt;Node5</title>
<path fill="none" stroke="black" d="M42.37,-98.42C58.79,-114.41 85.51,-137.93 113,-151.5 119.68,-154.8 127.08,-157.61 134.36,-159.95"/>
<polygon fill="black" stroke="black" points="44.74,-95.83 35.18,-91.25 39.79,-100.79 44.74,-95.83"/>
</g>
<!-- Node1&#45;&gt;Node4 -->
<g id="edge3" class="edge">
<title>Node1&#45;&gt;Node4</title>
<path fill="none" stroke="black" d="M55.03,-95.19C59.34,-97.06 63.76,-98.89 68,-100.5 93.08,-110.03 122.33,-118.65 143.82,-124.53"/>
<polygon fill="black" stroke="black" points="56.43,-91.98 45.87,-91.09 53.57,-98.37 56.43,-91.98"/>
</g>
<!-- Node1&#45;&gt;Node3 -->
<g id="edge2" class="edge">
<title>Node1&#45;&gt;Node3</title>
<path fill="none" stroke="black" d="M60.4,-84.74C75.99,-86.21 94.91,-88 112.83,-89.69"/>
<polygon fill="black" stroke="black" points="60.47,-81.23 50.19,-83.78 59.82,-88.2 60.47,-81.23"/>
</g>
<!-- Node6 -->
<g id="node5" class="node">
<title>Node6</title>
<g id="a_node5"><a xlink:href="group__plotting__utils__deprecated.html" target="_top" xlink:title=" ">
<polygon fill="none" stroke="black" points="229.5,-67.5 121.5,-67.5 121.5,-37.5 229.5,-37.5 229.5,-67.5"/>
<text text-anchor="start" x="129.5" y="-55.5" font-family="Helvetica,sans-Serif" font-size="10.00">Deprecated Interface</text>
<text text-anchor="middle" x="175.5" y="-44.5" font-family="Helvetica,sans-Serif" font-size="10.00"> for Plotting Utilities</text>
</a>
</g>
</g>
<!-- Node1&#45;&gt;Node6 -->
<g id="edge5" class="edge">
<title>Node1&#45;&gt;Node6</title>
<path fill="none" stroke="black" d="M60.03,-74.85C78.18,-71.31 100.93,-66.87 121.36,-62.88"/>
<polygon fill="black" stroke="black" points="59.33,-71.42 50.19,-76.78 60.68,-78.29 59.33,-71.42"/>
</g>
<!-- Node2 -->
<g id="node6" class="node">
<title>Node2</title>
<g id="a_node6"><a xlink:href="group__utils.html" target="_top" xlink:title=" ">
<polygon fill="none" stroke="black" points="200.5,-19 150.5,-19 150.5,0 200.5,0 200.5,-19"/>
<text text-anchor="middle" x="175.5" y="-7" font-family="Helvetica,sans-Serif" font-size="10.00">Utilities</text>
</a>
</g>
</g>
<!-- Node1&#45;&gt;Node2 -->
<g id="edge6" class="edge">
<title>Node1&#45;&gt;Node2</title>
<path fill="none" stroke="darkgreen" stroke-dasharray="5,2" d="M39.82,-71.88C47.92,-66.34 58.42,-59.34 68,-53.5 87.53,-41.59 91.96,-37.48 113,-28.5 125.03,-23.37 138.9,-18.96 150.43,-15.68"/>
<text text-anchor="middle" x="81.5" y="-56.5" font-family="Helvetica,sans-Serif" font-size="10.00">utils.h</text>
</g>
<!-- Node2&#45;&gt;Node1 -->
<g id="edge1" class="edge">
<title>Node2&#45;&gt;Node1</title>
<path fill="none" stroke="black" d="M140.07,-7.29C118.03,-7.43 89.61,-10.62 68,-23.5 48.99,-34.83 36.11,-58.44 30.03,-71.78"/>
<polygon fill="black" stroke="black" points="140.27,-10.79 150.32,-7.44 140.37,-3.79 140.27,-10.79"/>
</g>
</g>
</svg>
