<?xml version="1.0" encoding="UTF-8" standalone="no"?>
<!DOCTYPE svg PUBLIC "-//W3C//DTD SVG 1.1//EN"
 "http://www.w3.org/Graphics/SVG/1.1/DTD/svg11.dtd">
<!-- Generated by graphviz version 3.0.0 (0)
 -->
<!-- Title: Utilities Pages: 1 -->
<svg width="326pt" height="700pt"
 viewBox="0.00 0.00 326.00 700.27" xmlns="http://www.w3.org/2000/svg" xmlns:xlink="http://www.w3.org/1999/xlink">
<g id="graph0" class="graph" transform="scale(1 1) rotate(0) translate(4 696.27)">
<title>Utilities</title>
<!-- Node5 -->
<g id="node1" class="node">
<title>Node5</title>
<g id="a_node1"><a xlink:href="group__aln__utils.html" target="_top" xlink:title="Functions to extract features from and to manipulate multiple sequence alignments.">
<polygon fill="none" stroke="black" points="315.5,-684.67 172.5,-684.67 172.5,-654.67 315.5,-654.67 315.5,-684.67"/>
<text text-anchor="start" x="180.5" y="-672.67" font-family="Helvetica,sans-Serif" font-size="10.00">Multiple Sequence Alignment</text>
<text text-anchor="middle" x="244" y="-661.67" font-family="Helvetica,sans-Serif" font-size="10.00"> Utilities</text>
</a>
</g>
</g>
<!-- Node2 -->
<g id="node2" class="node">
<title>Node2</title>
<g id="a_node2"><a xlink:href="group__alphabet__utils.html" target="_top" xlink:title="Functions to cope with various aspects related to the nucleotide sequence alphabet.">
<polygon fill="none" stroke="black" points="300,-618.67 188,-618.67 188,-588.67 300,-588.67 300,-618.67"/>
<text text-anchor="start" x="196" y="-606.67" font-family="Helvetica,sans-Serif" font-size="10.00">Utilities to deal with</text>
<text text-anchor="middle" x="244" y="-595.67" font-family="Helvetica,sans-Serif" font-size="10.00"> Nucleotide Alphabets</text>
</a>
</g>
</g>
<!-- Node15 -->
<g id="node3" class="node">
<title>Node15</title>
<g id="a_node3"><a xlink:href="group__buffer__utils.html" target="_top" xlink:title="Functions that provide dynamically buffered stream&#45;like data structures.">
<polygon fill="none" stroke="black" points="268,-551.17 220,-551.17 220,-532.17 268,-532.17 268,-551.17"/>
<text text-anchor="middle" x="244" y="-539.17" font-family="Helvetica,sans-Serif" font-size="10.00">Buffers</text>
</a>
</g>
</g>
<!-- Node9 -->
<g id="node4" class="node">
<title>Node9</title>
<g id="a_node4"><a xlink:href="group__combinatorics__utils.html" target="_top" xlink:title="Implementations to solve various combinatorial aspects for strings of objects.">
<polygon fill="none" stroke="black" points="308,-507.17 180,-507.17 180,-488.17 308,-488.17 308,-507.17"/>
<text text-anchor="middle" x="244" y="-495.17" font-family="Helvetica,sans-Serif" font-size="10.00">Combinatorics Algorithms</text>
</a>
</g>
</g>
<!-- Node13 -->
<g id="node5" class="node">
<title>Node13</title>
<g id="a_node5"><a xlink:href="group__command__files.html" target="_top" xlink:title="Functions to parse and interpret the content of Command Files.">
<polygon fill="none" stroke="black" points="287,-462.17 201,-462.17 201,-443.17 287,-443.17 287,-462.17"/>
<text text-anchor="middle" x="244" y="-450.17" font-family="Helvetica,sans-Serif" font-size="10.00">Command Files</text>
</a>
</g>
</g>
<!-- Node10 -->
<g id="node6" class="node">
<title>Node10</title>
<g id="a_node6"><a xlink:href="group__data__structures.html" target="_top" xlink:title="All datastructures and typedefs shared among the ViennaRNA Package can be found here.">
<polygon fill="none" stroke="black" points="309.5,-425.17 178.5,-425.17 178.5,-406.17 309.5,-406.17 309.5,-425.17"/>
<text text-anchor="middle" x="244" y="-413.17" font-family="Helvetica,sans-Serif" font-size="10.00">(Abstract) Data Structures</text>
</a>
</g>
</g>
<!-- Node14 -->
<g id="node7" class="node">
<title>Node14</title>
<g id="a_node7"><a xlink:href="group__file__formats__msa.html" target="_top" xlink:title="Functions to read/write multiple sequence alignments (MSA) in various file formats.">
<polygon fill="none" stroke="black" points="318,-388.17 170,-388.17 170,-369.17 318,-369.17 318,-388.17"/>
<text text-anchor="middle" x="244" y="-376.17" font-family="Helvetica,sans-Serif" font-size="10.00">Multiple Sequence Alignments</text>
</a>
</g>
</g>
<!-- Node6 -->
<g id="node8" class="node">
<title>Node6</title>
<g id="a_node8"><a xlink:href="group__file__utils.html" target="_top" xlink:title="Functions to parse, write, and convert various file formats and to deal with file system related issu...">
<polygon fill="none" stroke="black" points="280.5,-337.17 207.5,-337.17 207.5,-318.17 280.5,-318.17 280.5,-337.17"/>
<text text-anchor="middle" x="244" y="-325.17" font-family="Helvetica,sans-Serif" font-size="10.00">Files and I/O</text>
</a>
</g>
</g>
<!-- Node11 -->
<g id="node9" class="node">
<title>Node11</title>
<g id="a_node9"><a xlink:href="group__message__utils.html" target="_top" xlink:title="Functions to print various kind of messages.">
<polygon fill="none" stroke="black" points="275,-285.17 213,-285.17 213,-266.17 275,-266.17 275,-285.17"/>
<text text-anchor="middle" x="244" y="-273.17" font-family="Helvetica,sans-Serif" font-size="10.00">Messages</text>
</a>
</g>
</g>
<!-- Node7 -->
<g id="node10" class="node">
<title>Node7</title>
<g id="a_node10"><a xlink:href="group__plotting__utils.html" target="_top" xlink:title="Functions for Creating Secondary Structure Plots, Dot&#45;Plots, and More.">
<polygon fill="none" stroke="black" points="269,-241.17 219,-241.17 219,-222.17 269,-222.17 269,-241.17"/>
<text text-anchor="middle" x="244" y="-229.17" font-family="Helvetica,sans-Serif" font-size="10.00">Plotting</text>
</a>
</g>
</g>
<!-- Node8 -->
<g id="node11" class="node">
<title>Node8</title>
<g id="a_node11"><a xlink:href="group__search__utils.html" target="_top" xlink:title="Implementations of various search algorithms to detect strings of objects within other strings of obj...">
<polygon fill="none" stroke="black" points="292,-180.17 196,-180.17 196,-161.17 292,-161.17 292,-180.17"/>
<text text-anchor="middle" x="244" y="-168.17" font-family="Helvetica,sans-Serif" font-size="10.00">Search Algorithms</text>
</a>
</g>
</g>
<!-- Node3 -->
<g id="node12" class="node">
<title>Node3</title>
<g id="a_node12"><a xlink:href="group__string__utils.html" target="_top" xlink:title="Functions to parse, convert, manipulate, create, and compare (nucleic acid sequence) strings.">
<polygon fill="none" stroke="black" points="306,-142.67 182,-142.67 182,-112.67 306,-112.67 306,-142.67"/>
<text text-anchor="start" x="190" y="-130.67" font-family="Helvetica,sans-Serif" font-size="10.00">(Nucleic Acid Sequence)</text>
<text text-anchor="middle" x="244" y="-119.67" font-family="Helvetica,sans-Serif" font-size="10.00"> String Utilitites</text>
</a>
</g>
</g>
<!-- Node4 -->
<g id="node13" class="node">
<title>Node4</title>
<g id="a_node13"><a xlink:href="group__struct__utils.html" target="_top" xlink:title="Functions to create, parse, convert, manipulate, and compare secondary structure representations.">
<polygon fill="none" stroke="black" points="297,-88.67 191,-88.67 191,-58.67 297,-58.67 297,-88.67"/>
<text text-anchor="start" x="199" y="-76.67" font-family="Helvetica,sans-Serif" font-size="10.00">Secondary Structure</text>
<text text-anchor="middle" x="244" y="-65.67" font-family="Helvetica,sans-Serif" font-size="10.00"> Utilities</text>
</a>
</g>
</g>
<!-- Node12 -->
<g id="node14" class="node">
<title>Node12</title>
<g id="a_node14"><a xlink:href="group__units.html" target="_top" xlink:title="Functions to convert between various physical units.">
<polygon fill="none" stroke="black" points="287.5,-36.17 200.5,-36.17 200.5,-17.17 287.5,-17.17 287.5,-36.17"/>
<text text-anchor="middle" x="244" y="-24.17" font-family="Helvetica,sans-Serif" font-size="10.00">Unit Conversion</text>
</a>
</g>
</g>
<!-- Node1 -->
<g id="node15" class="node">
<title>Node1</title>
<g id="a_node15"><a xlink:title=" ">
<polygon fill="#bfbfbf" stroke="black" points="50,-342.17 0,-342.17 0,-323.17 50,-323.17 50,-342.17"/>
<text text-anchor="middle" x="25" y="-330.17" font-family="Helvetica,sans-Serif" font-size="10.00">Utilities</text>
</a>
</g>
</g>
<!-- Node1&#45;&gt;Node5 -->
<g id="edge4" class="edge">
<title>Node1&#45;&gt;Node5</title>
<path fill="none" stroke="black" d="M26.99,-352.71C30.62,-421.89 44.21,-647.55 68,-668.67 102.31,-699.13 157.03,-694 196.14,-684.68"/>
<polygon fill="black" stroke="black" points="30.47,-352.16 26.46,-342.35 23.48,-352.51 30.47,-352.16"/>
</g>
<!-- Node1&#45;&gt;Node5 -->
<g id="edge18" class="edge">
<title>Node1&#45;&gt;Node5</title>
<path fill="none" stroke="darkgreen" stroke-dasharray="5,2" d="M25.91,-342.31C25.71,-388.89 27.22,-590.18 68,-633.67 75.43,-641.59 127.07,-651.61 172.34,-659.07"/>
<text text-anchor="middle" x="110" y="-657.67" font-family="Helvetica,sans-Serif" font-size="10.00">alignments.h</text>
</g>
<!-- Node1&#45;&gt;Node2 -->
<g id="edge1" class="edge">
<title>Node1&#45;&gt;Node2</title>
<path fill="none" stroke="black" d="M25.83,-352.65C25.8,-410.52 29.18,-576.29 68,-609.67 105.11,-641.58 164.76,-630.98 203.92,-618.72"/>
<polygon fill="black" stroke="black" points="29.33,-352.32 25.87,-342.3 22.33,-352.29 29.33,-352.32"/>
</g>
<!-- Node1&#45;&gt;Node2 -->
<g id="edge12" class="edge">
<title>Node1&#45;&gt;Node2</title>
<path fill="none" stroke="darkgreen" stroke-dasharray="5,2" d="M26.37,-342.39C28.09,-382.18 36.6,-531.98 68,-564.67 68.54,-565.23 136.76,-580.32 187.86,-591.57"/>
<text text-anchor="middle" x="110" y="-596.67" font-family="Helvetica,sans-Serif" font-size="10.00">alphabet.h</text>
<text text-anchor="middle" x="110" y="-585.67" font-family="Helvetica,sans-Serif" font-size="10.00">sequence.h</text>
</g>
<!-- Node1&#45;&gt;Node15 -->
<g id="edge22" class="edge">
<title>Node1&#45;&gt;Node15</title>
<path fill="none" stroke="darkgreen" stroke-dasharray="5,2" d="M26.73,-342.2C29.57,-376.82 41.15,-495.28 68,-519.67 89.76,-539.44 177.32,-541.93 219.74,-541.94"/>
<text text-anchor="middle" x="110" y="-552.67" font-family="Helvetica,sans-Serif" font-size="10.00">char_stream.h</text>
<text text-anchor="middle" x="110" y="-541.67" font-family="Helvetica,sans-Serif" font-size="10.00">stream_output.h</text>
</g>
<!-- Node1&#45;&gt;Node9 -->
<g id="edge8" class="edge">
<title>Node1&#45;&gt;Node9</title>
<path fill="none" stroke="black" d="M28.18,-352.48C32.94,-391.73 45.67,-477.08 68,-494.67 109.3,-527.2 174.7,-517.13 212.76,-507.19"/>
<polygon fill="black" stroke="black" points="31.63,-351.85 27,-342.32 24.67,-352.65 31.63,-351.85"/>
</g>
<!-- Node1&#45;&gt;Node9 -->
<g id="edge13" class="edge">
<title>Node1&#45;&gt;Node9</title>
<path fill="none" stroke="darkgreen" stroke-dasharray="5,2" d="M26.1,-342.42C26.9,-366.45 32.48,-428.81 68,-460.67 72.7,-464.88 141.94,-478.65 191.9,-488.15"/>
<text text-anchor="middle" x="110" y="-481.67" font-family="Helvetica,sans-Serif" font-size="10.00">combinatorics.h</text>
</g>
<!-- Node1&#45;&gt;Node13 -->
<g id="edge15" class="edge">
<title>Node1&#45;&gt;Node13</title>
<path fill="none" stroke="darkgreen" stroke-dasharray="5,2" d="M28.06,-342.24C32.32,-359.57 43.78,-396.04 68,-414.67 106.32,-444.14 162.66,-451.83 200.98,-453.33"/>
<text text-anchor="middle" x="110" y="-449.67" font-family="Helvetica,sans-Serif" font-size="10.00">commands.h</text>
</g>
<!-- Node1&#45;&gt;Node10 -->
<g id="edge9" class="edge">
<title>Node1&#45;&gt;Node10</title>
<path fill="none" stroke="black" d="M35.03,-351.29C42.18,-363.93 53.38,-379.9 68,-388.67 100.96,-408.43 143.45,-415.33 178.31,-417.22"/>
<polygon fill="black" stroke="black" points="38.12,-349.65 30.37,-342.44 31.93,-352.91 38.12,-349.65"/>
</g>
<!-- Node1&#45;&gt;Node14 -->
<g id="edge16" class="edge">
<title>Node1&#45;&gt;Node14</title>
<path fill="none" stroke="darkgreen" stroke-dasharray="5,2" d="M38.92,-342.29C46.89,-347.72 57.56,-354.11 68,-357.67 100.44,-368.72 137.99,-374.12 169.97,-376.7"/>
<text text-anchor="middle" x="110" y="-376.67" font-family="Helvetica,sans-Serif" font-size="10.00">file_formats_msa.h</text>
</g>
<!-- Node1&#45;&gt;Node6 -->
<g id="edge5" class="edge">
<title>Node1&#45;&gt;Node6</title>
<path fill="none" stroke="black" d="M60.24,-341.51C62.85,-341.97 65.46,-342.37 68,-342.67 105.08,-347.02 114.79,-345.72 152,-342.67 170.35,-341.17 190.58,-337.99 207.29,-334.94"/>
<polygon fill="black" stroke="black" points="60.76,-338.05 50.26,-339.46 59.35,-344.9 60.76,-338.05"/>
</g>
<!-- Node1&#45;&gt;Node6 -->
<g id="edge14" class="edge">
<title>Node1&#45;&gt;Node6</title>
<path fill="none" stroke="darkgreen" stroke-dasharray="5,2" d="M36.88,-323.17C44.89,-316.84 56.36,-309.09 68,-305.67 119.71,-290.48 183.03,-306.58 217.56,-318.12"/>
<text text-anchor="middle" x="110" y="-330.67" font-family="Helvetica,sans-Serif" font-size="10.00">commands.h</text>
<text text-anchor="middle" x="110" y="-319.67" font-family="Helvetica,sans-Serif" font-size="10.00">file_formats_msa.h</text>
<text text-anchor="middle" x="110" y="-308.67" font-family="Helvetica,sans-Serif" font-size="10.00">utils.h</text>
</g>
<!-- Node1&#45;&gt;Node11 -->
<g id="edge10" class="edge">
<title>Node1&#45;&gt;Node11</title>
<path fill="none" stroke="black" d="M40.6,-315.2C47.99,-307.58 57.59,-299.34 68,-294.67 115.26,-273.46 176.66,-272.01 212.75,-273.45"/>
<polygon fill="black" stroke="black" points="37.64,-313.26 33.52,-323.02 42.83,-317.96 37.64,-313.26"/>
</g>
<!-- Node1&#45;&gt;Node7 -->
<g id="edge6" class="edge">
<title>Node1&#45;&gt;Node7</title>
<path fill="none" stroke="black" d="M34.07,-313.74C41.03,-299.71 52.43,-281.26 68,-270.67 114.58,-238.98 182.78,-232.61 218.74,-231.59"/>
<polygon fill="black" stroke="black" points="30.81,-312.46 29.79,-323 37.17,-315.39 30.81,-312.46"/>
</g>
<!-- Node1&#45;&gt;Node7 -->
<g id="edge17" class="edge">
<title>Node1&#45;&gt;Node7</title>
<path fill="none" stroke="darkgreen" stroke-dasharray="5,2" d="M26.33,-322.93C27.67,-300.78 34.39,-246.74 68,-223.67 113.51,-192.43 182.45,-209.51 218.73,-222.09"/>
<text text-anchor="middle" x="110" y="-226.67" font-family="Helvetica,sans-Serif" font-size="10.00">utils.h</text>
</g>
<!-- Node1&#45;&gt;Node8 -->
<g id="edge7" class="edge">
<title>Node1&#45;&gt;Node8</title>
<path fill="none" stroke="black" d="M26.65,-312.73C28.71,-284.5 36.82,-233.26 68,-205.67 86.62,-189.19 150.68,-179.62 195.88,-174.77"/>
<polygon fill="black" stroke="black" points="23.15,-312.79 26.1,-322.96 30.14,-313.17 23.15,-312.79"/>
</g>
<!-- Node1&#45;&gt;Node8 -->
<g id="edge21" class="edge">
<title>Node1&#45;&gt;Node8</title>
<path fill="none" stroke="darkgreen" stroke-dasharray="5,2" d="M26.89,-323.17C30.14,-290.76 42.54,-185.52 68,-165.67 87.18,-150.72 150.74,-156.41 195.72,-162.78"/>
<text text-anchor="middle" x="110" y="-168.67" font-family="Helvetica,sans-Serif" font-size="10.00">BoyerMoore.h</text>
</g>
<!-- Node1&#45;&gt;Node3 -->
<g id="edge2" class="edge">
<title>Node1&#45;&gt;Node3</title>
<path fill="none" stroke="black" d="M27.81,-312.82C32.09,-270.45 44.31,-173.28 68,-151.67 98.25,-124.08 144.54,-118.74 181.91,-119.94"/>
<polygon fill="black" stroke="black" points="24.3,-312.7 26.83,-322.99 31.27,-313.37 24.3,-312.7"/>
</g>
<!-- Node1&#45;&gt;Node3 -->
<g id="edge19" class="edge">
<title>Node1&#45;&gt;Node3</title>
<path fill="none" stroke="darkgreen" stroke-dasharray="5,2" d="M26.22,-322.96C27.36,-283.26 33.88,-134.06 68,-105.67 86.01,-90.69 145,-101.47 189.55,-112.58"/>
<text text-anchor="middle" x="110" y="-108.67" font-family="Helvetica,sans-Serif" font-size="10.00">strings.h</text>
</g>
<!-- Node1&#45;&gt;Node4 -->
<g id="edge3" class="edge">
<title>Node1&#45;&gt;Node4</title>
<path fill="none" stroke="black" d="M26.54,-312.93C28.4,-261.18 36.28,-123.54 68,-93.67 100.17,-63.38 151.78,-60.91 190.63,-64.51"/>
<polygon fill="black" stroke="black" points="23.04,-313.01 26.22,-323.11 30.03,-313.23 23.04,-313.01"/>
</g>
<!-- Node1&#45;&gt;Node12 -->
<g id="edge11" class="edge">
<title>Node1&#45;&gt;Node12</title>
<path fill="none" stroke="black" d="M26.26,-312.82C27.42,-256.7 33.71,-98.67 68,-62.67 85.81,-43.97 154.48,-34.37 200.32,-29.94"/>
<polygon fill="black" stroke="black" points="22.75,-313.1 26.08,-323.16 29.75,-313.22 22.75,-313.1"/>
</g>
<!-- Node1&#45;&gt;Node12 -->
<g id="edge20" class="edge">
<title>Node1&#45;&gt;Node12</title>
<path fill="none" stroke="darkgreen" stroke-dasharray="5,2" d="M25.7,-323.17C24.43,-275.42 21.44,-62.36 68,-21.67 110.22,15.23 182.48,-3.65 219.55,-17.08"/>
<text text-anchor="middle" x="110" y="-24.67" font-family="Helvetica,sans-Serif" font-size="10.00">units.h</text>
</g>
</g>
</svg>
