<?xml version="1.0" encoding="UTF-8" standalone="no"?>
<!DOCTYPE svg PUBLIC "-//W3C//DTD SVG 1.1//EN"
 "http://www.w3.org/Graphics/SVG/1.1/DTD/svg11.dtd">
<!-- Generated by graphviz version 3.0.0 (0)
 -->
<!-- Title: The RNA Folding Grammar Pages: 1 -->
<svg width="305pt" height="183pt"
 viewBox="0.00 0.00 305.00 183.00" xmlns="http://www.w3.org/2000/svg" xmlns:xlink="http://www.w3.org/1999/xlink">
<g id="graph0" class="graph" transform="scale(1 1) rotate(0) translate(4 179)">
<title>The RNA Folding Grammar</title>
<!-- Node5 -->
<g id="node1" class="node">
<title>Node5</title>
<g id="a_node1"><a xlink:href="group__constraints.html" target="_top" xlink:title="This module provides general functions that allow for an easy control of constrained secondary struct...">
<polygon fill="none" stroke="black" points="290.5,-175 177.5,-175 177.5,-145 290.5,-145 290.5,-175"/>
<text text-anchor="start" x="185.5" y="-163" font-family="Helvetica,sans-Serif" font-size="10.00">Constraining the RNA</text>
<text text-anchor="middle" x="234" y="-152" font-family="Helvetica,sans-Serif" font-size="10.00"> Folding Grammar</text>
</a>
</g>
</g>
<!-- Node4 -->
<g id="node2" class="node">
<title>Node4</title>
<g id="a_node2"><a xlink:href="group__domains.html" target="_top" xlink:title="This module covers simple and straight&#45;forward extensions to the RNA folding grammar.">
<polygon fill="none" stroke="black" points="297,-126.5 171,-126.5 171,-85.5 297,-85.5 297,-126.5"/>
<text text-anchor="start" x="179" y="-114.5" font-family="Helvetica,sans-Serif" font-size="10.00">Extending the Folding</text>
<text text-anchor="start" x="179" y="-103.5" font-family="Helvetica,sans-Serif" font-size="10.00"> Grammar with Additional</text>
<text text-anchor="middle" x="234" y="-92.5" font-family="Helvetica,sans-Serif" font-size="10.00"> Domains</text>
</a>
</g>
</g>
<!-- Node3 -->
<g id="node3" class="node">
<title>Node3</title>
<g id="a_node3"><a xlink:href="group__energy__parameters.html" target="_top" xlink:title="All relevant functions to retrieve and copy pre&#45;calculated energy parameter sets as well as reading/w...">
<polygon fill="none" stroke="black" points="284.5,-67.5 183.5,-67.5 183.5,-48.5 284.5,-48.5 284.5,-67.5"/>
<text text-anchor="middle" x="234" y="-55.5" font-family="Helvetica,sans-Serif" font-size="10.00">Energy Parameters</text>
</a>
</g>
</g>
<!-- Node1 -->
<g id="node4" class="node">
<title>Node1</title>
<g id="a_node4"><a xlink:title="The RNA folding grammar as implemented in RNAlib.">
<polygon fill="#bfbfbf" stroke="black" points="135,-91.5 0,-91.5 0,-72.5 135,-72.5 135,-91.5"/>
<text text-anchor="middle" x="67.5" y="-79.5" font-family="Helvetica,sans-Serif" font-size="10.00">The RNA Folding Grammar</text>
</a>
</g>
</g>
<!-- Node1&#45;&gt;Node5 -->
<g id="edge4" class="edge">
<title>Node1&#45;&gt;Node5</title>
<path fill="none" stroke="black" d="M94.25,-96.63C114.73,-108.01 144.29,-123.84 171,-136 177.72,-139.06 184.96,-142.09 192.03,-144.91"/>
<polygon fill="black" stroke="black" points="95.68,-93.42 85.25,-91.59 92.27,-99.53 95.68,-93.42"/>
</g>
<!-- Node1&#45;&gt;Node4 -->
<g id="edge3" class="edge">
<title>Node1&#45;&gt;Node4</title>
<path fill="none" stroke="black" d="M144.07,-93.03C153.07,-94.34 162.17,-95.67 170.95,-96.95"/>
<polygon fill="black" stroke="black" points="144.39,-89.53 133.99,-91.55 143.38,-96.46 144.39,-89.53"/>
</g>
<!-- Node1&#45;&gt;Node3 -->
<g id="edge2" class="edge">
<title>Node1&#45;&gt;Node3</title>
<path fill="none" stroke="black" d="M144.13,-70.97C157.47,-69.02 171.06,-67.04 183.46,-65.23"/>
<polygon fill="black" stroke="black" points="143.38,-67.54 133.99,-72.45 144.39,-74.47 143.38,-67.54"/>
</g>
<!-- Node2 -->
<g id="node5" class="node">
<title>Node2</title>
<g id="a_node5"><a xlink:href="group__model__details.html" target="_top" xlink:title="Functions and data structures to fine&#45;tune the implemented secondary structure evaluation model.">
<polygon fill="none" stroke="black" points="289,-30 179,-30 179,0 289,0 289,-30"/>
<text text-anchor="start" x="187" y="-18" font-family="Helvetica,sans-Serif" font-size="10.00">Fine&#45;tuning of the</text>
<text text-anchor="middle" x="234" y="-7" font-family="Helvetica,sans-Serif" font-size="10.00"> Implemented Models</text>
</a>
</g>
</g>
<!-- Node1&#45;&gt;Node2 -->
<g id="edge1" class="edge">
<title>Node1&#45;&gt;Node2</title>
<path fill="none" stroke="black" d="M101.03,-68.62C121.17,-60.34 147.58,-49.52 171,-40 178.96,-36.77 187.49,-33.31 195.61,-30.04"/>
<polygon fill="black" stroke="black" points="99.61,-65.42 91.69,-72.45 102.27,-71.89 99.61,-65.42"/>
</g>
</g>
</svg>
