<?xml version="1.0" encoding="UTF-8" standalone="no"?>
<!DOCTYPE svg PUBLIC "-//W3C//DTD SVG 1.1//EN"
 "http://www.w3.org/Graphics/SVG/1.1/DTD/svg11.dtd">
<!-- Generated by graphviz version 3.0.0 (0)
 -->
<!-- Title: Local (sliding window) Partition Function and Equilibrium Probabilities Pages: 1 -->
<svg width="409pt" height="100pt"
 viewBox="0.00 0.00 409.00 99.50" xmlns="http://www.w3.org/2000/svg" xmlns:xlink="http://www.w3.org/1999/xlink">
<g id="graph0" class="graph" transform="scale(1 1) rotate(0) translate(4 95.5)">
<title>Local (sliding window) Partition Function and Equilibrium Probabilities</title>
<!-- Node1 -->
<g id="node1" class="node">
<title>Node1</title>
<g id="a_node1"><a xlink:title="Scanning version using a sliding window approach to compute equilibrium probabilities.">
<polygon fill="#bfbfbf" stroke="black" points="124,-65.5 0,-65.5 0,-24.5 124,-24.5 124,-65.5"/>
<text text-anchor="start" x="8" y="-53.5" font-family="Helvetica,sans-Serif" font-size="10.00">Local (sliding window)</text>
<text text-anchor="start" x="8" y="-42.5" font-family="Helvetica,sans-Serif" font-size="10.00"> Partition Function and</text>
<text text-anchor="middle" x="62" y="-31.5" font-family="Helvetica,sans-Serif" font-size="10.00"> Equilibrium Probabilities</text>
</a>
</g>
</g>
<!-- Node3 -->
<g id="node2" class="node">
<title>Node3</title>
<g id="a_node2"><a xlink:href="group__part__func__window__deprecated.html" target="_top" xlink:title=" ">
<polygon fill="none" stroke="black" points="401,-91.5 246,-91.5 246,-50.5 401,-50.5 401,-91.5"/>
<text text-anchor="start" x="254" y="-79.5" font-family="Helvetica,sans-Serif" font-size="10.00">Deprecated Interface</text>
<text text-anchor="start" x="254" y="-68.5" font-family="Helvetica,sans-Serif" font-size="10.00"> for Local (Sliding Window)</text>
<text text-anchor="middle" x="323.5" y="-57.5" font-family="Helvetica,sans-Serif" font-size="10.00"> Partition Function Computation</text>
</a>
</g>
</g>
<!-- Node1&#45;&gt;Node3 -->
<g id="edge2" class="edge">
<title>Node1&#45;&gt;Node3</title>
<path fill="none" stroke="black" d="M134.29,-56.07C136.89,-56.4 139.47,-56.71 142,-57 176.04,-60.9 213.81,-64.02 245.97,-66.31"/>
<polygon fill="black" stroke="black" points="134.55,-52.58 124.18,-54.75 133.64,-59.52 134.55,-52.58"/>
</g>
<!-- Node2 -->
<g id="node3" class="node">
<title>Node2</title>
<g id="a_node3"><a xlink:href="group__pf__fold.html" target="_top" xlink:title="Compute the partition function to assess various equilibrium properties.">
<polygon fill="none" stroke="black" points="390.5,-30 256.5,-30 256.5,0 390.5,0 390.5,-30"/>
<text text-anchor="start" x="264.5" y="-18" font-family="Helvetica,sans-Serif" font-size="10.00">Partition Function</text>
<text text-anchor="middle" x="323.5" y="-7" font-family="Helvetica,sans-Serif" font-size="10.00"> and Equilibrium Properties</text>
</a>
</g>
</g>
<!-- Node1&#45;&gt;Node2 -->
<g id="edge3" class="edge">
<title>Node1&#45;&gt;Node2</title>
<path fill="none" stroke="darkgreen" stroke-dasharray="5,2" d="M124.17,-37.93C163.88,-33.34 215.61,-27.36 256.29,-22.65"/>
<text text-anchor="middle" x="185" y="-39" font-family="Helvetica,sans-Serif" font-size="10.00">part_func_window.h</text>
</g>
<!-- Node2&#45;&gt;Node1 -->
<g id="edge1" class="edge">
<title>Node2&#45;&gt;Node1</title>
<path fill="none" stroke="black" d="M245.94,-16.7C213.72,-18.18 175.9,-20.93 142,-26 136.14,-26.88 130.08,-27.98 124.03,-29.2"/>
<polygon fill="black" stroke="black" points="246.36,-20.19 256.2,-16.26 246.06,-13.19 246.36,-20.19"/>
</g>
</g>
</svg>
