<?xml version="1.0" encoding="UTF-8" standalone="no"?>
<!DOCTYPE svg PUBLIC "-//W3C//DTD SVG 1.1//EN"
 "http://www.w3.org/Graphics/SVG/1.1/DTD/svg11.dtd">
<!-- Generated by graphviz version 3.0.0 (0)
 -->
<!-- Title: Local (sliding window) MFE Prediction Pages: 1 -->
<svg width="503pt" height="49pt"
 viewBox="0.00 0.00 503.00 49.00" xmlns="http://www.w3.org/2000/svg" xmlns:xlink="http://www.w3.org/1999/xlink">
<g id="graph0" class="graph" transform="scale(1 1) rotate(0) translate(4 45)">
<title>Local (sliding window) MFE Prediction</title>
<!-- Node2 -->
<g id="node1" class="node">
<title>Node2</title>
<g id="a_node1"><a xlink:href="group__mfe.html" target="_top" xlink:title="Predicting the Minimum Free Energy (MFE) and a corresponding (consensus) secondary structure.">
<polygon fill="none" stroke="black" points="113,-35.5 0,-35.5 0,-5.5 113,-5.5 113,-35.5"/>
<text text-anchor="start" x="8" y="-23.5" font-family="Helvetica,sans-Serif" font-size="10.00">Minimum Free Energy</text>
<text text-anchor="middle" x="56.5" y="-12.5" font-family="Helvetica,sans-Serif" font-size="10.00"> (MFE) Algorithms</text>
</a>
</g>
</g>
<!-- Node1 -->
<g id="node2" class="node">
<title>Node1</title>
<g id="a_node2"><a xlink:title="Variations of the local (sliding window) Minimum Free Energy (MFE) prediction algorithm.">
<polygon fill="#bfbfbf" stroke="black" points="324,-35.5 211,-35.5 211,-5.5 324,-5.5 324,-35.5"/>
<text text-anchor="start" x="219" y="-23.5" font-family="Helvetica,sans-Serif" font-size="10.00">Local (sliding window)</text>
<text text-anchor="middle" x="267.5" y="-12.5" font-family="Helvetica,sans-Serif" font-size="10.00"> MFE Prediction</text>
</a>
</g>
</g>
<!-- Node2&#45;&gt;Node1 -->
<g id="edge1" class="edge">
<title>Node2&#45;&gt;Node1</title>
<path fill="none" stroke="black" d="M123.39,-20.5C151.53,-20.5 184.02,-20.5 210.92,-20.5"/>
<polygon fill="black" stroke="black" points="123.23,-17 113.23,-20.5 123.23,-24 123.23,-17"/>
</g>
<!-- Node1&#45;&gt;Node2 -->
<g id="edge3" class="edge">
<title>Node1&#45;&gt;Node2</title>
<path fill="none" stroke="darkgreen" stroke-dasharray="5,2" d="M210.88,-8.77C204.86,-7.84 198.82,-7.05 193,-6.5 165.57,-3.91 158.43,-3.91 131,-6.5 125.18,-7.05 119.14,-7.84 113.12,-8.77"/>
<text text-anchor="middle" x="162" y="-9.5" font-family="Helvetica,sans-Serif" font-size="10.00">mfe_window.h</text>
</g>
<!-- Node3 -->
<g id="node3" class="node">
<title>Node3</title>
<g id="a_node3"><a xlink:href="group__mfe__window__deprecated.html" target="_top" xlink:title=" ">
<polygon fill="none" stroke="black" points="495,-41 361,-41 361,0 495,0 495,-41"/>
<text text-anchor="start" x="369" y="-29" font-family="Helvetica,sans-Serif" font-size="10.00">Deprecated Interface</text>
<text text-anchor="start" x="369" y="-18" font-family="Helvetica,sans-Serif" font-size="10.00"> for Local (Sliding Window)</text>
<text text-anchor="middle" x="428" y="-7" font-family="Helvetica,sans-Serif" font-size="10.00"> MFE Prediction</text>
</a>
</g>
</g>
<!-- Node1&#45;&gt;Node3 -->
<g id="edge2" class="edge">
<title>Node1&#45;&gt;Node3</title>
<path fill="none" stroke="black" d="M334.46,-20.5C343.16,-20.5 352.07,-20.5 360.77,-20.5"/>
<polygon fill="black" stroke="black" points="334.38,-17 324.38,-20.5 334.38,-24 334.38,-17"/>
</g>
</g>
</svg>
