<?xml version="1.0" encoding="UTF-8" standalone="no"?>
<!DOCTYPE svg PUBLIC "-//W3C//DTD SVG 1.1//EN"
 "http://www.w3.org/Graphics/SVG/1.1/DTD/svg11.dtd">
<!-- Generated by graphviz version 3.0.0 (0)
 -->
<!-- Title: Global MFE Prediction Pages: 1 -->
<svg width="345pt" height="139pt"
 viewBox="0.00 0.00 345.00 139.00" xmlns="http://www.w3.org/2000/svg" xmlns:xlink="http://www.w3.org/1999/xlink">
<g id="graph0" class="graph" transform="scale(1 1) rotate(0) translate(4 135)">
<title>Global MFE Prediction</title>
<!-- Node3 -->
<g id="node1" class="node">
<title>Node3</title>
<g id="a_node1"><a xlink:href="group__kl__neighborhood__mfe.html" target="_top" xlink:title="Compute the minimum free energy (MFE) and secondary structures for a partitioning of the secondary st...">
<polygon fill="none" stroke="black" points="337,-78 176,-78 176,-48 337,-48 337,-78"/>
<text text-anchor="start" x="184" y="-66" font-family="Helvetica,sans-Serif" font-size="10.00">Computing MFE representatives</text>
<text text-anchor="middle" x="256.5" y="-55" font-family="Helvetica,sans-Serif" font-size="10.00"> of a Distance Based Partitioning</text>
</a>
</g>
</g>
<!-- Node2 -->
<g id="node2" class="node">
<title>Node2</title>
<g id="a_node2"><a xlink:href="group__mfe.html" target="_top" xlink:title="Predicting the Minimum Free Energy (MFE) and a corresponding (consensus) secondary structure.">
<polygon fill="none" stroke="black" points="313,-131 200,-131 200,-101 313,-101 313,-131"/>
<text text-anchor="start" x="208" y="-119" font-family="Helvetica,sans-Serif" font-size="10.00">Minimum Free Energy</text>
<text text-anchor="middle" x="256.5" y="-108" font-family="Helvetica,sans-Serif" font-size="10.00"> (MFE) Algorithms</text>
</a>
</g>
</g>
<!-- Node1 -->
<g id="node3" class="node">
<title>Node1</title>
<g id="a_node3"><a xlink:title="Variations of the global Minimum Free Energy (MFE) prediction algorithm.">
<polygon fill="#bfbfbf" stroke="black" points="115,-84.5 0,-84.5 0,-65.5 115,-65.5 115,-84.5"/>
<text text-anchor="middle" x="57.5" y="-72.5" font-family="Helvetica,sans-Serif" font-size="10.00">Global MFE Prediction</text>
</a>
</g>
</g>
<!-- Node2&#45;&gt;Node1 -->
<g id="edge1" class="edge">
<title>Node2&#45;&gt;Node1</title>
<path fill="none" stroke="black" d="M189.73,-102.31C161.67,-96.47 129.6,-89.8 104.19,-84.51"/>
<polygon fill="black" stroke="black" points="189.37,-105.81 199.87,-104.42 190.79,-98.96 189.37,-105.81"/>
</g>
<!-- Node1&#45;&gt;Node3 -->
<g id="edge2" class="edge">
<title>Node1&#45;&gt;Node3</title>
<path fill="none" stroke="black" d="M125.61,-70.91C141.73,-69.93 159.11,-68.87 175.74,-67.86"/>
<polygon fill="black" stroke="black" points="124.98,-67.44 115.22,-71.55 125.41,-74.43 124.98,-67.44"/>
</g>
<!-- Node1&#45;&gt;Node2 -->
<g id="edge4" class="edge">
<title>Node1&#45;&gt;Node2</title>
<path fill="none" stroke="darkgreen" stroke-dasharray="5,2" d="M84.39,-84.57C98.58,-89.5 116.57,-95.24 133,-99 154.66,-103.95 178.83,-107.68 199.94,-110.36"/>
<text text-anchor="middle" x="145.5" y="-106" font-family="Helvetica,sans-Serif" font-size="10.00">mfe.h</text>
</g>
<!-- Node4 -->
<g id="node4" class="node">
<title>Node4</title>
<g id="a_node4"><a xlink:href="group__mfe__global__deprecated.html" target="_top" xlink:title=" ">
<polygon fill="none" stroke="black" points="322.5,-30 190.5,-30 190.5,0 322.5,0 322.5,-30"/>
<text text-anchor="start" x="198.5" y="-18" font-family="Helvetica,sans-Serif" font-size="10.00">Deprecated Interface</text>
<text text-anchor="middle" x="256.5" y="-7" font-family="Helvetica,sans-Serif" font-size="10.00"> for Global MFE Prediction</text>
</a>
</g>
</g>
<!-- Node1&#45;&gt;Node4 -->
<g id="edge3" class="edge">
<title>Node1&#45;&gt;Node4</title>
<path fill="none" stroke="black" d="M99.03,-62.54C121.67,-55.59 150.4,-46.79 176,-39 185.52,-36.11 195.68,-33.03 205.45,-30.08"/>
<polygon fill="black" stroke="black" points="97.95,-59.21 89.41,-65.49 100,-65.9 97.95,-59.21"/>
</g>
</g>
</svg>
