<?xml version="1.0" encoding="UTF-8" standalone="no"?>
<!DOCTYPE svg PUBLIC "-//W3C//DTD SVG 1.1//EN"
 "http://www.w3.org/Graphics/SVG/1.1/DTD/svg11.dtd">
<!-- Generated by graphviz version 3.0.0 (0)
 -->
<!-- Title: (Abstract) Data Structures Pages: 1 -->
<svg width="397pt" height="187pt"
 viewBox="0.00 0.00 397.00 187.00" xmlns="http://www.w3.org/2000/svg" xmlns:xlink="http://www.w3.org/1999/xlink">
<g id="graph0" class="graph" transform="scale(1 1) rotate(0) translate(4 183)">
<title>(Abstract) Data Structures</title>
<!-- Node7 -->
<g id="node1" class="node">
<title>Node7</title>
<g id="a_node1"><a xlink:href="group__buffer__utils.html" target="_top" xlink:title="Functions that provide dynamically buffered stream&#45;like data structures.">
<polygon fill="none" stroke="black" points="345,-179 297,-179 297,-160 345,-160 345,-179"/>
<text text-anchor="middle" x="321" y="-167" font-family="Helvetica,sans-Serif" font-size="10.00">Buffers</text>
</a>
</g>
</g>
<!-- Node1 -->
<g id="node2" class="node">
<title>Node1</title>
<g id="a_node2"><a xlink:title="All datastructures and typedefs shared among the ViennaRNA Package can be found here.">
<polygon fill="#bfbfbf" stroke="black" points="217,-93 86,-93 86,-74 217,-74 217,-93"/>
<text text-anchor="middle" x="151.5" y="-81" font-family="Helvetica,sans-Serif" font-size="10.00">(Abstract) Data Structures</text>
</a>
</g>
</g>
<!-- Node1&#45;&gt;Node7 -->
<g id="edge6" class="edge">
<title>Node1&#45;&gt;Node7</title>
<path fill="none" stroke="black" d="M172.24,-99.39C191.75,-114.4 222.95,-136.64 253,-150.5 266.94,-156.93 283.54,-161.66 296.73,-164.79"/>
<polygon fill="black" stroke="black" points="174.18,-96.46 164.15,-93.05 169.87,-101.97 174.18,-96.46"/>
</g>
<!-- Node4 -->
<g id="node3" class="node">
<title>Node4</title>
<g id="a_node3"><a xlink:href="group__dp__matrices.html" target="_top" xlink:title="This module provides interfaces that deal with creation and destruction of dynamic programming matric...">
<polygon fill="none" stroke="black" points="389,-141.5 253,-141.5 253,-111.5 389,-111.5 389,-141.5"/>
<text text-anchor="start" x="261" y="-129.5" font-family="Helvetica,sans-Serif" font-size="10.00">The Dynamic Programming</text>
<text text-anchor="middle" x="321" y="-118.5" font-family="Helvetica,sans-Serif" font-size="10.00"> Matrices</text>
</a>
</g>
</g>
<!-- Node1&#45;&gt;Node4 -->
<g id="edge3" class="edge">
<title>Node1&#45;&gt;Node4</title>
<path fill="none" stroke="black" d="M199.43,-95.55C218.7,-100.49 241.22,-106.28 261.55,-111.49"/>
<polygon fill="black" stroke="black" points="200.23,-92.14 189.67,-93.04 198.49,-98.92 200.23,-92.14"/>
</g>
<!-- Node3 -->
<g id="node4" class="node">
<title>Node3</title>
<g id="a_node4"><a xlink:href="group__fold__compound.html" target="_top" xlink:title="This module provides interfaces that deal with the most basic data structure used in structure predic...">
<polygon fill="none" stroke="black" points="373.5,-93 268.5,-93 268.5,-74 373.5,-74 373.5,-93"/>
<text text-anchor="middle" x="321" y="-81" font-family="Helvetica,sans-Serif" font-size="10.00">The Fold Compound</text>
</a>
</g>
</g>
<!-- Node1&#45;&gt;Node3 -->
<g id="edge2" class="edge">
<title>Node1&#45;&gt;Node3</title>
<path fill="none" stroke="black" d="M227.29,-83.5C241.17,-83.5 255.39,-83.5 268.38,-83.5"/>
<polygon fill="black" stroke="black" points="227.26,-80 217.26,-83.5 227.26,-87 227.26,-80"/>
</g>
<!-- Node5 -->
<g id="node5" class="node">
<title>Node5</title>
<g id="a_node5"><a xlink:href="group__hash__table__utils.html" target="_top" xlink:title="Various implementations of hash table functions.">
<polygon fill="none" stroke="black" points="356.5,-56 285.5,-56 285.5,-37 356.5,-37 356.5,-56"/>
<text text-anchor="middle" x="321" y="-44" font-family="Helvetica,sans-Serif" font-size="10.00">Hash Tables</text>
</a>
</g>
</g>
<!-- Node1&#45;&gt;Node5 -->
<g id="edge4" class="edge">
<title>Node1&#45;&gt;Node5</title>
<path fill="none" stroke="black" d="M205.4,-71.81C231.55,-66.04 262.36,-59.23 285.45,-54.13"/>
<polygon fill="black" stroke="black" points="204.65,-68.4 195.64,-73.97 206.15,-75.23 204.65,-68.4"/>
</g>
<!-- Node6 -->
<g id="node6" class="node">
<title>Node6</title>
<g id="a_node6"><a xlink:href="group__heap__utils.html" target="_top" xlink:title="Interface for an abstract implementation of a heap data structure.">
<polygon fill="none" stroke="black" points="343.5,-19 298.5,-19 298.5,0 343.5,0 343.5,-19"/>
<text text-anchor="middle" x="321" y="-7" font-family="Helvetica,sans-Serif" font-size="10.00">Heaps</text>
</a>
</g>
</g>
<!-- Node1&#45;&gt;Node6 -->
<g id="edge5" class="edge">
<title>Node1&#45;&gt;Node6</title>
<path fill="none" stroke="black" d="M175.56,-68.49C195.42,-56.1 225.2,-38.78 253,-27.5 267.73,-21.52 285.09,-16.92 298.44,-13.87"/>
<polygon fill="black" stroke="black" points="173.49,-65.66 166.92,-73.97 177.24,-71.57 173.49,-65.66"/>
</g>
<!-- Node2 -->
<g id="node7" class="node">
<title>Node2</title>
<g id="a_node7"><a xlink:href="group__utils.html" target="_top" xlink:title=" ">
<polygon fill="none" stroke="black" points="50,-93 0,-93 0,-74 50,-74 50,-93"/>
<text text-anchor="middle" x="25" y="-81" font-family="Helvetica,sans-Serif" font-size="10.00">Utilities</text>
</a>
</g>
</g>
<!-- Node2&#45;&gt;Node1 -->
<g id="edge1" class="edge">
<title>Node2&#45;&gt;Node1</title>
<path fill="none" stroke="black" d="M60.08,-83.5C68.15,-83.5 77.01,-83.5 85.94,-83.5"/>
<polygon fill="black" stroke="black" points="60,-80 50,-83.5 60,-87 60,-80"/>
</g>
</g>
</svg>
