<?xml version="1.0" encoding="UTF-8" standalone="no"?>
<!DOCTYPE svg PUBLIC "-//W3C//DTD SVG 1.1//EN"
 "http://www.w3.org/Graphics/SVG/1.1/DTD/svg11.dtd">
<!-- Generated by graphviz version 3.0.0 (0)
 -->
<!-- Title: Multiple Sequence Alignment Utilities Pages: 1 -->
<svg width="357pt" height="91pt"
 viewBox="0.00 0.00 357.00 91.00" xmlns="http://www.w3.org/2000/svg" xmlns:xlink="http://www.w3.org/1999/xlink">
<g id="graph0" class="graph" transform="scale(1 1) rotate(0) translate(4 87)">
<title>Multiple Sequence Alignment Utilities</title>
<!-- Node1 -->
<g id="node1" class="node">
<title>Node1</title>
<g id="a_node1"><a xlink:title="Functions to extract features from and to manipulate multiple sequence alignments.">
<polygon fill="#bfbfbf" stroke="black" points="143,-51.5 0,-51.5 0,-21.5 143,-21.5 143,-51.5"/>
<text text-anchor="start" x="8" y="-39.5" font-family="Helvetica,sans-Serif" font-size="10.00">Multiple Sequence Alignment</text>
<text text-anchor="middle" x="71.5" y="-28.5" font-family="Helvetica,sans-Serif" font-size="10.00"> Utilities</text>
</a>
</g>
</g>
<!-- Node3 -->
<g id="node2" class="node">
<title>Node3</title>
<g id="a_node2"><a xlink:href="group__aln__utils__deprecated.html" target="_top" xlink:title=" ">
<polygon fill="none" stroke="black" points="349,-83 235,-83 235,-42 349,-42 349,-83"/>
<text text-anchor="start" x="243" y="-71" font-family="Helvetica,sans-Serif" font-size="10.00">Deprecated Interface</text>
<text text-anchor="start" x="243" y="-60" font-family="Helvetica,sans-Serif" font-size="10.00"> for Multiple Sequence</text>
<text text-anchor="middle" x="292" y="-49" font-family="Helvetica,sans-Serif" font-size="10.00"> Alignment Utilities</text>
</a>
</g>
</g>
<!-- Node1&#45;&gt;Node3 -->
<g id="edge2" class="edge">
<title>Node1&#45;&gt;Node3</title>
<path fill="none" stroke="black" d="M152.94,-47.5C155.66,-47.84 158.35,-48.18 161,-48.5 185.22,-51.45 212.03,-54.39 234.97,-56.81"/>
<polygon fill="black" stroke="black" points="153.37,-44.03 143,-46.24 152.48,-50.97 153.37,-44.03"/>
</g>
<!-- Node2 -->
<g id="node3" class="node">
<title>Node2</title>
<g id="a_node3"><a xlink:href="group__utils.html" target="_top" xlink:title=" ">
<polygon fill="none" stroke="black" points="317,-19 267,-19 267,0 317,0 317,-19"/>
<text text-anchor="middle" x="292" y="-7" font-family="Helvetica,sans-Serif" font-size="10.00">Utilities</text>
</a>
</g>
</g>
<!-- Node1&#45;&gt;Node2 -->
<g id="edge3" class="edge">
<title>Node1&#45;&gt;Node2</title>
<path fill="none" stroke="darkgreen" stroke-dasharray="5,2" d="M143.14,-27.77C185.66,-22.52 237.13,-16.16 266.76,-12.49"/>
<text text-anchor="middle" x="189" y="-27.5" font-family="Helvetica,sans-Serif" font-size="10.00">alignments.h</text>
</g>
<!-- Node2&#45;&gt;Node1 -->
<g id="edge1" class="edge">
<title>Node2&#45;&gt;Node1</title>
<path fill="none" stroke="black" d="M256.72,-10.21C230.43,-11.09 193.29,-13.07 161,-17.5 153.22,-18.57 145.1,-19.95 137.07,-21.47"/>
<polygon fill="black" stroke="black" points="257.04,-13.7 266.93,-9.9 256.83,-6.7 257.04,-13.7"/>
</g>
</g>
</svg>
