<?xml version="1.0" encoding="UTF-8" standalone="no"?>
<!DOCTYPE svg PUBLIC "-//W3C//DTD SVG 1.1//EN"
 "http://www.w3.org/Graphics/SVG/1.1/DTD/svg11.dtd">
<!-- Generated by graphviz version 3.0.0 (0)
 -->
<!-- Title: Secondary Structure Utilities Pages: 1 -->
<svg width="394pt" height="446pt"
 viewBox="0.00 0.00 394.00 445.50" xmlns="http://www.w3.org/2000/svg" xmlns:xlink="http://www.w3.org/1999/xlink">
<g id="graph0" class="graph" transform="scale(1 1) rotate(0) translate(4 441.5)">
<title>Secondary Structure Utilities</title>
<!-- Node1 -->
<g id="node1" class="node">
<title>Node1</title>
<g id="a_node1"><a xlink:title="Functions to create, parse, convert, manipulate, and compare secondary structure representations.">
<polygon fill="#bfbfbf" stroke="black" points="192,-233.5 86,-233.5 86,-203.5 192,-203.5 192,-233.5"/>
<text text-anchor="start" x="94" y="-221.5" font-family="Helvetica,sans-Serif" font-size="10.00">Secondary Structure</text>
<text text-anchor="middle" x="139" y="-210.5" font-family="Helvetica,sans-Serif" font-size="10.00"> Utilities</text>
</a>
</g>
</g>
<!-- Node7 -->
<g id="node2" class="node">
<title>Node7</title>
<g id="a_node2"><a xlink:href="group__struct__utils__abstract__shapes.html" target="_top" xlink:title="Abstract Shapes, introduced by Giegerich et al. in (2004) , collapse the secondary structure while re...">
<polygon fill="none" stroke="black" points="386,-437.5 228,-437.5 228,-407.5 386,-407.5 386,-437.5"/>
<text text-anchor="start" x="236" y="-425.5" font-family="Helvetica,sans-Serif" font-size="10.00">Abstract Shapes Representation</text>
<text text-anchor="middle" x="307" y="-414.5" font-family="Helvetica,sans-Serif" font-size="10.00"> of Secondary Structures</text>
</a>
</g>
</g>
<!-- Node1&#45;&gt;Node7 -->
<g id="edge6" class="edge">
<title>Node1&#45;&gt;Node7</title>
<path fill="none" stroke="black" d="M145.47,-243.51C155.24,-282.34 179.42,-356.97 228,-398.5 231.98,-401.91 236.45,-404.83 241.17,-407.34"/>
<polygon fill="black" stroke="black" points="148.82,-242.47 143.08,-233.56 142.01,-244.1 148.82,-242.47"/>
</g>
<!-- Node11 -->
<g id="node3" class="node">
<title>Node11</title>
<g id="a_node3"><a xlink:href="group__struct__utils__deprecated.html" target="_top" xlink:title=" ">
<polygon fill="none" stroke="black" points="368.5,-389 245.5,-389 245.5,-348 368.5,-348 368.5,-389"/>
<text text-anchor="start" x="253.5" y="-377" font-family="Helvetica,sans-Serif" font-size="10.00">Deprecated Interface</text>
<text text-anchor="start" x="253.5" y="-366" font-family="Helvetica,sans-Serif" font-size="10.00"> for Secondary Structure</text>
<text text-anchor="middle" x="307" y="-355" font-family="Helvetica,sans-Serif" font-size="10.00"> Utilities</text>
</a>
</g>
</g>
<!-- Node1&#45;&gt;Node11 -->
<g id="edge10" class="edge">
<title>Node1&#45;&gt;Node11</title>
<path fill="none" stroke="black" d="M152.2,-242.65C166.86,-269.45 193.81,-312.37 228,-338.5 233.3,-342.55 239.22,-346.12 245.35,-349.24"/>
<polygon fill="black" stroke="black" points="155.16,-240.74 147.37,-233.56 148.98,-244.03 155.16,-240.74"/>
</g>
<!-- Node3 -->
<g id="node4" class="node">
<title>Node3</title>
<g id="a_node4"><a xlink:href="group__struct__utils__dot__bracket.html" target="_top" xlink:title="The Dot&#45;Bracket notation as introduced already in the early times of the ViennaRNA Package denotes ba...">
<polygon fill="none" stroke="black" points="369.5,-329.5 244.5,-329.5 244.5,-299.5 369.5,-299.5 369.5,-329.5"/>
<text text-anchor="start" x="252.5" y="-317.5" font-family="Helvetica,sans-Serif" font-size="10.00">Dot&#45;Bracket Notation</text>
<text text-anchor="middle" x="307" y="-306.5" font-family="Helvetica,sans-Serif" font-size="10.00"> of Secondary Structures</text>
</a>
</g>
</g>
<!-- Node1&#45;&gt;Node3 -->
<g id="edge2" class="edge">
<title>Node1&#45;&gt;Node3</title>
<path fill="none" stroke="black" d="M162.49,-241.09C179.29,-256.86 203.48,-277.35 228,-290.5 234.24,-293.85 241.02,-296.8 247.89,-299.39"/>
<polygon fill="black" stroke="black" points="164.51,-238.18 154.87,-233.79 159.67,-243.23 164.51,-238.18"/>
</g>
<!-- Node8 -->
<g id="node5" class="node">
<title>Node8</title>
<g id="a_node5"><a xlink:href="group__struct__utils__helix__list.html" target="_top" xlink:title=" ">
<polygon fill="none" stroke="black" points="370.5,-281.5 243.5,-281.5 243.5,-251.5 370.5,-251.5 370.5,-281.5"/>
<text text-anchor="start" x="251.5" y="-269.5" font-family="Helvetica,sans-Serif" font-size="10.00">Helix List Representation</text>
<text text-anchor="middle" x="307" y="-258.5" font-family="Helvetica,sans-Serif" font-size="10.00"> of Secondary Structures</text>
</a>
</g>
</g>
<!-- Node1&#45;&gt;Node8 -->
<g id="edge7" class="edge">
<title>Node1&#45;&gt;Node8</title>
<path fill="none" stroke="black" d="M202,-236.43C219.16,-241.39 237.6,-246.72 254.12,-251.5"/>
<polygon fill="black" stroke="black" points="202.65,-232.97 192.07,-233.56 200.7,-239.7 202.65,-232.97"/>
</g>
<!-- Node10 -->
<g id="node6" class="node">
<title>Node10</title>
<g id="a_node6"><a xlink:href="group__struct__utils__metrics.html" target="_top" xlink:title=" ">
<polygon fill="none" stroke="black" points="377.5,-233.5 236.5,-233.5 236.5,-203.5 377.5,-203.5 377.5,-233.5"/>
<text text-anchor="start" x="244.5" y="-221.5" font-family="Helvetica,sans-Serif" font-size="10.00">Distance measures between</text>
<text text-anchor="middle" x="307" y="-210.5" font-family="Helvetica,sans-Serif" font-size="10.00"> Secondary Structures</text>
</a>
</g>
</g>
<!-- Node1&#45;&gt;Node10 -->
<g id="edge9" class="edge">
<title>Node1&#45;&gt;Node10</title>
<path fill="none" stroke="black" d="M202.17,-218.5C213.35,-218.5 225.08,-218.5 236.46,-218.5"/>
<polygon fill="black" stroke="black" points="202.07,-215 192.07,-218.5 202.07,-222 202.07,-215"/>
</g>
<!-- Node5 -->
<g id="node7" class="node">
<title>Node5</title>
<g id="a_node7"><a xlink:href="group__struct__utils__pair__table.html" target="_top" xlink:title=" ">
<polygon fill="none" stroke="black" points="371.5,-185.5 242.5,-185.5 242.5,-155.5 371.5,-155.5 371.5,-185.5"/>
<text text-anchor="start" x="250.5" y="-173.5" font-family="Helvetica,sans-Serif" font-size="10.00">Pair Table Representation</text>
<text text-anchor="middle" x="307" y="-162.5" font-family="Helvetica,sans-Serif" font-size="10.00"> of Secondary Structures</text>
</a>
</g>
</g>
<!-- Node1&#45;&gt;Node5 -->
<g id="edge4" class="edge">
<title>Node1&#45;&gt;Node5</title>
<path fill="none" stroke="black" d="M202,-200.57C219.16,-195.61 237.6,-190.28 254.12,-185.5"/>
<polygon fill="black" stroke="black" points="200.7,-197.3 192.07,-203.44 202.65,-204.03 200.7,-197.3"/>
</g>
<!-- Node6 -->
<g id="node8" class="node">
<title>Node6</title>
<g id="a_node8"><a xlink:href="group__struct__utils__plist.html" target="_top" xlink:title=" ">
<polygon fill="none" stroke="black" points="369.5,-137.5 244.5,-137.5 244.5,-107.5 369.5,-107.5 369.5,-137.5"/>
<text text-anchor="start" x="252.5" y="-125.5" font-family="Helvetica,sans-Serif" font-size="10.00">Pair List Representation</text>
<text text-anchor="middle" x="307" y="-114.5" font-family="Helvetica,sans-Serif" font-size="10.00"> of Secondary Structures</text>
</a>
</g>
</g>
<!-- Node1&#45;&gt;Node6 -->
<g id="edge5" class="edge">
<title>Node1&#45;&gt;Node6</title>
<path fill="none" stroke="black" d="M162.49,-195.91C179.29,-180.14 203.48,-159.65 228,-146.5 234.24,-143.15 241.02,-140.2 247.89,-137.61"/>
<polygon fill="black" stroke="black" points="159.67,-193.77 154.87,-203.21 164.51,-198.82 159.67,-193.77"/>
</g>
<!-- Node9 -->
<g id="node9" class="node">
<title>Node9</title>
<g id="a_node9"><a xlink:href="group__struct__utils__tree.html" target="_top" xlink:title="Secondary structures can be readily represented as trees, where internal nodes represent base pairs,...">
<polygon fill="none" stroke="black" points="369.5,-89.5 244.5,-89.5 244.5,-59.5 369.5,-59.5 369.5,-89.5"/>
<text text-anchor="start" x="252.5" y="-77.5" font-family="Helvetica,sans-Serif" font-size="10.00">Tree Representation</text>
<text text-anchor="middle" x="307" y="-66.5" font-family="Helvetica,sans-Serif" font-size="10.00"> of Secondary Structures</text>
</a>
</g>
</g>
<!-- Node1&#45;&gt;Node9 -->
<g id="edge8" class="edge">
<title>Node1&#45;&gt;Node9</title>
<path fill="none" stroke="black" d="M151.88,-193.92C166.25,-166.72 192.94,-123.44 228,-98.5 232.96,-94.97 238.46,-91.95 244.17,-89.36"/>
<polygon fill="black" stroke="black" points="148.6,-192.65 147.15,-203.15 154.83,-195.85 148.6,-192.65"/>
</g>
<!-- Node4 -->
<g id="node10" class="node">
<title>Node4</title>
<g id="a_node10"><a xlink:href="group__struct__utils__wuss.html" target="_top" xlink:title="The WUSS notation, as frequently used for consensus secondary structures in Stockholm 1....">
<polygon fill="none" stroke="black" points="364.5,-41 249.5,-41 249.5,0 364.5,0 364.5,-41"/>
<text text-anchor="start" x="257.5" y="-29" font-family="Helvetica,sans-Serif" font-size="10.00">Washington University</text>
<text text-anchor="start" x="257.5" y="-18" font-family="Helvetica,sans-Serif" font-size="10.00"> Secondary Structure</text>
<text text-anchor="middle" x="307" y="-7" font-family="Helvetica,sans-Serif" font-size="10.00"> (WUSS) notation</text>
</a>
</g>
</g>
<!-- Node1&#45;&gt;Node4 -->
<g id="edge3" class="edge">
<title>Node1&#45;&gt;Node4</title>
<path fill="none" stroke="black" d="M146.92,-193.42C158.16,-157.12 183.69,-89.97 228,-50.5 234.28,-44.9 241.72,-40.3 249.47,-36.53"/>
<polygon fill="black" stroke="black" points="143.51,-192.63 144.01,-203.21 150.22,-194.63 143.51,-192.63"/>
</g>
<!-- Node2 -->
<g id="node11" class="node">
<title>Node2</title>
<g id="a_node11"><a xlink:href="group__utils.html" target="_top" xlink:title=" ">
<polygon fill="none" stroke="black" points="50,-228 0,-228 0,-209 50,-209 50,-228"/>
<text text-anchor="middle" x="25" y="-216" font-family="Helvetica,sans-Serif" font-size="10.00">Utilities</text>
</a>
</g>
</g>
<!-- Node2&#45;&gt;Node1 -->
<g id="edge1" class="edge">
<title>Node2&#45;&gt;Node1</title>
<path fill="none" stroke="black" d="M60.22,-218.5C68.35,-218.5 77.21,-218.5 85.93,-218.5"/>
<polygon fill="black" stroke="black" points="60.03,-215 50.03,-218.5 60.03,-222 60.03,-215"/>
</g>
</g>
</svg>
