<?xml version="1.0" encoding="UTF-8" standalone="no"?>
<!DOCTYPE svg PUBLIC "-//W3C//DTD SVG 1.1//EN"
 "http://www.w3.org/Graphics/SVG/1.1/DTD/svg11.dtd">
<!-- Generated by graphviz version 3.0.0 (0)
 -->
<!-- Title: (Re&#45;)folding Paths, Saddle Points, Energy Barriers, and Local Minima Pages: 1 -->
<svg width="502pt" height="179pt"
 viewBox="0.00 0.00 502.00 178.50" xmlns="http://www.w3.org/2000/svg" xmlns:xlink="http://www.w3.org/1999/xlink">
<g id="graph0" class="graph" transform="scale(1 1) rotate(0) translate(4 174.5)">
<title>(Re&#45;)folding Paths, Saddle Points, Energy Barriers, and Local Minima</title>
<!-- Node2 -->
<g id="node1" class="node">
<title>Node2</title>
<g id="a_node1"><a xlink:href="group__landscape.html" target="_top" xlink:title=" ">
<polygon fill="none" stroke="black" points="149,-94.5 0,-94.5 0,-64.5 149,-64.5 149,-94.5"/>
<text text-anchor="start" x="8" y="-82.5" font-family="Helvetica,sans-Serif" font-size="10.00">The RNA Secondary Structure</text>
<text text-anchor="middle" x="74.5" y="-71.5" font-family="Helvetica,sans-Serif" font-size="10.00"> Landscape</text>
</a>
</g>
</g>
<!-- Node1 -->
<g id="node2" class="node">
<title>Node1</title>
<g id="a_node2"><a xlink:title="API for various RNA folding path algorithms.">
<polygon fill="#bfbfbf" stroke="black" points="321,-100 185,-100 185,-59 321,-59 321,-100"/>
<text text-anchor="start" x="193" y="-88" font-family="Helvetica,sans-Serif" font-size="10.00">(Re&#45;)folding Paths,</text>
<text text-anchor="start" x="193" y="-77" font-family="Helvetica,sans-Serif" font-size="10.00"> Saddle Points, Energy</text>
<text text-anchor="middle" x="253" y="-66" font-family="Helvetica,sans-Serif" font-size="10.00"> Barriers, and Local Minima</text>
</a>
</g>
</g>
<!-- Node2&#45;&gt;Node1 -->
<g id="edge1" class="edge">
<title>Node2&#45;&gt;Node1</title>
<path fill="none" stroke="black" d="M159.12,-79.5C167.71,-79.5 176.36,-79.5 184.75,-79.5"/>
<polygon fill="black" stroke="black" points="159.07,-76 149.07,-79.5 159.07,-83 159.07,-76"/>
</g>
<!-- Node5 -->
<g id="node3" class="node">
<title>Node5</title>
<g id="a_node3"><a xlink:href="group__paths__deprecated.html" target="_top" xlink:title=" ">
<polygon fill="none" stroke="black" points="493.5,-170.5 357.5,-170.5 357.5,-118.5 493.5,-118.5 493.5,-170.5"/>
<text text-anchor="start" x="365.5" y="-158.5" font-family="Helvetica,sans-Serif" font-size="10.00">Deprecated Interface</text>
<text text-anchor="start" x="365.5" y="-147.5" font-family="Helvetica,sans-Serif" font-size="10.00"> for (Re&#45;)folding Paths,</text>
<text text-anchor="start" x="365.5" y="-136.5" font-family="Helvetica,sans-Serif" font-size="10.00"> Saddle Points, and Energy</text>
<text text-anchor="middle" x="425.5" y="-125.5" font-family="Helvetica,sans-Serif" font-size="10.00"> Barriers</text>
</a>
</g>
</g>
<!-- Node1&#45;&gt;Node5 -->
<g id="edge4" class="edge">
<title>Node1&#45;&gt;Node5</title>
<path fill="none" stroke="black" d="M317.32,-103.64C330.4,-108.63 344.21,-113.89 357.42,-118.93"/>
<polygon fill="black" stroke="black" points="318.54,-100.36 307.95,-100.07 316.04,-106.9 318.54,-100.36"/>
</g>
<!-- Node3 -->
<g id="node4" class="node">
<title>Node3</title>
<g id="a_node4"><a xlink:href="group__paths__direct.html" target="_top" xlink:title="Heuristics to explore direct, optimal (re&#45;)folding paths between two secondary structures.">
<polygon fill="none" stroke="black" points="488,-100 363,-100 363,-59 488,-59 488,-100"/>
<text text-anchor="start" x="371" y="-88" font-family="Helvetica,sans-Serif" font-size="10.00">Direct Refolding Paths</text>
<text text-anchor="start" x="371" y="-77" font-family="Helvetica,sans-Serif" font-size="10.00"> between two Secondary</text>
<text text-anchor="middle" x="425.5" y="-66" font-family="Helvetica,sans-Serif" font-size="10.00"> Structures</text>
</a>
</g>
</g>
<!-- Node1&#45;&gt;Node3 -->
<g id="edge2" class="edge">
<title>Node1&#45;&gt;Node3</title>
<path fill="none" stroke="black" d="M331.42,-79.5C341.96,-79.5 352.66,-79.5 362.87,-79.5"/>
<polygon fill="black" stroke="black" points="331.39,-76 321.39,-79.5 331.39,-83 331.39,-76"/>
</g>
<!-- Node4 -->
<g id="node5" class="node">
<title>Node4</title>
<g id="a_node5"><a xlink:href="group__paths__walk.html" target="_top" xlink:title="Implementation of gradient&#45; and random walks starting from a single secondary structure.">
<polygon fill="none" stroke="black" points="494,-41 357,-41 357,0 494,0 494,-41"/>
<text text-anchor="start" x="365" y="-29" font-family="Helvetica,sans-Serif" font-size="10.00">Folding Paths that</text>
<text text-anchor="start" x="365" y="-18" font-family="Helvetica,sans-Serif" font-size="10.00"> start at a single Secondary</text>
<text text-anchor="middle" x="425.5" y="-7" font-family="Helvetica,sans-Serif" font-size="10.00"> Structure</text>
</a>
</g>
</g>
<!-- Node1&#45;&gt;Node4 -->
<g id="edge3" class="edge">
<title>Node1&#45;&gt;Node4</title>
<path fill="none" stroke="black" d="M323.17,-55.57C337.1,-50.74 351.63,-45.72 365.19,-41.02"/>
<polygon fill="black" stroke="black" points="321.94,-52.29 313.63,-58.86 324.23,-58.9 321.94,-52.29"/>
</g>
</g>
</svg>
