<?xml version="1.0" encoding="UTF-8" standalone="no"?>
<!DOCTYPE svg PUBLIC "-//W3C//DTD SVG 1.1//EN"
 "http://www.w3.org/Graphics/SVG/1.1/DTD/svg11.dtd">
<!-- Generated by graphviz version 3.0.0 (0)
 -->
<!-- Title: Experimental Structure Probing Data Pages: 1 -->
<svg width="291pt" height="76pt"
 viewBox="0.00 0.00 291.00 75.50" xmlns="http://www.w3.org/2000/svg" xmlns:xlink="http://www.w3.org/1999/xlink">
<g id="graph0" class="graph" transform="scale(1 1) rotate(0) translate(4 71.5)">
<title>Experimental Structure Probing Data</title>
<!-- Node2 -->
<g id="node1" class="node">
<title>Node2</title>
<g id="a_node1"><a xlink:href="group__SHAPE__reactivities.html" target="_top" xlink:title="Incorporate SHAPE reactivity structure probing data into the folding recursions by means of soft cons...">
<polygon fill="none" stroke="black" points="278.5,-67.5 156.5,-67.5 156.5,-48.5 278.5,-48.5 278.5,-67.5"/>
<text text-anchor="middle" x="217.5" y="-55.5" font-family="Helvetica,sans-Serif" font-size="10.00">SHAPE Reactivity Data</text>
</a>
</g>
</g>
<!-- Node3 -->
<g id="node2" class="node">
<title>Node3</title>
<g id="a_node2"><a xlink:href="group__perturbation.html" target="_top" xlink:title="Find a vector of perturbation energies that minimizes the discripancies between predicted and observe...">
<polygon fill="none" stroke="black" points="283,-30 152,-30 152,0 283,0 283,-30"/>
<text text-anchor="start" x="160" y="-18" font-family="Helvetica,sans-Serif" font-size="10.00">Generate Soft Constraints</text>
<text text-anchor="middle" x="217.5" y="-7" font-family="Helvetica,sans-Serif" font-size="10.00"> from Data</text>
</a>
</g>
</g>
<!-- Node1 -->
<g id="node3" class="node">
<title>Node1</title>
<g id="a_node3"><a xlink:title="Include Experimental Structure Probing Data to Guide Structure Predictions.">
<polygon fill="#bfbfbf" stroke="black" points="116,-51 0,-51 0,-21 116,-21 116,-51"/>
<text text-anchor="start" x="8" y="-39" font-family="Helvetica,sans-Serif" font-size="10.00">Experimental Structure</text>
<text text-anchor="middle" x="58" y="-28" font-family="Helvetica,sans-Serif" font-size="10.00"> Probing Data</text>
</a>
</g>
</g>
<!-- Node1&#45;&gt;Node2 -->
<g id="edge1" class="edge">
<title>Node1&#45;&gt;Node2</title>
<path fill="none" stroke="black" d="M126.52,-45.43C136.42,-46.81 146.57,-48.23 156.32,-49.59"/>
<polygon fill="black" stroke="black" points="126.69,-41.92 116.31,-44 125.73,-48.85 126.69,-41.92"/>
</g>
<!-- Node1&#45;&gt;Node3 -->
<g id="edge2" class="edge">
<title>Node1&#45;&gt;Node3</title>
<path fill="none" stroke="black" d="M126.44,-27.01C134.84,-25.89 143.41,-24.75 151.77,-23.63"/>
<polygon fill="black" stroke="black" points="125.76,-23.57 116.31,-28.36 126.68,-30.51 125.76,-23.57"/>
</g>
</g>
</svg>
