<?xml version="1.0" encoding="UTF-8" standalone="no"?>
<!DOCTYPE svg PUBLIC "-//W3C//DTD SVG 1.1//EN"
 "http://www.w3.org/Graphics/SVG/1.1/DTD/svg11.dtd">
<!-- Generated by graphviz version 3.0.0 (0)
 -->
<!-- Title: ViennaRNA/plotting/RNApuzzler/RNApuzzler.h Pages: 1 -->
<svg width="321pt" height="229pt"
 viewBox="0.00 0.00 320.50 229.00" xmlns="http://www.w3.org/2000/svg" xmlns:xlink="http://www.w3.org/1999/xlink">
<g id="graph0" class="graph" transform="scale(1 1) rotate(0) translate(4 225)">
<title>ViennaRNA/plotting/RNApuzzler/RNApuzzler.h</title>
<!-- Node1 -->
<g id="node1" class="node">
<title>Node1</title>
<g id="a_node1"><a xlink:title="Implementation of the RNApuzzler RNA secondary structure layout algorithm .">
<polygon fill="#bfbfbf" stroke="black" points="106.5,-190.5 106.5,-220.5 243.5,-220.5 243.5,-190.5 106.5,-190.5"/>
<text text-anchor="start" x="114.5" y="-208.5" font-family="Helvetica,sans-Serif" font-size="10.00">ViennaRNA/plotting</text>
<text text-anchor="middle" x="175" y="-197.5" font-family="Helvetica,sans-Serif" font-size="10.00">/RNApuzzler/RNApuzzler.h</text>
</a>
</g>
</g>
<!-- Node2 -->
<g id="node2" class="node">
<title>Node2</title>
<g id="a_node2"><a xlink:href="layouts_8h.html" target="_top" xlink:title="Secondary structure plot layout algorithms.">
<polygon fill="none" stroke="black" points="83.5,-123.5 83.5,-153.5 186.5,-153.5 186.5,-123.5 83.5,-123.5"/>
<text text-anchor="start" x="91.5" y="-141.5" font-family="Helvetica,sans-Serif" font-size="10.00">ViennaRNA/plotting</text>
<text text-anchor="middle" x="135" y="-130.5" font-family="Helvetica,sans-Serif" font-size="10.00">/layouts.h</text>
</a>
</g>
</g>
<!-- Node1&#45;&gt;Node2 -->
<g id="edge1" class="edge">
<title>Node1&#45;&gt;Node2</title>
<path fill="none" stroke="midnightblue" d="M161.07,-181.87C155.28,-172.46 148.74,-161.83 143.66,-153.58"/>
<polygon fill="midnightblue" stroke="midnightblue" points="158.1,-183.71 166.32,-190.4 164.06,-180.05 158.1,-183.71"/>
</g>
<!-- Node5 -->
<g id="node5" class="node">
<title>Node5</title>
<g id="a_node5"><a xlink:href="plotting_2structures_8h.html" target="_top" xlink:title="Various functions for plotting RNA secondary structures.">
<polygon fill="none" stroke="black" points="191.5,-56.5 191.5,-86.5 294.5,-86.5 294.5,-56.5 191.5,-56.5"/>
<text text-anchor="start" x="199.5" y="-74.5" font-family="Helvetica,sans-Serif" font-size="10.00">ViennaRNA/plotting</text>
<text text-anchor="middle" x="243" y="-63.5" font-family="Helvetica,sans-Serif" font-size="10.00">/structures.h</text>
</a>
</g>
</g>
<!-- Node1&#45;&gt;Node5 -->
<g id="edge7" class="edge">
<title>Node1&#45;&gt;Node5</title>
<path fill="none" stroke="midnightblue" d="M186.86,-181.48C200.98,-154.07 224.1,-109.19 235.78,-86.52"/>
<polygon fill="midnightblue" stroke="midnightblue" points="183.75,-179.88 182.28,-190.37 189.97,-183.09 183.75,-179.88"/>
</g>
<!-- Node3 -->
<g id="node3" class="node">
<title>Node3</title>
<g id="a_node3"><a xlink:href="PS__dot_8h.html" target="_top" xlink:title="Use ViennaRNA/plotting/probabilities.h instead.">
<polygon fill="none" stroke="black" points="0,-0.5 0,-19.5 112,-19.5 112,-0.5 0,-0.5"/>
<text text-anchor="middle" x="56" y="-7.5" font-family="Helvetica,sans-Serif" font-size="10.00">ViennaRNA/PS_dot.h</text>
</a>
</g>
</g>
<!-- Node2&#45;&gt;Node3 -->
<g id="edge2" class="edge">
<title>Node2&#45;&gt;Node3</title>
<path fill="none" stroke="midnightblue" d="M73.8,-120.8C57.42,-113.23 41.6,-102.4 32,-87 18.24,-64.93 37.63,-34.29 48.91,-19.57"/>
<polygon fill="midnightblue" stroke="midnightblue" points="72.9,-124.22 83.48,-124.89 75.63,-117.77 72.9,-124.22"/>
</g>
<!-- Node4 -->
<g id="node4" class="node">
<title>Node4</title>
<g id="a_node4"><a xlink:href="plot__layouts_8h.html" target="_top" xlink:title="Use ViennaRNA/plotting/layouts.h instead.">
<polygon fill="none" stroke="black" points="41,-62 41,-81 173,-81 173,-62 41,-62"/>
<text text-anchor="middle" x="107" y="-69" font-family="Helvetica,sans-Serif" font-size="10.00">ViennaRNA/plot_layouts.h</text>
</a>
</g>
</g>
<!-- Node2&#45;&gt;Node4 -->
<g id="edge3" class="edge">
<title>Node2&#45;&gt;Node4</title>
<path fill="none" stroke="midnightblue" d="M124.85,-113.94C119.94,-102.54 114.34,-89.55 110.75,-81.19"/>
<polygon fill="midnightblue" stroke="midnightblue" points="121.75,-115.6 128.92,-123.4 128.18,-112.83 121.75,-115.6"/>
</g>
<!-- Node2&#45;&gt;Node5 -->
<g id="edge4" class="edge">
<title>Node2&#45;&gt;Node5</title>
<path fill="none" stroke="midnightblue" d="M167.37,-118.02C184.18,-107.9 204.34,-95.77 219.61,-86.58"/>
<polygon fill="midnightblue" stroke="midnightblue" points="165.2,-115.24 158.43,-123.4 168.81,-121.24 165.2,-115.24"/>
</g>
<!-- Node5&#45;&gt;Node3 -->
<g id="edge5" class="edge">
<title>Node5&#45;&gt;Node3</title>
<path fill="none" stroke="midnightblue" d="M189.13,-53.36C154.35,-42.29 110.58,-28.37 82.94,-19.57"/>
<polygon fill="midnightblue" stroke="midnightblue" points="188.09,-56.7 198.68,-56.4 190.22,-50.03 188.09,-56.7"/>
</g>
<!-- Node6 -->
<g id="node6" class="node">
<title>Node6</title>
<g id="a_node6"><a xlink:href="plot__structure_8h.html" target="_top" xlink:title="Use ViennaRNA/plotting/structures.h instead.">
<polygon fill="none" stroke="black" points="173.5,-0.5 173.5,-19.5 312.5,-19.5 312.5,-0.5 173.5,-0.5"/>
<text text-anchor="middle" x="243" y="-7.5" font-family="Helvetica,sans-Serif" font-size="10.00">ViennaRNA/plot_structure.h</text>
</a>
</g>
</g>
<!-- Node5&#45;&gt;Node6 -->
<g id="edge6" class="edge">
<title>Node5&#45;&gt;Node6</title>
<path fill="none" stroke="midnightblue" d="M243,-46.29C243,-36.86 243,-26.65 243,-19.66"/>
<polygon fill="midnightblue" stroke="midnightblue" points="239.5,-46.4 243,-56.4 246.5,-46.4 239.5,-46.4"/>
</g>
</g>
</svg>
