<?xml version="1.0" encoding="UTF-8" standalone="no"?>
<!DOCTYPE svg PUBLIC "-//W3C//DTD SVG 1.1//EN"
 "http://www.w3.org/Graphics/SVG/1.1/DTD/svg11.dtd">
<!-- Generated by graphviz version 3.0.0 (0)
 -->
<!-- Title: ViennaRNA/plotting/RNApuzzler/RNAturtle.h Pages: 1 -->
<svg width="321pt" height="229pt"
 viewBox="0.00 0.00 320.50 229.00" xmlns="http://www.w3.org/2000/svg" xmlns:xlink="http://www.w3.org/1999/xlink">
<g id="graph0" class="graph" transform="scale(1 1) rotate(0) translate(4 225)">
<title>ViennaRNA/plotting/RNApuzzler/RNAturtle.h</title>
<!-- Node1 -->
<g id="node1" class="node">
<title>Node1</title>
<g id="a_node1"><a xlink:title="Implementation of the RNAturtle RNA secondary structure layout algorithm .">
<polygon fill="#bfbfbf" stroke="black" points="43,-190.5 43,-220.5 171,-220.5 171,-190.5 43,-190.5"/>
<text text-anchor="start" x="51" y="-208.5" font-family="Helvetica,sans-Serif" font-size="10.00">ViennaRNA/plotting</text>
<text text-anchor="middle" x="107" y="-197.5" font-family="Helvetica,sans-Serif" font-size="10.00">/RNApuzzler/RNAturtle.h</text>
</a>
</g>
</g>
<!-- Node2 -->
<g id="node2" class="node">
<title>Node2</title>
<g id="a_node2"><a xlink:href="layouts_8h.html" target="_top" xlink:title="Secondary structure plot layout algorithms.">
<polygon fill="none" stroke="black" points="55.5,-123.5 55.5,-153.5 158.5,-153.5 158.5,-123.5 55.5,-123.5"/>
<text text-anchor="start" x="63.5" y="-141.5" font-family="Helvetica,sans-Serif" font-size="10.00">ViennaRNA/plotting</text>
<text text-anchor="middle" x="107" y="-130.5" font-family="Helvetica,sans-Serif" font-size="10.00">/layouts.h</text>
</a>
</g>
</g>
<!-- Node1&#45;&gt;Node2 -->
<g id="edge1" class="edge">
<title>Node1&#45;&gt;Node2</title>
<path fill="none" stroke="midnightblue" d="M107,-180.11C107,-171.15 107,-161.32 107,-153.58"/>
<polygon fill="midnightblue" stroke="midnightblue" points="103.5,-180.4 107,-190.4 110.5,-180.4 103.5,-180.4"/>
</g>
<!-- Node3 -->
<g id="node3" class="node">
<title>Node3</title>
<g id="a_node3"><a xlink:href="PS__dot_8h.html" target="_top" xlink:title="Use ViennaRNA/plotting/probabilities.h instead.">
<polygon fill="none" stroke="black" points="0,-0.5 0,-19.5 112,-19.5 112,-0.5 0,-0.5"/>
<text text-anchor="middle" x="56" y="-7.5" font-family="Helvetica,sans-Serif" font-size="10.00">ViennaRNA/PS_dot.h</text>
</a>
</g>
</g>
<!-- Node2&#45;&gt;Node3 -->
<g id="edge2" class="edge">
<title>Node2&#45;&gt;Node3</title>
<path fill="none" stroke="midnightblue" d="M63.3,-118.11C50.92,-110.33 38.94,-100.05 32,-87 19.91,-64.28 38.06,-34.46 48.89,-19.84"/>
<polygon fill="midnightblue" stroke="midnightblue" points="61.9,-121.35 72.31,-123.34 65.42,-115.3 61.9,-121.35"/>
</g>
<!-- Node4 -->
<g id="node4" class="node">
<title>Node4</title>
<g id="a_node4"><a xlink:href="plot__layouts_8h.html" target="_top" xlink:title="Use ViennaRNA/plotting/layouts.h instead.">
<polygon fill="none" stroke="black" points="41,-62 41,-81 173,-81 173,-62 41,-62"/>
<text text-anchor="middle" x="107" y="-69" font-family="Helvetica,sans-Serif" font-size="10.00">ViennaRNA/plot_layouts.h</text>
</a>
</g>
</g>
<!-- Node2&#45;&gt;Node4 -->
<g id="edge3" class="edge">
<title>Node2&#45;&gt;Node4</title>
<path fill="none" stroke="midnightblue" d="M107,-113.25C107,-102.02 107,-89.38 107,-81.19"/>
<polygon fill="midnightblue" stroke="midnightblue" points="103.5,-113.4 107,-123.4 110.5,-113.4 103.5,-113.4"/>
</g>
<!-- Node5 -->
<g id="node5" class="node">
<title>Node5</title>
<g id="a_node5"><a xlink:href="plotting_2structures_8h.html" target="_top" xlink:title="Various functions for plotting RNA secondary structures.">
<polygon fill="none" stroke="black" points="191.5,-56.5 191.5,-86.5 294.5,-86.5 294.5,-56.5 191.5,-56.5"/>
<text text-anchor="start" x="199.5" y="-74.5" font-family="Helvetica,sans-Serif" font-size="10.00">ViennaRNA/plotting</text>
<text text-anchor="middle" x="243" y="-63.5" font-family="Helvetica,sans-Serif" font-size="10.00">/structures.h</text>
</a>
</g>
</g>
<!-- Node2&#45;&gt;Node5 -->
<g id="edge4" class="edge">
<title>Node2&#45;&gt;Node5</title>
<path fill="none" stroke="midnightblue" d="M145.72,-118.99C167.28,-108.69 193.69,-96.07 213.55,-86.58"/>
<polygon fill="midnightblue" stroke="midnightblue" points="144.02,-115.93 136.51,-123.4 147.04,-122.24 144.02,-115.93"/>
</g>
<!-- Node5&#45;&gt;Node3 -->
<g id="edge5" class="edge">
<title>Node5&#45;&gt;Node3</title>
<path fill="none" stroke="midnightblue" d="M189.13,-53.36C154.35,-42.29 110.58,-28.37 82.94,-19.57"/>
<polygon fill="midnightblue" stroke="midnightblue" points="188.09,-56.7 198.68,-56.4 190.22,-50.03 188.09,-56.7"/>
</g>
<!-- Node6 -->
<g id="node6" class="node">
<title>Node6</title>
<g id="a_node6"><a xlink:href="plot__structure_8h.html" target="_top" xlink:title="Use ViennaRNA/plotting/structures.h instead.">
<polygon fill="none" stroke="black" points="173.5,-0.5 173.5,-19.5 312.5,-19.5 312.5,-0.5 173.5,-0.5"/>
<text text-anchor="middle" x="243" y="-7.5" font-family="Helvetica,sans-Serif" font-size="10.00">ViennaRNA/plot_structure.h</text>
</a>
</g>
</g>
<!-- Node5&#45;&gt;Node6 -->
<g id="edge6" class="edge">
<title>Node5&#45;&gt;Node6</title>
<path fill="none" stroke="midnightblue" d="M243,-46.29C243,-36.86 243,-26.65 243,-19.66"/>
<polygon fill="midnightblue" stroke="midnightblue" points="239.5,-46.4 243,-56.4 246.5,-46.4 239.5,-46.4"/>
</g>
</g>
</svg>
