<?xml version="1.0" encoding="UTF-8" standalone="no"?>
<!DOCTYPE svg PUBLIC "-//W3C//DTD SVG 1.1//EN"
 "http://www.w3.org/Graphics/SVG/1.1/DTD/svg11.dtd">
<!-- Generated by graphviz version 3.0.0 (0)
 -->
<!-- Title: vrna_fc_s Pages: 1 -->
<!--zoomable 442 -->
<svg id="main" version="1.1" xmlns="http://www.w3.org/2000/svg" xmlns:xlink="http://www.w3.org/1999/xlink" xml:space="preserve" onload="init(evt)">
<style type="text/css"><![CDATA[
.edge:hover path { stroke: red; }
.edge:hover polygon { stroke: red; fill: red; }
]]></style>
<script type="text/javascript"><![CDATA[
var edges = document.getElementsByTagName('g');
if (edges && edges.length) {
  for (var i=0;i<edges.length;i++) {
    if (edges[i].id.substr(0,4)=='edge') {
      edges[i].setAttribute('class','edge');
    }
  }
}
]]></script>
        <defs>
                <circle id="rim" cx="0" cy="0" r="7"/>
                <circle id="rim2" cx="0" cy="0" r="3.5"/>
                <g id="zoomPlus">
                        <use xlink:href="#rim" fill="#404040">
                                <set attributeName="fill" to="#808080" begin="zoomplus.mouseover" end="zoomplus.mouseout"/>
                        </use>
                        <path d="M-4,0h8M0,-4v8" fill="none" stroke="white" stroke-width="1.5" pointer-events="none"/>
                </g>
                <g id="zoomMin">
                        <use xlink:href="#rim" fill="#404040">
                                <set attributeName="fill" to="#808080" begin="zoomminus.mouseover" end="zoomminus.mouseout"/>
                        </use>
                        <path d="M-4,0h8" fill="none" stroke="white" stroke-width="1.5" pointer-events="none"/>
                </g>
                <g id="dirArrow">
                        <path fill="none" stroke="white" stroke-width="1.5" d="M0,-3.0v7 M-2.5,-0.5L0,-3.0L2.5,-0.5"/>
                </g>
               <g id="resetDef">
                       <use xlink:href="#rim2" fill="#404040">
                               <set attributeName="fill" to="#808080" begin="reset.mouseover" end="reset.mouseout"/>
                       </use>
               </g>
        </defs>

<script type="text/javascript">
var viewWidth = 525;
var viewHeight = 442;
var sectionId = 'dynsection-1';
</script>
<script xlink:href="svgpan.js"/>
<svg id="graph" class="graph">
<g id="viewport">
<title>vrna_fc_s</title>
<!-- Node1 -->
<g id="node1" class="node">
<title>Node1</title>
<g id="a_node1"><a xlink:title="The most basic data structure required by many functions throughout the RNAlib.">
<polygon fill="#bfbfbf" stroke="black" points="458,-195.5 458,-214.5 517,-214.5 517,-195.5 458,-195.5"/>
<text text-anchor="middle" x="487.5" y="-202.5" font-family="Helvetica,sans-Serif" font-size="10.00">vrna_fc_s</text>
</a>
</g>
</g>
<!-- Node2 -->
<g id="node2" class="node">
<title>Node2</title>
<g id="a_node2"><a xlink:href="group__alphabet__utils.html#structvrna__sequence__s" target="_top" xlink:title="Data structure representing a nucleotide sequence.">
<polygon fill="none" stroke="black" points="10,-380.5 10,-399.5 103,-399.5 103,-380.5 10,-380.5"/>
<text text-anchor="middle" x="56.5" y="-387.5" font-family="Helvetica,sans-Serif" font-size="10.00">vrna_sequence_s</text>
</a>
</g>
</g>
<!-- Node2&#45;&gt;Node1 -->
<g id="edge1" class="edge">
<title>Node2&#45;&gt;Node1</title>
<path fill="none" stroke="#9a32cd" stroke-dasharray="5,2" d="M99.49,-402.11C176.56,-421.55 341.69,-449.87 440,-369 464.57,-348.79 480.67,-246.85 485.19,-214.72"/>
<polygon fill="#9a32cd" stroke="#9a32cd" points="100.21,-398.68 89.66,-399.55 98.45,-405.46 100.21,-398.68"/>
<text text-anchor="middle" x="284" y="-426" font-family="Helvetica,sans-Serif" font-size="10.00"> nucleotides</text>
</g>
<!-- Node3 -->
<g id="node3" class="node">
<title>Node3</title>
<g id="a_node3"><a xlink:href="group__alphabet__utils.html#structvrna__alignment__s" target="_top" xlink:title=" ">
<polygon fill="none" stroke="#bfbfbf" points="237.5,-347.5 237.5,-366.5 330.5,-366.5 330.5,-347.5 237.5,-347.5"/>
<text text-anchor="middle" x="284" y="-354.5" font-family="Helvetica,sans-Serif" font-size="10.00">vrna_alignment_s</text>
</a>
</g>
</g>
<!-- Node2&#45;&gt;Node3 -->
<g id="edge3" class="edge">
<title>Node2&#45;&gt;Node3</title>
<path fill="none" stroke="#9a32cd" stroke-dasharray="5,2" d="M113.32,-380.74C119.29,-379.79 125.27,-378.86 131,-378 166.69,-372.62 207.19,-367.05 237.4,-363"/>
<polygon fill="#9a32cd" stroke="#9a32cd" points="112.67,-377.3 103.35,-382.34 113.77,-384.21 112.67,-377.3"/>
<text text-anchor="middle" x="163" y="-381" font-family="Helvetica,sans-Serif" font-size="10.00"> sequences</text>
</g>
<!-- Node3&#45;&gt;Node1 -->
<g id="edge2" class="edge">
<title>Node3&#45;&gt;Node1</title>
<path fill="none" stroke="#9a32cd" stroke-dasharray="5,2" d="M340.91,-358.58C373.22,-356.63 412.74,-348.99 440,-326 474.92,-296.55 483.7,-237.72 485.84,-214.62"/>
<polygon fill="#9a32cd" stroke="#9a32cd" points="340.54,-355.09 330.7,-359.02 340.84,-362.08 340.54,-355.09"/>
<text text-anchor="middle" x="406.5" y="-357" font-family="Helvetica,sans-Serif" font-size="10.00"> alignment</text>
</g>
<!-- Node4 -->
<g id="node4" class="node">
<title>Node4</title>
<g id="a_node4"><a xlink:href="group__hard__constraints.html#structvrna__hc__s" target="_top" xlink:title="The hard constraints data structure.">
<polygon fill="none" stroke="black" points="253,-309.5 253,-328.5 315,-328.5 315,-309.5 253,-309.5"/>
<text text-anchor="middle" x="284" y="-316.5" font-family="Helvetica,sans-Serif" font-size="10.00">vrna_hc_s</text>
</a>
</g>
</g>
<!-- Node4&#45;&gt;Node1 -->
<g id="edge4" class="edge">
<title>Node4&#45;&gt;Node1</title>
<path fill="none" stroke="#9a32cd" stroke-dasharray="5,2" d="M325.64,-318.15C359.2,-315.57 406.58,-307.4 440,-283 464.06,-265.43 477.94,-231.29 483.56,-214.62"/>
<polygon fill="#9a32cd" stroke="#9a32cd" points="325.03,-314.69 315.27,-318.81 325.47,-321.67 325.03,-314.69"/>
<text text-anchor="middle" x="406.5" y="-314" font-family="Helvetica,sans-Serif" font-size="10.00"> hc</text>
</g>
<!-- Node5 -->
<g id="node5" class="node">
<title>Node5</title>
<g id="a_node5"><a xlink:href="group__dp__matrices.html#structvrna__mx__mfe__s" target="_top" xlink:title="Minimum Free Energy (MFE) Dynamic Programming (DP) matrices data structure required within the vrna_f...">
<polygon fill="none" stroke="black" points="241,-271.5 241,-290.5 327,-290.5 327,-271.5 241,-271.5"/>
<text text-anchor="middle" x="284" y="-278.5" font-family="Helvetica,sans-Serif" font-size="10.00">vrna_mx_mfe_s</text>
</a>
</g>
</g>
<!-- Node5&#45;&gt;Node1 -->
<g id="edge5" class="edge">
<title>Node5&#45;&gt;Node1</title>
<path fill="none" stroke="#9a32cd" stroke-dasharray="5,2" d="M337.28,-275.8C368.43,-271.12 408,-262.35 440,-246 455.33,-238.16 469.67,-224.11 478.26,-214.67"/>
<polygon fill="#9a32cd" stroke="#9a32cd" points="336.48,-272.38 327.06,-277.23 337.45,-279.31 336.48,-272.38"/>
<text text-anchor="middle" x="406.5" y="-271" font-family="Helvetica,sans-Serif" font-size="10.00"> matrices</text>
</g>
<!-- Node6 -->
<g id="node6" class="node">
<title>Node6</title>
<g id="a_node6"><a xlink:href="group__dp__matrices.html#structvrna__mx__pf__s" target="_top" xlink:title="Partition function (PF) Dynamic Programming (DP) matrices data structure required within the vrna_fol...">
<polygon fill="none" stroke="black" points="245,-233.5 245,-252.5 323,-252.5 323,-233.5 245,-233.5"/>
<text text-anchor="middle" x="284" y="-240.5" font-family="Helvetica,sans-Serif" font-size="10.00">vrna_mx_pf_s</text>
</a>
</g>
</g>
<!-- Node6&#45;&gt;Node1 -->
<g id="edge6" class="edge">
<title>Node6&#45;&gt;Node1</title>
<path fill="none" stroke="#9a32cd" stroke-dasharray="5,2" d="M333.27,-237.91C364.05,-234.16 404.66,-228.26 440,-220 446.28,-218.53 452.93,-216.61 459.17,-214.64"/>
<polygon fill="#9a32cd" stroke="#9a32cd" points="332.75,-234.45 323.23,-239.1 333.57,-241.4 332.75,-234.45"/>
<text text-anchor="middle" x="406.5" y="-234" font-family="Helvetica,sans-Serif" font-size="10.00"> exp_matrices</text>
</g>
<!-- Node7 -->
<g id="node7" class="node">
<title>Node7</title>
<g id="a_node7"><a xlink:href="group__energy__parameters.html#structvrna__param__s" target="_top" xlink:title="The datastructure that contains temperature scaled energy parameters.">
<polygon fill="none" stroke="black" points="245,-195.5 245,-214.5 323,-214.5 323,-195.5 245,-195.5"/>
<text text-anchor="middle" x="284" y="-202.5" font-family="Helvetica,sans-Serif" font-size="10.00">vrna_param_s</text>
</a>
</g>
</g>
<!-- Node7&#45;&gt;Node1 -->
<g id="edge7" class="edge">
<title>Node7&#45;&gt;Node1</title>
<path fill="none" stroke="#9a32cd" stroke-dasharray="5,2" d="M333.41,-205C372.2,-205 425.33,-205 457.72,-205"/>
<polygon fill="#9a32cd" stroke="#9a32cd" points="333.37,-201.5 323.37,-205 333.37,-208.5 333.37,-201.5"/>
<text text-anchor="middle" x="406.5" y="-208" font-family="Helvetica,sans-Serif" font-size="10.00"> params</text>
</g>
<!-- Node8 -->
<g id="node8" class="node">
<title>Node8</title>
<g id="a_node8"><a xlink:href="group__model__details.html#structvrna__md__s" target="_top" xlink:title="The data structure that contains the complete model details used throughout the calculations.">
<polygon fill="none" stroke="black" points="24,-176.5 24,-195.5 89,-195.5 89,-176.5 24,-176.5"/>
<text text-anchor="middle" x="56.5" y="-183.5" font-family="Helvetica,sans-Serif" font-size="10.00">vrna_md_s</text>
</a>
</g>
</g>
<!-- Node8&#45;&gt;Node7 -->
<g id="edge8" class="edge">
<title>Node8&#45;&gt;Node7</title>
<path fill="none" stroke="#9a32cd" stroke-dasharray="5,2" d="M99.44,-189.53C141.16,-193.05 204.62,-198.4 244.93,-201.79"/>
<polygon fill="#9a32cd" stroke="#9a32cd" points="99.59,-186.03 89.33,-188.68 99,-193.01 99.59,-186.03"/>
<text text-anchor="middle" x="163" y="-200" font-family="Helvetica,sans-Serif" font-size="10.00"> model_details</text>
</g>
<!-- Node9 -->
<g id="node9" class="node">
<title>Node9</title>
<g id="a_node9"><a xlink:href="group__energy__parameters.html#structvrna__exp__param__s" target="_top" xlink:title="The data structure that contains temperature scaled Boltzmann weights of the energy parameters.">
<polygon fill="none" stroke="black" points="234.5,-157.5 234.5,-176.5 333.5,-176.5 333.5,-157.5 234.5,-157.5"/>
<text text-anchor="middle" x="284" y="-164.5" font-family="Helvetica,sans-Serif" font-size="10.00">vrna_exp_param_s</text>
</a>
</g>
</g>
<!-- Node8&#45;&gt;Node9 -->
<g id="edge10" class="edge">
<title>Node8&#45;&gt;Node9</title>
<path fill="none" stroke="#9a32cd" stroke-dasharray="5,2" d="M99.34,-180.46C109.67,-179.21 120.73,-177.97 131,-177 165.49,-173.76 204.49,-171.21 234.34,-169.5"/>
<polygon fill="#9a32cd" stroke="#9a32cd" points="98.79,-177.01 89.29,-181.71 99.65,-183.95 98.79,-177.01"/>
<text text-anchor="middle" x="163" y="-180" font-family="Helvetica,sans-Serif" font-size="10.00"> model_details</text>
</g>
<!-- Node9&#45;&gt;Node1 -->
<g id="edge9" class="edge">
<title>Node9&#45;&gt;Node1</title>
<path fill="none" stroke="#9a32cd" stroke-dasharray="5,2" d="M343.6,-173.38C372.78,-177.14 408.48,-182.63 440,-190 446.28,-191.47 452.93,-193.39 459.17,-195.36"/>
<polygon fill="#9a32cd" stroke="#9a32cd" points="343.92,-169.89 333.56,-172.12 343.05,-176.84 343.92,-169.89"/>
<text text-anchor="middle" x="406.5" y="-193" font-family="Helvetica,sans-Serif" font-size="10.00"> exp_params</text>
</g>
<!-- Node10 -->
<g id="node10" class="node">
<title>Node10</title>
<g id="a_node10"><a xlink:href="structvrna__structured__domains__s.html" target="_top" xlink:title=" ">
<polygon fill="none" stroke="#bfbfbf" points="215.5,-119.5 215.5,-138.5 352.5,-138.5 352.5,-119.5 215.5,-119.5"/>
<text text-anchor="middle" x="284" y="-126.5" font-family="Helvetica,sans-Serif" font-size="10.00">vrna_structured_domains_s</text>
</a>
</g>
</g>
<!-- Node10&#45;&gt;Node1 -->
<g id="edge11" class="edge">
<title>Node10&#45;&gt;Node1</title>
<path fill="none" stroke="#9a32cd" stroke-dasharray="5,2" d="M362.87,-137.96C388.42,-142.98 416.32,-150.81 440,-163 455.67,-171.06 470.13,-185.74 478.63,-195.43"/>
<polygon fill="#9a32cd" stroke="#9a32cd" points="363.3,-134.48 352.83,-136.1 362.03,-141.36 363.3,-134.48"/>
<text text-anchor="middle" x="406.5" y="-166" font-family="Helvetica,sans-Serif" font-size="10.00"> domains_struc</text>
</g>
<!-- Node11 -->
<g id="node11" class="node">
<title>Node11</title>
<g id="a_node11"><a xlink:href="group__domains__up.html#structvrna__unstructured__domain__s" target="_top" xlink:title="Data structure to store all functionality for ligand binding.">
<polygon fill="none" stroke="black" points="213,-81.5 213,-100.5 355,-100.5 355,-81.5 213,-81.5"/>
<text text-anchor="middle" x="284" y="-88.5" font-family="Helvetica,sans-Serif" font-size="10.00">vrna_unstructured_domain_s</text>
</a>
</g>
</g>
<!-- Node11&#45;&gt;Node1 -->
<g id="edge12" class="edge">
<title>Node11&#45;&gt;Node1</title>
<path fill="none" stroke="#9a32cd" stroke-dasharray="5,2" d="M365.38,-95.88C391.11,-100.62 418.48,-109.31 440,-125 464.66,-142.98 478.33,-178.34 483.74,-195.38"/>
<polygon fill="#9a32cd" stroke="#9a32cd" points="365.68,-92.38 355.24,-94.2 364.53,-99.29 365.68,-92.38"/>
<text text-anchor="middle" x="406.5" y="-128" font-family="Helvetica,sans-Serif" font-size="10.00"> domains_up</text>
</g>
<!-- Node12 -->
<g id="node12" class="node">
<title>Node12</title>
<g id="a_node12"><a xlink:href="group__grammar.html#structvrna__gr__aux__s" target="_top" xlink:title=" ">
<polygon fill="none" stroke="#bfbfbf" points="244,-43.5 244,-62.5 324,-62.5 324,-43.5 244,-43.5"/>
<text text-anchor="middle" x="284" y="-50.5" font-family="Helvetica,sans-Serif" font-size="10.00">vrna_gr_aux_s</text>
</a>
</g>
</g>
<!-- Node12&#45;&gt;Node1 -->
<g id="edge13" class="edge">
<title>Node12&#45;&gt;Node1</title>
<path fill="none" stroke="#9a32cd" stroke-dasharray="5,2" d="M334.17,-50.32C367.57,-51.11 410.8,-57.55 440,-82 475.53,-111.75 483.95,-171.66 485.91,-195.19"/>
<polygon fill="#9a32cd" stroke="#9a32cd" points="334.18,-46.82 324.15,-50.25 334.13,-53.82 334.18,-46.82"/>
<text text-anchor="middle" x="406.5" y="-85" font-family="Helvetica,sans-Serif" font-size="10.00"> aux_grammar</text>
</g>
<!-- Node13 -->
<g id="node13" class="node">
<title>Node13</title>
<g id="a_node13"><a xlink:href="group__soft__constraints.html#structvrna__sc__s" target="_top" xlink:title="The soft constraints data structure.">
<polygon fill="none" stroke="black" points="253,-0.5 253,-19.5 315,-19.5 315,-0.5 253,-0.5"/>
<text text-anchor="middle" x="284" y="-7.5" font-family="Helvetica,sans-Serif" font-size="10.00">vrna_sc_s</text>
</a>
</g>
</g>
<!-- Node13&#45;&gt;Node1 -->
<g id="edge14" class="edge">
<title>Node13&#45;&gt;Node1</title>
<path fill="none" stroke="#9a32cd" stroke-dasharray="5,2" d="M325.39,-3.15C359.93,0.28 408.85,-0.97 440,-28 465.92,-50.49 481.2,-161.04 485.35,-195.03"/>
<polygon fill="#9a32cd" stroke="#9a32cd" points="324.7,0.29 315.17,-4.34 325.51,-6.66 324.7,0.29"/>
<text text-anchor="middle" x="406.5" y="-42" font-family="Helvetica,sans-Serif" font-size="10.00"> sc</text>
<text text-anchor="middle" x="406.5" y="-31" font-family="Helvetica,sans-Serif" font-size="10.00">scs</text>
</g>
<!-- Node14 -->
<g id="node14" class="node">
<title>Node14</title>
<g id="a_node14"><a xlink:href="structvrna__sc__bp__storage__t.html" target="_top" xlink:title="A base pair constraint.">
<polygon fill="none" stroke="black" points="0,-0.5 0,-19.5 113,-19.5 113,-0.5 0,-0.5"/>
<text text-anchor="middle" x="56.5" y="-7.5" font-family="Helvetica,sans-Serif" font-size="10.00">vrna_sc_bp_storage_t</text>
</a>
</g>
</g>
<!-- Node14&#45;&gt;Node13 -->
<g id="edge15" class="edge">
<title>Node14&#45;&gt;Node13</title>
<path fill="none" stroke="#9a32cd" stroke-dasharray="5,2" d="M123.3,-10C166.08,-10 219.83,-10 252.78,-10"/>
<polygon fill="#9a32cd" stroke="#9a32cd" points="123.24,-6.5 113.24,-10 123.24,-13.5 123.24,-6.5"/>
<text text-anchor="middle" x="163" y="-13" font-family="Helvetica,sans-Serif" font-size="10.00"> bp_storage</text>
</g>
</g>
</svg>
        <g id="navigator" transform="translate(0 0)" fill="#404254">
                <rect fill="#f2f5e9" fill-opacity="0.5" stroke="#606060" stroke-width=".5" x="0" y="0" width="60" height="60"/>
                <use id="zoomplus" xlink:href="#zoomPlus" x="17" y="9" onmousedown="handleZoom(evt,'in')"/>
                <use id="zoomminus" xlink:href="#zoomMin" x="42" y="9" onmousedown="handleZoom(evt,'out')"/>
                <use id="reset" xlink:href="#resetDef" x="30" y="36" onmousedown="handleReset()"/>
                <g id="arrowUp" xlink:href="#dirArrow" transform="translate(30 24)" onmousedown="handlePan(0,-1)">
                  <use xlink:href="#rim" fill="#404040">
                        <set attributeName="fill" to="#808080" begin="arrowUp.mouseover" end="arrowUp.mouseout"/>
                  </use>
                  <path fill="none" stroke="white" stroke-width="1.5" d="M0,-3.0v7 M-2.5,-0.5L0,-3.0L2.5,-0.5"/>
                </g>
                <g id="arrowRight" xlink:href="#dirArrow" transform="rotate(90) translate(36 -43)" onmousedown="handlePan(1,0)">
                  <use xlink:href="#rim" fill="#404040">
                        <set attributeName="fill" to="#808080" begin="arrowRight.mouseover" end="arrowRight.mouseout"/>
                  </use>
                  <path fill="none" stroke="white" stroke-width="1.5" d="M0,-3.0v7 M-2.5,-0.5L0,-3.0L2.5,-0.5"/>
                </g>
                <g id="arrowDown" xlink:href="#dirArrow" transform="rotate(180) translate(-30 -48)" onmousedown="handlePan(0,1)">
                  <use xlink:href="#rim" fill="#404040">
                        <set attributeName="fill" to="#808080" begin="arrowDown.mouseover" end="arrowDown.mouseout"/>
                  </use>
                  <path fill="none" stroke="white" stroke-width="1.5" d="M0,-3.0v7 M-2.5,-0.5L0,-3.0L2.5,-0.5"/>
                </g>
                <g id="arrowLeft" xlink:href="#dirArrow" transform="rotate(270) translate(-36 17)" onmousedown="handlePan(-1,0)">
                  <use xlink:href="#rim" fill="#404040">
                        <set attributeName="fill" to="#808080" begin="arrowLeft.mouseover" end="arrowLeft.mouseout"/>
                  </use>
                  <path fill="none" stroke="white" stroke-width="1.5" d="M0,-3.0v7 M-2.5,-0.5L0,-3.0L2.5,-0.5"/>
                </g>
        </g>
        <svg viewBox="0 0 15 15" width="100%" height="30px" preserveAspectRatio="xMaxYMin meet">
         <g id="arrow_out" transform="scale(0.3 0.3)">
          <a xlink:href="structvrna__fc__s__coll__graph_org.svg" target="_base">
           <rect id="button" ry="5" rx="5" y="6" x="6" height="38" width="38"
                fill="#f2f5e9" fill-opacity="0.5" stroke="#606060" stroke-width="1.0"/>
           <path id="arrow"
             d="M 11.500037,31.436501 C 11.940474,20.09759 22.043105,11.32322 32.158766,21.979434 L 37.068811,17.246167 C 37.068811,17.246167 37.088388,32 37.088388,32 L 22.160133,31.978069 C 22.160133,31.978069 26.997745,27.140456 26.997745,27.140456 C 18.528582,18.264221 13.291696,25.230495 11.500037,31.436501 z"
             style="fill:#404040;"/>
          </a>
         </g>
        </svg>
</svg>
