<?xml version="1.0" encoding="UTF-8" standalone="no"?>
<!DOCTYPE svg PUBLIC "-//W3C//DTD SVG 1.1//EN"
 "http://www.w3.org/Graphics/SVG/1.1/DTD/svg11.dtd">
<!-- Generated by graphviz version 3.0.0 (0)
 -->
<!-- Title: TwoDpfold_vars Pages: 1 -->
<!--zoomable 435 -->
<svg id="main" version="1.1" xmlns="http://www.w3.org/2000/svg" xmlns:xlink="http://www.w3.org/1999/xlink" xml:space="preserve" onload="init(evt)">
<style type="text/css"><![CDATA[
.edge:hover path { stroke: red; }
.edge:hover polygon { stroke: red; fill: red; }
]]></style>
<script type="text/javascript"><![CDATA[
var edges = document.getElementsByTagName('g');
if (edges && edges.length) {
  for (var i=0;i<edges.length;i++) {
    if (edges[i].id.substr(0,4)=='edge') {
      edges[i].setAttribute('class','edge');
    }
  }
}
]]></script>
        <defs>
                <circle id="rim" cx="0" cy="0" r="7"/>
                <circle id="rim2" cx="0" cy="0" r="3.5"/>
                <g id="zoomPlus">
                        <use xlink:href="#rim" fill="#404040">
                                <set attributeName="fill" to="#808080" begin="zoomplus.mouseover" end="zoomplus.mouseout"/>
                        </use>
                        <path d="M-4,0h8M0,-4v8" fill="none" stroke="white" stroke-width="1.5" pointer-events="none"/>
                </g>
                <g id="zoomMin">
                        <use xlink:href="#rim" fill="#404040">
                                <set attributeName="fill" to="#808080" begin="zoomminus.mouseover" end="zoomminus.mouseout"/>
                        </use>
                        <path d="M-4,0h8" fill="none" stroke="white" stroke-width="1.5" pointer-events="none"/>
                </g>
                <g id="dirArrow">
                        <path fill="none" stroke="white" stroke-width="1.5" d="M0,-3.0v7 M-2.5,-0.5L0,-3.0L2.5,-0.5"/>
                </g>
               <g id="resetDef">
                       <use xlink:href="#rim2" fill="#404040">
                               <set attributeName="fill" to="#808080" begin="reset.mouseover" end="reset.mouseout"/>
                       </use>
               </g>
        </defs>

<script type="text/javascript">
var viewWidth = 706;
var viewHeight = 435;
var sectionId = 'dynsection-0';
</script>
<script xlink:href="svgpan.js"/>
<svg id="graph" class="graph">
<g id="viewport">
<title>TwoDpfold_vars</title>
<!-- Node1 -->
<g id="node1" class="node">
<title>Node1</title>
<g id="a_node1"><a xlink:title="Variables compound for 2Dfold partition function folding.">
<polygon fill="#bfbfbf" stroke="black" points="611,-0.5 611,-19.5 698,-19.5 698,-0.5 611,-0.5"/>
<text text-anchor="middle" x="654.5" y="-7.5" font-family="Helvetica,sans-Serif" font-size="10.00">TwoDpfold_vars</text>
</a>
</g>
</g>
<!-- Node2 -->
<g id="node2" class="node">
<title>Node2</title>
<g id="a_node2"><a xlink:href="group__energy__parameters.html#structvrna__exp__param__s" target="_top" xlink:title="The data structure that contains temperature scaled Boltzmann weights of the energy parameters.">
<polygon fill="none" stroke="black" points="234.5,-7.5 234.5,-26.5 333.5,-26.5 333.5,-7.5 234.5,-7.5"/>
<text text-anchor="middle" x="284" y="-14.5" font-family="Helvetica,sans-Serif" font-size="10.00">vrna_exp_param_s</text>
</a>
</g>
</g>
<!-- Node2&#45;&gt;Node1 -->
<g id="edge1" class="edge">
<title>Node2&#45;&gt;Node1</title>
<path fill="none" stroke="#9a32cd" stroke-dasharray="5,2" d="M343.87,-14.04C353.6,-13.63 363.58,-13.26 373,-13 457.22,-10.64 555.71,-10.1 610.72,-10"/>
<polygon fill="#9a32cd" stroke="#9a32cd" points="343.7,-10.54 333.86,-14.48 344.01,-17.54 343.7,-10.54"/>
<text text-anchor="middle" x="487.5" y="-15" font-family="Helvetica,sans-Serif" font-size="10.00"> pf_params</text>
</g>
<!-- Node4 -->
<g id="node4" class="node">
<title>Node4</title>
<g id="a_node4"><a xlink:href="group__fold__compound.html#structvrna__fc__s" target="_top" xlink:title="The most basic data structure required by many functions throughout the RNAlib.">
<polygon fill="none" stroke="black" points="458,-178.5 458,-197.5 517,-197.5 517,-178.5 458,-178.5"/>
<text text-anchor="middle" x="487.5" y="-185.5" font-family="Helvetica,sans-Serif" font-size="10.00">vrna_fc_s</text>
</a>
</g>
</g>
<!-- Node2&#45;&gt;Node4 -->
<g id="edge12" class="edge">
<title>Node2&#45;&gt;Node4</title>
<path fill="none" stroke="#9a32cd" stroke-dasharray="5,2" d="M343.97,-13.34C375.87,-14.49 413.95,-21.37 440,-44 481.24,-79.84 486.16,-152.5 486.56,-178.49"/>
<polygon fill="#9a32cd" stroke="#9a32cd" points="343.92,-9.84 333.85,-13.16 343.79,-16.84 343.92,-9.84"/>
<text text-anchor="middle" x="406.5" y="-47" font-family="Helvetica,sans-Serif" font-size="10.00"> exp_params</text>
</g>
<!-- Node3 -->
<g id="node3" class="node">
<title>Node3</title>
<g id="a_node3"><a xlink:href="group__model__details.html#structvrna__md__s" target="_top" xlink:title="The data structure that contains the complete model details used throughout the calculations.">
<polygon fill="none" stroke="black" points="24,-54.5 24,-73.5 89,-73.5 89,-54.5 24,-54.5"/>
<text text-anchor="middle" x="56.5" y="-61.5" font-family="Helvetica,sans-Serif" font-size="10.00">vrna_md_s</text>
</a>
</g>
</g>
<!-- Node3&#45;&gt;Node2 -->
<g id="edge2" class="edge">
<title>Node3&#45;&gt;Node2</title>
<path fill="none" stroke="#9a32cd" stroke-dasharray="5,2" d="M99.34,-55.28C138.52,-47.11 196.9,-34.94 237.28,-26.53"/>
<polygon fill="#9a32cd" stroke="#9a32cd" points="98.41,-51.9 89.33,-57.37 99.83,-58.75 98.41,-51.9"/>
<text text-anchor="middle" x="163" y="-51" font-family="Helvetica,sans-Serif" font-size="10.00"> model_details</text>
</g>
<!-- Node10 -->
<g id="node10" class="node">
<title>Node10</title>
<g id="a_node10"><a xlink:href="group__energy__parameters.html#structvrna__param__s" target="_top" xlink:title="The datastructure that contains temperature scaled energy parameters.">
<polygon fill="none" stroke="black" points="245,-159.5 245,-178.5 323,-178.5 323,-159.5 245,-159.5"/>
<text text-anchor="middle" x="284" y="-166.5" font-family="Helvetica,sans-Serif" font-size="10.00">vrna_param_s</text>
</a>
</g>
</g>
<!-- Node3&#45;&gt;Node10 -->
<g id="edge11" class="edge">
<title>Node3&#45;&gt;Node10</title>
<path fill="none" stroke="#9a32cd" stroke-dasharray="5,2" d="M80.68,-79.15C110.32,-97.97 163.72,-130.03 213,-150 223.04,-154.07 234.23,-157.55 244.67,-160.37"/>
<polygon fill="#9a32cd" stroke="#9a32cd" points="82.23,-75.99 71.92,-73.54 78.45,-81.88 82.23,-75.99"/>
<text text-anchor="middle" x="163" y="-144" font-family="Helvetica,sans-Serif" font-size="10.00"> model_details</text>
</g>
<!-- Node4&#45;&gt;Node1 -->
<g id="edge3" class="edge">
<title>Node4&#45;&gt;Node1</title>
<path fill="none" stroke="#9a32cd" stroke-dasharray="5,2" d="M504.28,-170.98C538.35,-134.22 617.89,-48.41 644.59,-19.62"/>
<polygon fill="#9a32cd" stroke="#9a32cd" points="501.6,-168.72 497.37,-178.43 506.74,-173.48 501.6,-168.72"/>
<text text-anchor="middle" x="564" y="-139" font-family="Helvetica,sans-Serif" font-size="10.00"> compatibility</text>
</g>
<!-- Node5 -->
<g id="node5" class="node">
<title>Node5</title>
<g id="a_node5"><a xlink:href="group__alphabet__utils.html#structvrna__sequence__s" target="_top" xlink:title="Data structure representing a nucleotide sequence.">
<polygon fill="none" stroke="black" points="10,-337.5 10,-356.5 103,-356.5 103,-337.5 10,-337.5"/>
<text text-anchor="middle" x="56.5" y="-344.5" font-family="Helvetica,sans-Serif" font-size="10.00">vrna_sequence_s</text>
</a>
</g>
</g>
<!-- Node5&#45;&gt;Node4 -->
<g id="edge4" class="edge">
<title>Node5&#45;&gt;Node4</title>
<path fill="none" stroke="#9a32cd" stroke-dasharray="5,2" d="M113.26,-341.49C213.08,-331.2 414.32,-308.34 440,-289 470.53,-266 481.65,-218.16 485.12,-197.66"/>
<polygon fill="#9a32cd" stroke="#9a32cd" points="112.65,-338.03 103.05,-342.53 113.36,-345 112.65,-338.03"/>
<text text-anchor="middle" x="284" y="-333" font-family="Helvetica,sans-Serif" font-size="10.00"> nucleotides</text>
</g>
<!-- Node6 -->
<g id="node6" class="node">
<title>Node6</title>
<g id="a_node6"><a xlink:href="group__alphabet__utils.html#structvrna__alignment__s" target="_top" xlink:title=" ">
<polygon fill="none" stroke="#bfbfbf" points="237.5,-358.5 237.5,-377.5 330.5,-377.5 330.5,-358.5 237.5,-358.5"/>
<text text-anchor="middle" x="284" y="-365.5" font-family="Helvetica,sans-Serif" font-size="10.00">vrna_alignment_s</text>
</a>
</g>
</g>
<!-- Node5&#45;&gt;Node6 -->
<g id="edge6" class="edge">
<title>Node5&#45;&gt;Node6</title>
<path fill="none" stroke="#9a32cd" stroke-dasharray="5,2" d="M113.57,-352.22C151.77,-355.78 201.69,-360.43 237.43,-363.76"/>
<polygon fill="#9a32cd" stroke="#9a32cd" points="113.41,-348.69 103.13,-351.25 112.77,-355.66 113.41,-348.69"/>
<text text-anchor="middle" x="163" y="-362" font-family="Helvetica,sans-Serif" font-size="10.00"> sequences</text>
</g>
<!-- Node6&#45;&gt;Node4 -->
<g id="edge5" class="edge">
<title>Node6&#45;&gt;Node4</title>
<path fill="none" stroke="#9a32cd" stroke-dasharray="5,2" d="M340.58,-365.18C378.86,-362.12 425.37,-355.82 440,-343 484.16,-304.3 487.21,-225.48 486.84,-197.84"/>
<polygon fill="#9a32cd" stroke="#9a32cd" points="340.25,-361.69 330.54,-365.92 340.77,-368.67 340.25,-361.69"/>
<text text-anchor="middle" x="406.5" y="-364" font-family="Helvetica,sans-Serif" font-size="10.00"> alignment</text>
</g>
<!-- Node7 -->
<g id="node7" class="node">
<title>Node7</title>
<g id="a_node7"><a xlink:href="group__hard__constraints.html#structvrna__hc__s" target="_top" xlink:title="The hard constraints data structure.">
<polygon fill="none" stroke="black" points="253,-273.5 253,-292.5 315,-292.5 315,-273.5 253,-273.5"/>
<text text-anchor="middle" x="284" y="-280.5" font-family="Helvetica,sans-Serif" font-size="10.00">vrna_hc_s</text>
</a>
</g>
</g>
<!-- Node7&#45;&gt;Node4 -->
<g id="edge7" class="edge">
<title>Node7&#45;&gt;Node4</title>
<path fill="none" stroke="#9a32cd" stroke-dasharray="5,2" d="M325.5,-281.33C358.58,-278.29 405.35,-270.05 440,-248 459.79,-235.4 474.54,-211.32 481.69,-197.81"/>
<polygon fill="#9a32cd" stroke="#9a32cd" points="324.97,-277.86 315.28,-282.14 325.52,-284.84 324.97,-277.86"/>
<text text-anchor="middle" x="406.5" y="-277" font-family="Helvetica,sans-Serif" font-size="10.00"> hc</text>
</g>
<!-- Node8 -->
<g id="node8" class="node">
<title>Node8</title>
<g id="a_node8"><a xlink:href="group__dp__matrices.html#structvrna__mx__mfe__s" target="_top" xlink:title="Minimum Free Energy (MFE) Dynamic Programming (DP) matrices data structure required within the vrna_f...">
<polygon fill="none" stroke="black" points="241,-235.5 241,-254.5 327,-254.5 327,-235.5 241,-235.5"/>
<text text-anchor="middle" x="284" y="-242.5" font-family="Helvetica,sans-Serif" font-size="10.00">vrna_mx_mfe_s</text>
</a>
</g>
</g>
<!-- Node8&#45;&gt;Node4 -->
<g id="edge8" class="edge">
<title>Node8&#45;&gt;Node4</title>
<path fill="none" stroke="#9a32cd" stroke-dasharray="5,2" d="M337.12,-238.72C367.74,-234.03 406.81,-226.25 440,-214 451.28,-209.84 463.09,-203.2 471.99,-197.67"/>
<polygon fill="#9a32cd" stroke="#9a32cd" points="336.47,-235.28 327.09,-240.2 337.49,-242.21 336.47,-235.28"/>
<text text-anchor="middle" x="406.5" y="-236" font-family="Helvetica,sans-Serif" font-size="10.00"> matrices</text>
</g>
<!-- Node9 -->
<g id="node9" class="node">
<title>Node9</title>
<g id="a_node9"><a xlink:href="group__dp__matrices.html#structvrna__mx__pf__s" target="_top" xlink:title="Partition function (PF) Dynamic Programming (DP) matrices data structure required within the vrna_fol...">
<polygon fill="none" stroke="black" points="245,-197.5 245,-216.5 323,-216.5 323,-197.5 245,-197.5"/>
<text text-anchor="middle" x="284" y="-204.5" font-family="Helvetica,sans-Serif" font-size="10.00">vrna_mx_pf_s</text>
</a>
</g>
</g>
<!-- Node9&#45;&gt;Node4 -->
<g id="edge9" class="edge">
<title>Node9&#45;&gt;Node4</title>
<path fill="none" stroke="#9a32cd" stroke-dasharray="5,2" d="M333.41,-202.44C372.2,-198.78 425.33,-193.77 457.72,-190.71"/>
<polygon fill="#9a32cd" stroke="#9a32cd" points="333,-198.96 323.37,-203.38 333.66,-205.93 333,-198.96"/>
<text text-anchor="middle" x="406.5" y="-202" font-family="Helvetica,sans-Serif" font-size="10.00"> exp_matrices</text>
</g>
<!-- Node10&#45;&gt;Node4 -->
<g id="edge10" class="edge">
<title>Node10&#45;&gt;Node4</title>
<path fill="none" stroke="#9a32cd" stroke-dasharray="5,2" d="M333.07,-169.89C363.77,-170.92 404.36,-173.16 440,-178 445.73,-178.78 451.8,-179.88 457.6,-181.07"/>
<polygon fill="#9a32cd" stroke="#9a32cd" points="333.16,-166.39 323.06,-169.58 332.95,-173.39 333.16,-166.39"/>
<text text-anchor="middle" x="406.5" y="-181" font-family="Helvetica,sans-Serif" font-size="10.00"> params</text>
</g>
<!-- Node11 -->
<g id="node11" class="node">
<title>Node11</title>
<g id="a_node11"><a xlink:href="structvrna__structured__domains__s.html" target="_top" xlink:title=" ">
<polygon fill="none" stroke="#bfbfbf" points="215.5,-121.5 215.5,-140.5 352.5,-140.5 352.5,-121.5 215.5,-121.5"/>
<text text-anchor="middle" x="284" y="-128.5" font-family="Helvetica,sans-Serif" font-size="10.00">vrna_structured_domains_s</text>
</a>
</g>
</g>
<!-- Node11&#45;&gt;Node4 -->
<g id="edge13" class="edge">
<title>Node11&#45;&gt;Node4</title>
<path fill="none" stroke="#9a32cd" stroke-dasharray="5,2" d="M362.59,-137.5C387.89,-141.31 415.7,-147.38 440,-157 452.99,-162.14 466.08,-171.31 475.05,-178.35"/>
<polygon fill="#9a32cd" stroke="#9a32cd" points="363.05,-134.03 352.66,-136.09 362.07,-140.96 363.05,-134.03"/>
<text text-anchor="middle" x="406.5" y="-160" font-family="Helvetica,sans-Serif" font-size="10.00"> domains_struc</text>
</g>
<!-- Node12 -->
<g id="node12" class="node">
<title>Node12</title>
<g id="a_node12"><a xlink:href="group__domains__up.html#structvrna__unstructured__domain__s" target="_top" xlink:title="Data structure to store all functionality for ligand binding.">
<polygon fill="none" stroke="black" points="213,-83.5 213,-102.5 355,-102.5 355,-83.5 213,-83.5"/>
<text text-anchor="middle" x="284" y="-90.5" font-family="Helvetica,sans-Serif" font-size="10.00">vrna_unstructured_domain_s</text>
</a>
</g>
</g>
<!-- Node12&#45;&gt;Node4 -->
<g id="edge14" class="edge">
<title>Node12&#45;&gt;Node4</title>
<path fill="none" stroke="#9a32cd" stroke-dasharray="5,2" d="M365.09,-98.24C390.55,-102.76 417.83,-110.81 440,-125 460.61,-138.19 475.23,-163.98 482.09,-178.13"/>
<polygon fill="#9a32cd" stroke="#9a32cd" points="365.49,-94.76 355.06,-96.62 364.38,-101.67 365.49,-94.76"/>
<text text-anchor="middle" x="406.5" y="-128" font-family="Helvetica,sans-Serif" font-size="10.00"> domains_up</text>
</g>
<!-- Node13 -->
<g id="node13" class="node">
<title>Node13</title>
<g id="a_node13"><a xlink:href="group__grammar.html#structvrna__gr__aux__s" target="_top" xlink:title=" ">
<polygon fill="none" stroke="#bfbfbf" points="244,-45.5 244,-64.5 324,-64.5 324,-45.5 244,-45.5"/>
<text text-anchor="middle" x="284" y="-52.5" font-family="Helvetica,sans-Serif" font-size="10.00">vrna_gr_aux_s</text>
</a>
</g>
</g>
<!-- Node13&#45;&gt;Node4 -->
<g id="edge15" class="edge">
<title>Node13&#45;&gt;Node4</title>
<path fill="none" stroke="#9a32cd" stroke-dasharray="5,2" d="M334.48,-53.69C367.56,-55.3 410.31,-62.47 440,-86 470.2,-109.94 481.5,-157.86 485.07,-178.35"/>
<polygon fill="#9a32cd" stroke="#9a32cd" points="334.21,-50.18 324.1,-53.35 333.98,-57.18 334.21,-50.18"/>
<text text-anchor="middle" x="406.5" y="-89" font-family="Helvetica,sans-Serif" font-size="10.00"> aux_grammar</text>
</g>
<!-- Node14 -->
<g id="node14" class="node">
<title>Node14</title>
<g id="a_node14"><a xlink:href="group__soft__constraints.html#structvrna__sc__s" target="_top" xlink:title="The soft constraints data structure.">
<polygon fill="none" stroke="black" points="253,-396.5 253,-415.5 315,-415.5 315,-396.5 253,-396.5"/>
<text text-anchor="middle" x="284" y="-403.5" font-family="Helvetica,sans-Serif" font-size="10.00">vrna_sc_s</text>
</a>
</g>
</g>
<!-- Node14&#45;&gt;Node4 -->
<g id="edge16" class="edge">
<title>Node14&#45;&gt;Node4</title>
<path fill="none" stroke="#9a32cd" stroke-dasharray="5,2" d="M325.52,-409.37C360.36,-409.94 409.66,-404.83 440,-376 466.57,-350.76 481.61,-232.18 485.49,-197.53"/>
<polygon fill="#9a32cd" stroke="#9a32cd" points="325.32,-405.86 315.21,-409.03 325.09,-412.86 325.32,-405.86"/>
<text text-anchor="middle" x="406.5" y="-419" font-family="Helvetica,sans-Serif" font-size="10.00"> sc</text>
<text text-anchor="middle" x="406.5" y="-408" font-family="Helvetica,sans-Serif" font-size="10.00">scs</text>
</g>
<!-- Node15 -->
<g id="node15" class="node">
<title>Node15</title>
<g id="a_node15"><a xlink:href="structvrna__sc__bp__storage__t.html" target="_top" xlink:title="A base pair constraint.">
<polygon fill="none" stroke="black" points="0,-396.5 0,-415.5 113,-415.5 113,-396.5 0,-396.5"/>
<text text-anchor="middle" x="56.5" y="-403.5" font-family="Helvetica,sans-Serif" font-size="10.00">vrna_sc_bp_storage_t</text>
</a>
</g>
</g>
<!-- Node15&#45;&gt;Node14 -->
<g id="edge17" class="edge">
<title>Node15&#45;&gt;Node14</title>
<path fill="none" stroke="#9a32cd" stroke-dasharray="5,2" d="M123.3,-406C166.08,-406 219.83,-406 252.78,-406"/>
<polygon fill="#9a32cd" stroke="#9a32cd" points="123.24,-402.5 113.24,-406 123.24,-409.5 123.24,-402.5"/>
<text text-anchor="middle" x="163" y="-409" font-family="Helvetica,sans-Serif" font-size="10.00"> bp_storage</text>
</g>
</g>
</svg>
        <g id="navigator" transform="translate(0 0)" fill="#404254">
                <rect fill="#f2f5e9" fill-opacity="0.5" stroke="#606060" stroke-width=".5" x="0" y="0" width="60" height="60"/>
                <use id="zoomplus" xlink:href="#zoomPlus" x="17" y="9" onmousedown="handleZoom(evt,'in')"/>
                <use id="zoomminus" xlink:href="#zoomMin" x="42" y="9" onmousedown="handleZoom(evt,'out')"/>
                <use id="reset" xlink:href="#resetDef" x="30" y="36" onmousedown="handleReset()"/>
                <g id="arrowUp" xlink:href="#dirArrow" transform="translate(30 24)" onmousedown="handlePan(0,-1)">
                  <use xlink:href="#rim" fill="#404040">
                        <set attributeName="fill" to="#808080" begin="arrowUp.mouseover" end="arrowUp.mouseout"/>
                  </use>
                  <path fill="none" stroke="white" stroke-width="1.5" d="M0,-3.0v7 M-2.5,-0.5L0,-3.0L2.5,-0.5"/>
                </g>
                <g id="arrowRight" xlink:href="#dirArrow" transform="rotate(90) translate(36 -43)" onmousedown="handlePan(1,0)">
                  <use xlink:href="#rim" fill="#404040">
                        <set attributeName="fill" to="#808080" begin="arrowRight.mouseover" end="arrowRight.mouseout"/>
                  </use>
                  <path fill="none" stroke="white" stroke-width="1.5" d="M0,-3.0v7 M-2.5,-0.5L0,-3.0L2.5,-0.5"/>
                </g>
                <g id="arrowDown" xlink:href="#dirArrow" transform="rotate(180) translate(-30 -48)" onmousedown="handlePan(0,1)">
                  <use xlink:href="#rim" fill="#404040">
                        <set attributeName="fill" to="#808080" begin="arrowDown.mouseover" end="arrowDown.mouseout"/>
                  </use>
                  <path fill="none" stroke="white" stroke-width="1.5" d="M0,-3.0v7 M-2.5,-0.5L0,-3.0L2.5,-0.5"/>
                </g>
                <g id="arrowLeft" xlink:href="#dirArrow" transform="rotate(270) translate(-36 17)" onmousedown="handlePan(-1,0)">
                  <use xlink:href="#rim" fill="#404040">
                        <set attributeName="fill" to="#808080" begin="arrowLeft.mouseover" end="arrowLeft.mouseout"/>
                  </use>
                  <path fill="none" stroke="white" stroke-width="1.5" d="M0,-3.0v7 M-2.5,-0.5L0,-3.0L2.5,-0.5"/>
                </g>
        </g>
        <svg viewBox="0 0 15 15" width="100%" height="30px" preserveAspectRatio="xMaxYMin meet">
         <g id="arrow_out" transform="scale(0.3 0.3)">
          <a xlink:href="structTwoDpfold__vars__coll__graph_org.svg" target="_base">
           <rect id="button" ry="5" rx="5" y="6" x="6" height="38" width="38"
                fill="#f2f5e9" fill-opacity="0.5" stroke="#606060" stroke-width="1.0"/>
           <path id="arrow"
             d="M 11.500037,31.436501 C 11.940474,20.09759 22.043105,11.32322 32.158766,21.979434 L 37.068811,17.246167 C 37.068811,17.246167 37.088388,32 37.088388,32 L 22.160133,31.978069 C 22.160133,31.978069 26.997745,27.140456 26.997745,27.140456 C 18.528582,18.264221 13.291696,25.230495 11.500037,31.436501 z"
             style="fill:#404040;"/>
          </a>
         </g>
        </svg>
</svg>
