<?xml version="1.0" encoding="UTF-8" standalone="no"?>
<!DOCTYPE svg PUBLIC "-//W3C//DTD SVG 1.1//EN"
 "http://www.w3.org/Graphics/SVG/1.1/DTD/svg11.dtd">
<!-- Generated by graphviz version 3.0.0 (0)
 -->
<!-- Title: ViennaRNA/utils/basic.h Pages: 1 -->
<svg width="767pt" height="207pt"
 viewBox="0.00 0.00 766.50 207.00" xmlns="http://www.w3.org/2000/svg" xmlns:xlink="http://www.w3.org/1999/xlink">
<g id="graph0" class="graph" transform="scale(1 1) rotate(0) translate(4 203)">
<title>ViennaRNA/utils/basic.h</title>
<!-- Node1 -->
<g id="node1" class="node">
<title>Node1</title>
<g id="a_node1"><a xlink:title="General utility&#45; and helper&#45;functions used throughout the ViennaRNA Package.">
<polygon fill="#bfbfbf" stroke="black" points="366.5,-179.5 366.5,-198.5 490.5,-198.5 490.5,-179.5 366.5,-179.5"/>
<text text-anchor="middle" x="428.5" y="-186.5" font-family="Helvetica,sans-Serif" font-size="10.00">ViennaRNA/utils/basic.h</text>
</a>
</g>
</g>
<!-- Node2 -->
<g id="node2" class="node">
<title>Node2</title>
<g id="a_node2"><a xlink:href="hairpin_8h.html" target="_top" xlink:title="Energy evaluation of hairpin loops for MFE and partition function calculations.">
<polygon fill="none" stroke="black" points="42.5,-123.5 42.5,-142.5 176.5,-142.5 176.5,-123.5 42.5,-123.5"/>
<text text-anchor="middle" x="109.5" y="-130.5" font-family="Helvetica,sans-Serif" font-size="10.00">ViennaRNA/loops/hairpin.h</text>
</a>
</g>
</g>
<!-- Node1&#45;&gt;Node2 -->
<g id="edge1" class="edge">
<title>Node1&#45;&gt;Node2</title>
<path fill="none" stroke="midnightblue" d="M367.82,-177.73C307.53,-167.52 216.18,-152.06 159.81,-142.52"/>
<polygon fill="midnightblue" stroke="midnightblue" points="367.51,-181.23 377.95,-179.44 368.68,-174.32 367.51,-181.23"/>
</g>
<!-- Node6 -->
<g id="node6" class="node">
<title>Node6</title>
<g id="a_node6"><a xlink:href="internal_8h.html" target="_top" xlink:title="Energy evaluation of interior loops for MFE and partition function calculations.">
<polygon fill="none" stroke="black" points="195,-123.5 195,-142.5 332,-142.5 332,-123.5 195,-123.5"/>
<text text-anchor="middle" x="263.5" y="-130.5" font-family="Helvetica,sans-Serif" font-size="10.00">ViennaRNA/loops/internal.h</text>
</a>
</g>
</g>
<!-- Node1&#45;&gt;Node6 -->
<g id="edge5" class="edge">
<title>Node1&#45;&gt;Node6</title>
<path fill="none" stroke="midnightblue" d="M392.76,-176.3C361.67,-166.13 317.35,-151.62 289.52,-142.52"/>
<polygon fill="midnightblue" stroke="midnightblue" points="391.76,-179.66 402.36,-179.44 393.94,-173.01 391.76,-179.66"/>
</g>
<!-- Node8 -->
<g id="node8" class="node">
<title>Node8</title>
<g id="a_node8"><a xlink:href="multibranch_8h.html" target="_top" xlink:title="Energy evaluation of multibranch loops for MFE and partition function calculations.">
<polygon fill="none" stroke="black" points="350.5,-123.5 350.5,-142.5 506.5,-142.5 506.5,-123.5 350.5,-123.5"/>
<text text-anchor="middle" x="428.5" y="-130.5" font-family="Helvetica,sans-Serif" font-size="10.00">ViennaRNA/loops/multibranch.h</text>
</a>
</g>
</g>
<!-- Node1&#45;&gt;Node8 -->
<g id="edge8" class="edge">
<title>Node1&#45;&gt;Node8</title>
<path fill="none" stroke="midnightblue" d="M428.5,-168.8C428.5,-159.91 428.5,-149.78 428.5,-142.75"/>
<polygon fill="midnightblue" stroke="midnightblue" points="425,-169.08 428.5,-179.08 432,-169.08 425,-169.08"/>
</g>
<!-- Node10 -->
<g id="node10" class="node">
<title>Node10</title>
<g id="a_node10"><a xlink:href="pair__mat_8h_source.html" target="_top" xlink:title=" ">
<polygon fill="none" stroke="black" points="525,-123.5 525,-142.5 642,-142.5 642,-123.5 525,-123.5"/>
<text text-anchor="middle" x="583.5" y="-130.5" font-family="Helvetica,sans-Serif" font-size="10.00">ViennaRNA/pair_mat.h</text>
</a>
</g>
</g>
<!-- Node1&#45;&gt;Node10 -->
<g id="edge11" class="edge">
<title>Node1&#45;&gt;Node10</title>
<path fill="none" stroke="midnightblue" d="M462.83,-176.04C492,-165.88 533.14,-151.55 559.05,-142.52"/>
<polygon fill="midnightblue" stroke="midnightblue" points="461.35,-172.85 453.06,-179.44 463.66,-179.46 461.35,-172.85"/>
</g>
<!-- Node11 -->
<g id="node11" class="node">
<title>Node11</title>
<g id="a_node11"><a xlink:href="utils_8h.html" target="_top" xlink:title="Use ViennaRNA/utils/basic.h instead.">
<polygon fill="none" stroke="black" points="660.5,-123.5 660.5,-142.5 758.5,-142.5 758.5,-123.5 660.5,-123.5"/>
<text text-anchor="middle" x="709.5" y="-130.5" font-family="Helvetica,sans-Serif" font-size="10.00">ViennaRNA/utils.h</text>
</a>
</g>
</g>
<!-- Node1&#45;&gt;Node11 -->
<g id="edge12" class="edge">
<title>Node1&#45;&gt;Node11</title>
<path fill="none" stroke="midnightblue" d="M482.95,-177.54C536.05,-167.33 615.84,-152 665.18,-142.52"/>
<polygon fill="midnightblue" stroke="midnightblue" points="482.19,-174.12 473.03,-179.44 483.51,-180.99 482.19,-174.12"/>
</g>
<!-- Node3 -->
<g id="node3" class="node">
<title>Node3</title>
<g id="a_node3"><a xlink:href="hairpin__loops_8h.html" target="_top" xlink:title="Use ViennaRNA/loops/hairpin.h instead.">
<polygon fill="none" stroke="black" points="0,-62 0,-81 137,-81 137,-62 0,-62"/>
<text text-anchor="middle" x="68.5" y="-69" font-family="Helvetica,sans-Serif" font-size="10.00">ViennaRNA/hairpin_loops.h</text>
</a>
</g>
</g>
<!-- Node2&#45;&gt;Node3 -->
<g id="edge2" class="edge">
<title>Node2&#45;&gt;Node3</title>
<path fill="none" stroke="midnightblue" d="M97.79,-115.01C90.13,-103.89 80.45,-89.84 74.36,-81.01"/>
<polygon fill="midnightblue" stroke="midnightblue" points="95.07,-117.23 103.63,-123.48 100.83,-113.25 95.07,-117.23"/>
</g>
<!-- Node4 -->
<g id="node4" class="node">
<title>Node4</title>
<g id="a_node4"><a xlink:href="all_8h.html" target="_top" xlink:title="Energy evaluation for MFE and partition function calculations.">
<polygon fill="none" stroke="black" points="155.5,-62 155.5,-81 271.5,-81 271.5,-62 155.5,-62"/>
<text text-anchor="middle" x="213.5" y="-69" font-family="Helvetica,sans-Serif" font-size="10.00">ViennaRNA/loops/all.h</text>
</a>
</g>
</g>
<!-- Node2&#45;&gt;Node4 -->
<g id="edge3" class="edge">
<title>Node2&#45;&gt;Node4</title>
<path fill="none" stroke="midnightblue" d="M133.27,-118.4C153.38,-106.9 181.57,-90.77 198.63,-81.01"/>
<polygon fill="midnightblue" stroke="midnightblue" points="131.34,-115.47 124.4,-123.48 134.82,-121.55 131.34,-115.47"/>
</g>
<!-- Node5 -->
<g id="node5" class="node">
<title>Node5</title>
<g id="a_node5"><a xlink:href="loop__energies_8h.html" target="_top" xlink:title="Use ViennaRNA/loops/all.h instead.">
<polygon fill="none" stroke="black" points="143.5,-0.5 143.5,-19.5 283.5,-19.5 283.5,-0.5 143.5,-0.5"/>
<text text-anchor="middle" x="213.5" y="-7.5" font-family="Helvetica,sans-Serif" font-size="10.00">ViennaRNA/loop_energies.h</text>
</a>
</g>
</g>
<!-- Node4&#45;&gt;Node5 -->
<g id="edge4" class="edge">
<title>Node4&#45;&gt;Node5</title>
<path fill="none" stroke="midnightblue" d="M213.5,-51.82C213.5,-41 213.5,-27.9 213.5,-19.51"/>
<polygon fill="midnightblue" stroke="midnightblue" points="210,-51.98 213.5,-61.98 217,-51.98 210,-51.98"/>
</g>
<!-- Node6&#45;&gt;Node4 -->
<g id="edge7" class="edge">
<title>Node6&#45;&gt;Node4</title>
<path fill="none" stroke="midnightblue" d="M249.78,-115.67C240.35,-104.45 228.22,-90.02 220.65,-81.01"/>
<polygon fill="midnightblue" stroke="midnightblue" points="247.22,-118.07 256.34,-123.48 252.58,-113.57 247.22,-118.07"/>
</g>
<!-- Node7 -->
<g id="node7" class="node">
<title>Node7</title>
<g id="a_node7"><a xlink:href="interior__loops_8h.html" target="_top" xlink:title="Use ViennaRNA/loops/internal.h instead.">
<polygon fill="none" stroke="black" points="290,-56.5 290,-86.5 391,-86.5 391,-56.5 290,-56.5"/>
<text text-anchor="start" x="298" y="-74.5" font-family="Helvetica,sans-Serif" font-size="10.00">ViennaRNA/interior</text>
<text text-anchor="middle" x="340.5" y="-63.5" font-family="Helvetica,sans-Serif" font-size="10.00">_loops.h</text>
</a>
</g>
</g>
<!-- Node6&#45;&gt;Node7 -->
<g id="edge6" class="edge">
<title>Node6&#45;&gt;Node7</title>
<path fill="none" stroke="midnightblue" d="M282.66,-117.2C294.8,-107.81 310.41,-95.75 322.35,-86.52"/>
<polygon fill="midnightblue" stroke="midnightblue" points="280.31,-114.59 274.53,-123.48 284.59,-120.13 280.31,-114.59"/>
</g>
<!-- Node8&#45;&gt;Node4 -->
<g id="edge9" class="edge">
<title>Node8&#45;&gt;Node4</title>
<path fill="none" stroke="midnightblue" d="M387.85,-120.75C346.08,-109.19 281.98,-91.45 244.25,-81.01"/>
<polygon fill="midnightblue" stroke="midnightblue" points="387.12,-124.18 397.7,-123.48 388.99,-117.43 387.12,-124.18"/>
</g>
<!-- Node9 -->
<g id="node9" class="node">
<title>Node9</title>
<g id="a_node9"><a xlink:href="multibranch__loops_8h.html" target="_top" xlink:title="Use ViennaRNA/loops/multibranch.h instead.">
<polygon fill="none" stroke="black" points="409.5,-56.5 409.5,-86.5 531.5,-86.5 531.5,-56.5 409.5,-56.5"/>
<text text-anchor="start" x="417.5" y="-74.5" font-family="Helvetica,sans-Serif" font-size="10.00">ViennaRNA/multibranch</text>
<text text-anchor="middle" x="470.5" y="-63.5" font-family="Helvetica,sans-Serif" font-size="10.00">_loops.h</text>
</a>
</g>
</g>
<!-- Node8&#45;&gt;Node9 -->
<g id="edge10" class="edge">
<title>Node8&#45;&gt;Node9</title>
<path fill="none" stroke="midnightblue" d="M440.33,-115.25C446.72,-106.19 454.53,-95.12 460.6,-86.52"/>
<polygon fill="midnightblue" stroke="midnightblue" points="437.43,-113.29 434.52,-123.48 443.14,-117.32 437.43,-113.29"/>
</g>
</g>
</svg>
