<?xml version="1.0" encoding="UTF-8" standalone="no"?>
<!DOCTYPE svg PUBLIC "-//W3C//DTD SVG 1.1//EN"
 "http://www.w3.org/Graphics/SVG/1.1/DTD/svg11.dtd">
<!-- Generated by graphviz version 3.0.0 (0)
 -->
<!-- Title: ViennaRNA/utils/basic.h Pages: 1 -->
<!--zoomable 207 -->
<svg id="main" version="1.1" xmlns="http://www.w3.org/2000/svg" xmlns:xlink="http://www.w3.org/1999/xlink" xml:space="preserve" onload="init(evt)">
<style type="text/css"><![CDATA[
.edge:hover path { stroke: red; }
.edge:hover polygon { stroke: red; fill: red; }
]]></style>
<script type="text/javascript"><![CDATA[
var edges = document.getElementsByTagName('g');
if (edges && edges.length) {
  for (var i=0;i<edges.length;i++) {
    if (edges[i].id.substr(0,4)=='edge') {
      edges[i].setAttribute('class','edge');
    }
  }
}
]]></script>
        <defs>
                <circle id="rim" cx="0" cy="0" r="7"/>
                <circle id="rim2" cx="0" cy="0" r="3.5"/>
                <g id="zoomPlus">
                        <use xlink:href="#rim" fill="#404040">
                                <set attributeName="fill" to="#808080" begin="zoomplus.mouseover" end="zoomplus.mouseout"/>
                        </use>
                        <path d="M-4,0h8M0,-4v8" fill="none" stroke="white" stroke-width="1.5" pointer-events="none"/>
                </g>
                <g id="zoomMin">
                        <use xlink:href="#rim" fill="#404040">
                                <set attributeName="fill" to="#808080" begin="zoomminus.mouseover" end="zoomminus.mouseout"/>
                        </use>
                        <path d="M-4,0h8" fill="none" stroke="white" stroke-width="1.5" pointer-events="none"/>
                </g>
                <g id="dirArrow">
                        <path fill="none" stroke="white" stroke-width="1.5" d="M0,-3.0v7 M-2.5,-0.5L0,-3.0L2.5,-0.5"/>
                </g>
               <g id="resetDef">
                       <use xlink:href="#rim2" fill="#404040">
                               <set attributeName="fill" to="#808080" begin="reset.mouseover" end="reset.mouseout"/>
                       </use>
               </g>
        </defs>

<script type="text/javascript">
var viewWidth = 767;
var viewHeight = 207;
var sectionId = 'dynsection-1';
</script>
<script xlink:href="svgpan.js"/>
<svg id="graph" class="graph">
<g id="viewport">
<title>ViennaRNA/utils/basic.h</title>
<!-- Node1 -->
<g id="node1" class="node">
<title>Node1</title>
<g id="a_node1"><a xlink:title="General utility&#45; and helper&#45;functions used throughout the ViennaRNA Package.">
<polygon fill="#bfbfbf" stroke="black" points="366.5,-179.5 366.5,-198.5 490.5,-198.5 490.5,-179.5 366.5,-179.5"/>
<text text-anchor="middle" x="428.5" y="-186.5" font-family="Helvetica,sans-Serif" font-size="10.00">ViennaRNA/utils/basic.h</text>
</a>
</g>
</g>
<!-- Node2 -->
<g id="node2" class="node">
<title>Node2</title>
<g id="a_node2"><a xlink:href="hairpin_8h.html" target="_top" xlink:title="Energy evaluation of hairpin loops for MFE and partition function calculations.">
<polygon fill="none" stroke="black" points="42.5,-123.5 42.5,-142.5 176.5,-142.5 176.5,-123.5 42.5,-123.5"/>
<text text-anchor="middle" x="109.5" y="-130.5" font-family="Helvetica,sans-Serif" font-size="10.00">ViennaRNA/loops/hairpin.h</text>
</a>
</g>
</g>
<!-- Node1&#45;&gt;Node2 -->
<g id="edge1" class="edge">
<title>Node1&#45;&gt;Node2</title>
<path fill="none" stroke="midnightblue" d="M367.82,-177.73C307.53,-167.52 216.18,-152.06 159.81,-142.52"/>
<polygon fill="midnightblue" stroke="midnightblue" points="367.51,-181.23 377.95,-179.44 368.68,-174.32 367.51,-181.23"/>
</g>
<!-- Node6 -->
<g id="node6" class="node">
<title>Node6</title>
<g id="a_node6"><a xlink:href="internal_8h.html" target="_top" xlink:title="Energy evaluation of interior loops for MFE and partition function calculations.">
<polygon fill="none" stroke="black" points="195,-123.5 195,-142.5 332,-142.5 332,-123.5 195,-123.5"/>
<text text-anchor="middle" x="263.5" y="-130.5" font-family="Helvetica,sans-Serif" font-size="10.00">ViennaRNA/loops/internal.h</text>
</a>
</g>
</g>
<!-- Node1&#45;&gt;Node6 -->
<g id="edge5" class="edge">
<title>Node1&#45;&gt;Node6</title>
<path fill="none" stroke="midnightblue" d="M392.76,-176.3C361.67,-166.13 317.35,-151.62 289.52,-142.52"/>
<polygon fill="midnightblue" stroke="midnightblue" points="391.76,-179.66 402.36,-179.44 393.94,-173.01 391.76,-179.66"/>
</g>
<!-- Node8 -->
<g id="node8" class="node">
<title>Node8</title>
<g id="a_node8"><a xlink:href="multibranch_8h.html" target="_top" xlink:title="Energy evaluation of multibranch loops for MFE and partition function calculations.">
<polygon fill="none" stroke="black" points="350.5,-123.5 350.5,-142.5 506.5,-142.5 506.5,-123.5 350.5,-123.5"/>
<text text-anchor="middle" x="428.5" y="-130.5" font-family="Helvetica,sans-Serif" font-size="10.00">ViennaRNA/loops/multibranch.h</text>
</a>
</g>
</g>
<!-- Node1&#45;&gt;Node8 -->
<g id="edge8" class="edge">
<title>Node1&#45;&gt;Node8</title>
<path fill="none" stroke="midnightblue" d="M428.5,-168.8C428.5,-159.91 428.5,-149.78 428.5,-142.75"/>
<polygon fill="midnightblue" stroke="midnightblue" points="425,-169.08 428.5,-179.08 432,-169.08 425,-169.08"/>
</g>
<!-- Node10 -->
<g id="node10" class="node">
<title>Node10</title>
<g id="a_node10"><a xlink:href="pair__mat_8h_source.html" target="_top" xlink:title=" ">
<polygon fill="none" stroke="black" points="525,-123.5 525,-142.5 642,-142.5 642,-123.5 525,-123.5"/>
<text text-anchor="middle" x="583.5" y="-130.5" font-family="Helvetica,sans-Serif" font-size="10.00">ViennaRNA/pair_mat.h</text>
</a>
</g>
</g>
<!-- Node1&#45;&gt;Node10 -->
<g id="edge11" class="edge">
<title>Node1&#45;&gt;Node10</title>
<path fill="none" stroke="midnightblue" d="M462.83,-176.04C492,-165.88 533.14,-151.55 559.05,-142.52"/>
<polygon fill="midnightblue" stroke="midnightblue" points="461.35,-172.85 453.06,-179.44 463.66,-179.46 461.35,-172.85"/>
</g>
<!-- Node11 -->
<g id="node11" class="node">
<title>Node11</title>
<g id="a_node11"><a xlink:href="utils_8h.html" target="_top" xlink:title="Use ViennaRNA/utils/basic.h instead.">
<polygon fill="none" stroke="black" points="660.5,-123.5 660.5,-142.5 758.5,-142.5 758.5,-123.5 660.5,-123.5"/>
<text text-anchor="middle" x="709.5" y="-130.5" font-family="Helvetica,sans-Serif" font-size="10.00">ViennaRNA/utils.h</text>
</a>
</g>
</g>
<!-- Node1&#45;&gt;Node11 -->
<g id="edge12" class="edge">
<title>Node1&#45;&gt;Node11</title>
<path fill="none" stroke="midnightblue" d="M482.95,-177.54C536.05,-167.33 615.84,-152 665.18,-142.52"/>
<polygon fill="midnightblue" stroke="midnightblue" points="482.19,-174.12 473.03,-179.44 483.51,-180.99 482.19,-174.12"/>
</g>
<!-- Node3 -->
<g id="node3" class="node">
<title>Node3</title>
<g id="a_node3"><a xlink:href="hairpin__loops_8h.html" target="_top" xlink:title="Use ViennaRNA/loops/hairpin.h instead.">
<polygon fill="none" stroke="black" points="0,-62 0,-81 137,-81 137,-62 0,-62"/>
<text text-anchor="middle" x="68.5" y="-69" font-family="Helvetica,sans-Serif" font-size="10.00">ViennaRNA/hairpin_loops.h</text>
</a>
</g>
</g>
<!-- Node2&#45;&gt;Node3 -->
<g id="edge2" class="edge">
<title>Node2&#45;&gt;Node3</title>
<path fill="none" stroke="midnightblue" d="M97.79,-115.01C90.13,-103.89 80.45,-89.84 74.36,-81.01"/>
<polygon fill="midnightblue" stroke="midnightblue" points="95.07,-117.23 103.63,-123.48 100.83,-113.25 95.07,-117.23"/>
</g>
<!-- Node4 -->
<g id="node4" class="node">
<title>Node4</title>
<g id="a_node4"><a xlink:href="all_8h.html" target="_top" xlink:title="Energy evaluation for MFE and partition function calculations.">
<polygon fill="none" stroke="black" points="155.5,-62 155.5,-81 271.5,-81 271.5,-62 155.5,-62"/>
<text text-anchor="middle" x="213.5" y="-69" font-family="Helvetica,sans-Serif" font-size="10.00">ViennaRNA/loops/all.h</text>
</a>
</g>
</g>
<!-- Node2&#45;&gt;Node4 -->
<g id="edge3" class="edge">
<title>Node2&#45;&gt;Node4</title>
<path fill="none" stroke="midnightblue" d="M133.27,-118.4C153.38,-106.9 181.57,-90.77 198.63,-81.01"/>
<polygon fill="midnightblue" stroke="midnightblue" points="131.34,-115.47 124.4,-123.48 134.82,-121.55 131.34,-115.47"/>
</g>
<!-- Node5 -->
<g id="node5" class="node">
<title>Node5</title>
<g id="a_node5"><a xlink:href="loop__energies_8h.html" target="_top" xlink:title="Use ViennaRNA/loops/all.h instead.">
<polygon fill="none" stroke="black" points="143.5,-0.5 143.5,-19.5 283.5,-19.5 283.5,-0.5 143.5,-0.5"/>
<text text-anchor="middle" x="213.5" y="-7.5" font-family="Helvetica,sans-Serif" font-size="10.00">ViennaRNA/loop_energies.h</text>
</a>
</g>
</g>
<!-- Node4&#45;&gt;Node5 -->
<g id="edge4" class="edge">
<title>Node4&#45;&gt;Node5</title>
<path fill="none" stroke="midnightblue" d="M213.5,-51.82C213.5,-41 213.5,-27.9 213.5,-19.51"/>
<polygon fill="midnightblue" stroke="midnightblue" points="210,-51.98 213.5,-61.98 217,-51.98 210,-51.98"/>
</g>
<!-- Node6&#45;&gt;Node4 -->
<g id="edge7" class="edge">
<title>Node6&#45;&gt;Node4</title>
<path fill="none" stroke="midnightblue" d="M249.78,-115.67C240.35,-104.45 228.22,-90.02 220.65,-81.01"/>
<polygon fill="midnightblue" stroke="midnightblue" points="247.22,-118.07 256.34,-123.48 252.58,-113.57 247.22,-118.07"/>
</g>
<!-- Node7 -->
<g id="node7" class="node">
<title>Node7</title>
<g id="a_node7"><a xlink:href="interior__loops_8h.html" target="_top" xlink:title="Use ViennaRNA/loops/internal.h instead.">
<polygon fill="none" stroke="black" points="290,-56.5 290,-86.5 391,-86.5 391,-56.5 290,-56.5"/>
<text text-anchor="start" x="298" y="-74.5" font-family="Helvetica,sans-Serif" font-size="10.00">ViennaRNA/interior</text>
<text text-anchor="middle" x="340.5" y="-63.5" font-family="Helvetica,sans-Serif" font-size="10.00">_loops.h</text>
</a>
</g>
</g>
<!-- Node6&#45;&gt;Node7 -->
<g id="edge6" class="edge">
<title>Node6&#45;&gt;Node7</title>
<path fill="none" stroke="midnightblue" d="M282.66,-117.2C294.8,-107.81 310.41,-95.75 322.35,-86.52"/>
<polygon fill="midnightblue" stroke="midnightblue" points="280.31,-114.59 274.53,-123.48 284.59,-120.13 280.31,-114.59"/>
</g>
<!-- Node8&#45;&gt;Node4 -->
<g id="edge9" class="edge">
<title>Node8&#45;&gt;Node4</title>
<path fill="none" stroke="midnightblue" d="M387.85,-120.75C346.08,-109.19 281.98,-91.45 244.25,-81.01"/>
<polygon fill="midnightblue" stroke="midnightblue" points="387.12,-124.18 397.7,-123.48 388.99,-117.43 387.12,-124.18"/>
</g>
<!-- Node9 -->
<g id="node9" class="node">
<title>Node9</title>
<g id="a_node9"><a xlink:href="multibranch__loops_8h.html" target="_top" xlink:title="Use ViennaRNA/loops/multibranch.h instead.">
<polygon fill="none" stroke="black" points="409.5,-56.5 409.5,-86.5 531.5,-86.5 531.5,-56.5 409.5,-56.5"/>
<text text-anchor="start" x="417.5" y="-74.5" font-family="Helvetica,sans-Serif" font-size="10.00">ViennaRNA/multibranch</text>
<text text-anchor="middle" x="470.5" y="-63.5" font-family="Helvetica,sans-Serif" font-size="10.00">_loops.h</text>
</a>
</g>
</g>
<!-- Node8&#45;&gt;Node9 -->
<g id="edge10" class="edge">
<title>Node8&#45;&gt;Node9</title>
<path fill="none" stroke="midnightblue" d="M440.33,-115.25C446.72,-106.19 454.53,-95.12 460.6,-86.52"/>
<polygon fill="midnightblue" stroke="midnightblue" points="437.43,-113.29 434.52,-123.48 443.14,-117.32 437.43,-113.29"/>
</g>
</g>
</svg>
        <g id="navigator" transform="translate(0 0)" fill="#404254">
                <rect fill="#f2f5e9" fill-opacity="0.5" stroke="#606060" stroke-width=".5" x="0" y="0" width="60" height="60"/>
                <use id="zoomplus" xlink:href="#zoomPlus" x="17" y="9" onmousedown="handleZoom(evt,'in')"/>
                <use id="zoomminus" xlink:href="#zoomMin" x="42" y="9" onmousedown="handleZoom(evt,'out')"/>
                <use id="reset" xlink:href="#resetDef" x="30" y="36" onmousedown="handleReset()"/>
                <g id="arrowUp" xlink:href="#dirArrow" transform="translate(30 24)" onmousedown="handlePan(0,-1)">
                  <use xlink:href="#rim" fill="#404040">
                        <set attributeName="fill" to="#808080" begin="arrowUp.mouseover" end="arrowUp.mouseout"/>
                  </use>
                  <path fill="none" stroke="white" stroke-width="1.5" d="M0,-3.0v7 M-2.5,-0.5L0,-3.0L2.5,-0.5"/>
                </g>
                <g id="arrowRight" xlink:href="#dirArrow" transform="rotate(90) translate(36 -43)" onmousedown="handlePan(1,0)">
                  <use xlink:href="#rim" fill="#404040">
                        <set attributeName="fill" to="#808080" begin="arrowRight.mouseover" end="arrowRight.mouseout"/>
                  </use>
                  <path fill="none" stroke="white" stroke-width="1.5" d="M0,-3.0v7 M-2.5,-0.5L0,-3.0L2.5,-0.5"/>
                </g>
                <g id="arrowDown" xlink:href="#dirArrow" transform="rotate(180) translate(-30 -48)" onmousedown="handlePan(0,1)">
                  <use xlink:href="#rim" fill="#404040">
                        <set attributeName="fill" to="#808080" begin="arrowDown.mouseover" end="arrowDown.mouseout"/>
                  </use>
                  <path fill="none" stroke="white" stroke-width="1.5" d="M0,-3.0v7 M-2.5,-0.5L0,-3.0L2.5,-0.5"/>
                </g>
                <g id="arrowLeft" xlink:href="#dirArrow" transform="rotate(270) translate(-36 17)" onmousedown="handlePan(-1,0)">
                  <use xlink:href="#rim" fill="#404040">
                        <set attributeName="fill" to="#808080" begin="arrowLeft.mouseover" end="arrowLeft.mouseout"/>
                  </use>
                  <path fill="none" stroke="white" stroke-width="1.5" d="M0,-3.0v7 M-2.5,-0.5L0,-3.0L2.5,-0.5"/>
                </g>
        </g>
        <svg viewBox="0 0 15 15" width="100%" height="30px" preserveAspectRatio="xMaxYMin meet">
         <g id="arrow_out" transform="scale(0.3 0.3)">
          <a xlink:href="utils_2basic_8h__dep__incl_org.svg" target="_base">
           <rect id="button" ry="5" rx="5" y="6" x="6" height="38" width="38"
                fill="#f2f5e9" fill-opacity="0.5" stroke="#606060" stroke-width="1.0"/>
           <path id="arrow"
             d="M 11.500037,31.436501 C 11.940474,20.09759 22.043105,11.32322 32.158766,21.979434 L 37.068811,17.246167 C 37.068811,17.246167 37.088388,32 37.088388,32 L 22.160133,31.978069 C 22.160133,31.978069 26.997745,27.140456 26.997745,27.140456 C 18.528582,18.264221 13.291696,25.230495 11.500037,31.436501 z"
             style="fill:#404040;"/>
          </a>
         </g>
        </svg>
</svg>
